<?xml version="1.0" encoding="UTF-8"?>
<svg width="186px" height="186px" viewBox="0 0 186 186" version="1.1" xmlns="http://www.w3.org/2000/svg" xmlns:xlink="http://www.w3.org/1999/xlink">
    <!-- Generator: Sketch 58 (84663) - https://sketch.com -->
    <title>checked</title>
    <desc>Created with Sketch.</desc>
    <g id="Page-1" stroke="none" stroke-width="1" fill="none" fill-rule="evenodd">
        <g id="Confirmation" transform="translate(-627.000000, -366.000000)" fill-rule="nonzero">
            <g id="checked" transform="translate(630.000000, 369.000000)">
                <circle id="Oval" stroke="#FFFFFF" stroke-width="5" fill="#35BE80" cx="89.8582677" cy="89.8582677" r="89.8582677"></circle>
                <path d="M66.8976378,130.393701 L111.102362,175.598425 C149.370079,165.393701 177.716535,130.527559 177.716535,88.8582677 C177.716535,88.007874 177.716535,87.1574803 177.716535,86.3070866 L143.433071,53.8582677 L66.8976378,130.393701 Z" id="Path" fill="#0AA06E"></path>
                <g id="Group" transform="translate(30.118110, 44.291339)" fill="#FFFFFF">
                    <path d="M62.007874,65.6929134 C65.976378,69.6614173 65.976378,76.4645669 62.007874,80.4330709 L53.7874016,88.6535433 C49.8188976,92.6220472 43.015748,92.6220472 39.0472441,88.6535433 L3.04724409,52.3700787 C-0.921259843,48.4015748 -0.921259843,41.5984252 3.04724409,37.6299213 L11.2677165,29.4094488 C15.2362205,25.4409449 22.0393701,25.4409449 26.007874,29.4094488 L62.007874,65.6929134 Z" id="Path"></path>
                    <path d="M93.4724409,3.04724409 C97.4409449,-0.921259843 104.244094,-0.921259843 108.212598,3.04724409 L116.433071,11.2677165 C120.401575,15.2362205 120.401575,22.0393701 116.433071,26.007874 L54.0708661,88.0866142 C50.1023622,92.0551181 43.2992126,92.0551181 39.3307087,88.0866142 L31.1102362,79.8661417 C27.1417323,75.8976378 27.1417323,69.0944882 31.1102362,65.1259843 L93.4724409,3.04724409 Z" id="Path"></path>
                </g>
            </g>
        </g>
    </g>
</svg>