<?xml version="1.0" encoding="UTF-8"?>
<svg width="29px" height="15px" viewBox="0 0 29 15" version="1.1" xmlns="http://www.w3.org/2000/svg" xmlns:xlink="http://www.w3.org/1999/xlink">
    <!-- Generator: Sketch 57.1 (83088) - https://sketch.com -->
    <title>eye</title>
    <desc>Created with Sketch.</desc>
    <g id="Page-1" stroke="none" stroke-width="1" fill="none" fill-rule="evenodd" opacity="0.846795945">
        <g id="Signup" transform="translate(-580.000000, -495.000000)" fill="#FFFFFF" fill-rule="nonzero">
            <g id="eye" transform="translate(580.000000, 495.000000)">
                <path d="M28.2320556,6.94416667 C27.9781667,6.66094444 21.8712222,0 14.2222222,0 C6.57322222,0 0.466333333,6.66094444 0.212388889,6.94416667 C-0.0708333333,7.26072222 -0.0708333333,7.73927778 0.212388889,8.05583333 C0.466333333,8.33905556 6.57333333,15 14.2222222,15 C21.8711111,15 27.9781111,8.33905556 28.2320556,8.05583333 C28.5152222,7.73927778 28.5152222,7.26072222 28.2320556,6.94416667 Z M14.2222222,13.3333333 C11.0060556,13.3333333 8.38888889,10.7161667 8.38888889,7.5 C8.38888889,4.28383333 11.0060556,1.66666667 14.2222222,1.66666667 C17.4383889,1.66666667 20.0555556,4.28383333 20.0555556,7.5 C20.0555556,10.7161667 17.4383889,13.3333333 14.2222222,13.3333333 Z" id="Shape"></path>
                <path d="M15.0555556,5.83333333 C15.0555556,4.995 15.4717222,4.2575 16.1048333,3.80388889 C15.5367222,3.51305556 14.9030556,3.33333333 14.2222222,3.33333333 C11.9248333,3.33333333 10.0555556,5.20261111 10.0555556,7.5 C10.0555556,9.79738889 11.9248333,11.6666667 14.2222222,11.6666667 C16.2791111,11.6666667 17.9815556,10.1647778 18.3178889,8.20233333 C16.6397778,8.74261111 15.0555556,7.47344444 15.0555556,5.83333333 Z" id="Path"></path>
            </g>
        </g>
    </g>
</svg>