<?xml version="1.0" encoding="UTF-8"?>
<svg width="25px" height="20px" viewBox="0 0 25 20" version="1.1" xmlns="http://www.w3.org/2000/svg" xmlns:xlink="http://www.w3.org/1999/xlink">
    <!-- Generator: Sketch 58 (84663) - https://sketch.com -->
    <title>Suche</title>
    <desc>Created with Sketch.</desc>
    <g id="Page-1" stroke="none" stroke-width="1" fill="none" fill-rule="evenodd" opacity="0.699999988">
        <g id="Home-Copy-2" transform="translate(-473.000000, -4359.000000)" fill="#D2D2D2">
            <g id="footer" transform="translate(108.000000, 3733.000000)">
                <g id="Group-15">
                    <g id="Group-16" transform="translate(353.000000, 611.000000)">
                        <g id="Group-3">
                            <g id="Inputs-/-Login" transform="translate(0.000000, 0.604878)">
                                <g id="Suche" transform="translate(12.000000, 13.634146)">
                                    <path d="M2.5,0.76097561 L22.5,0.76097561 C23.88075,0.76097561 25,1.88022351 25,3.26097561 L25,18.2609756 C25,19.6416027 23.88075,20.7609756 22.5,20.7609756 L2.5,20.7609756 C1.1192875,20.7609756 0,19.6416027 0,18.2609756 L0,3.26097561 C0,1.88022351 1.1192875,0.76097561 2.5,0.76097561 Z M12.5,9.5109967 L22.5,3.26097092 L2.5,3.26097092 L12.5,9.5109967 Z M2.5,18.2609803 L22.5,18.2609803 L22.5,6.22346537 L12.5,12.4592412 L2.5,6.22346537 L2.5,18.2609803 Z" id="Shape"></path>
                                </g>
                            </g>
                        </g>
                    </g>
                </g>
            </g>
        </g>
    </g>
</svg>