<?xml version="1.0" encoding="UTF-8"?>
<svg width="102px" height="102px" viewBox="0 0 102 102" version="1.1" xmlns="http://www.w3.org/2000/svg" xmlns:xlink="http://www.w3.org/1999/xlink">
    <title>modern-tv-remote</title>
    <g id="Page-1" stroke="none" stroke-width="1" fill="none" fill-rule="evenodd">
        <g id="Home-slider-1-Copy-2" transform="translate(-987.000000, -860.000000)">
            <g id="OVERVIEW/STEPS" transform="translate(157.000000, 721.000000)">
                <g id="Group-18" transform="translate(115.000000, 0.000000)">
                    <g id="modern-tv-remote" transform="translate(716.000000, 142.000000)">
                        <path d="M39.5833333,66.75 L8.33333333,66.75 C4.88630047,66.738567 2.09476637,63.9470329 2.08333333,60.5 L2.08333333,6.33333333 C2.08333333,2.88155365 4.88155365,0.0833333333 8.33333333,0.0833333333 L91.6666667,0.0833333333 C95.1184464,0.0833333333 97.9166667,2.88155365 97.9166667,6.33333333 L97.9166667,60.5 C97.9052336,63.9470329 95.1136995,66.738567 91.6666667,66.75 L85.4166667,66.75" id="Path" stroke="#FF6500" stroke-width="5" stroke-linecap="round" stroke-linejoin="round"></path>
                        <path d="M0,52 L39.5,52 C40.8807119,52 42,53.1192881 42,54.5 C42,55.8807119 40.8807119,57 39.5,57 L0,57 L0,57 L0,52 Z" id="Path" fill="#FF6500" fill-rule="nonzero"></path>
                        <rect id="Rectangle" stroke="#FF6500" stroke-width="5" stroke-linecap="round" stroke-linejoin="round" x="47.9166667" y="54.25" width="29.1666667" height="41.6666667" rx="1"></rect>
                        <path d="M58.3333333,63.625 C58.3333333,63.0497034 57.8669633,62.5833333 57.2916667,62.5833333 L57.2916667,62.5833333 C56.7163701,62.5833333 56.25,63.0497034 56.25,63.625 C56.25,64.2002966 56.7163701,64.6666667 57.2916667,64.6666667 C57.8669633,64.6666667 58.3333333,64.2002966 58.3333333,63.625" id="Path" stroke="#FF6500" stroke-width="5" stroke-linecap="round" stroke-linejoin="round"></path>
                        <path d="M68.75,63.625 C68.75,63.0497034 68.2836299,62.5833333 67.7083333,62.5833333 L67.7083333,62.5833333 C67.1330367,62.5833333 66.6666667,63.0497034 66.6666667,63.625 C66.6666667,64.2002966 67.1330367,64.6666667 67.7083333,64.6666667 C68.2836299,64.6666667 68.75,64.2002966 68.75,63.625" id="Path" stroke="#FF6500" stroke-width="5" stroke-linecap="round" stroke-linejoin="round"></path>
                        <path d="M58.3333333,74.0416667 C58.3333333,73.4663701 57.8669633,73 57.2916667,73 L57.2916667,73 C56.7163701,73 56.25,73.4663701 56.25,74.0416667 C56.25,74.6169633 56.7163701,75.0833333 57.2916667,75.0833333 C57.8669633,75.0833333 58.3333333,74.6169633 58.3333333,74.0416667" id="Path" stroke="#FF6500" stroke-width="5" stroke-linecap="round" stroke-linejoin="round"></path>
                        <path d="M68.75,74.0416667 C68.75,73.4663701 68.2836299,73 67.7083333,73 L67.7083333,73 C67.1330367,73 66.6666667,73.4663701 66.6666667,74.0416667 C66.6666667,74.6169633 67.1330367,75.0833333 67.7083333,75.0833333 C68.2836299,75.0833333 68.75,74.6169633 68.75,74.0416667" id="Path" stroke="#FF6500" stroke-width="5" stroke-linecap="round" stroke-linejoin="round"></path>
                        <path d="M58.3333333,84.4583333 C58.3333333,83.8830367 57.8669633,83.4166667 57.2916667,83.4166667 L57.2916667,83.4166667 C56.7163701,83.4166667 56.25,83.8830367 56.25,84.4583333 C56.25,85.0336299 56.7163701,85.5 57.2916667,85.5 C57.8669633,85.5 58.3333333,85.0336299 58.3333333,84.4583333" id="Path" stroke="#FF6500" stroke-width="5" stroke-linecap="round" stroke-linejoin="round"></path>
                        <path d="M68.75,84.4583333 C68.75,83.8830367 68.2836299,83.4166667 67.7083333,83.4166667 L67.7083333,83.4166667 C67.1330367,83.4166667 66.6666667,83.8830367 66.6666667,84.4583333 C66.6666667,85.0336299 67.1330367,85.5 67.7083333,85.5 C68.2836299,85.5 68.75,85.0336299 68.75,84.4583333" id="Path" stroke="#FF6500" stroke-width="5" stroke-linecap="round" stroke-linejoin="round"></path>
                        <path d="M76.1416667,29.0708333 C67.8176054,23.9726586 57.3941379,23.748207 48.8583333,28.4833333" id="Path" stroke="#FF6500" stroke-width="4" stroke-linecap="round" stroke-linejoin="round"></path>
                        <path d="M71.9458333,36.1666667 C66.1840306,32.6328041 58.9661735,32.4736101 53.0541667,35.75" id="Path" stroke="#FF6500" stroke-width="4" stroke-linecap="round" stroke-linejoin="round"></path>
                        <path d="M67.7333333,43.2833333 C64.5372953,41.3314864 60.5378434,41.2518795 57.2666667,43.075" id="Path" stroke="#FF6500" stroke-width="4" stroke-linecap="round" stroke-linejoin="round"></path>
                    </g>
                </g>
            </g>
        </g>
    </g>
</svg>