<?xml version="1.0" encoding="UTF-8"?>
<svg width="110px" height="109px" viewBox="0 0 110 109" version="1.1" xmlns="http://www.w3.org/2000/svg" xmlns:xlink="http://www.w3.org/1999/xlink">
    <title>Group 22</title>
    <g id="Page-1" stroke="none" stroke-width="1" fill="none" fill-rule="evenodd">
        <g id="Home-slider-1-Copy-2" transform="translate(-983.000000, -1158.000000)">
            <g id="OVERVIEW/STEPS" transform="translate(157.000000, 721.000000)">
                <g id="Group-18" transform="translate(115.000000, 0.000000)">
                    <g id="Group-22" transform="translate(713.000000, 437.000000)">
                        <g id="satellite-dish" transform="translate(27.000000, 0.000000)" fill="#FF6500" fill-rule="nonzero">
                            <path d="M53.6158984,17.8777539 C54.122168,15.2310156 53.2880469,12.5145508 51.3847852,10.6114258 C49.4815234,8.70816406 46.765332,7.87417969 44.118457,8.3803125 L44.8890039,12.4088672 C46.199043,12.1579883 47.5433984,12.5704688 48.4845703,13.5117773 C49.4257422,14.4528125 49.8379492,15.7970313 49.5873437,17.1073438 L53.6158984,17.8777539 Z" id="Path"></path>
                            <path d="M57.1701758,4.82603516 C53.305,0.960722656 47.7879883,-0.733085937 42.4111133,0.295039063 L43.1816602,4.32359375 C47.2214258,3.55072266 51.366875,4.82289062 54.2700977,7.72625 C57.1733203,10.6293359 58.4453516,14.7746484 57.6727539,18.8145508 L61.7013086,19.5850977 C62.7292969,14.2087695 61.0354883,8.69134766 57.1701758,4.82603516 Z" id="Path"></path>
                            <path d="M46.7319727,18.1644531 L43.8317578,15.2642383 L39.2593359,19.8366602 L24.9241016,5.50142578 L23.4740625,6.95160156 C17.0609961,13.364668 15.3753906,22.7400195 18.4127344,30.7129102 C16.3417187,32.4556641 15.0223828,35.0645312 15.0223828,37.9767773 C15.0223828,39.3963281 15.337793,40.7428711 15.8986133,41.9533789 L10.5678125,56.4988867 L8.76408203,56.4988867 C3.97277344,56.4988867 0.0747851562,60.396875 0.0747851562,65.1881836 L0.0747851562,70.0005469 L48.5441797,70.0005469 L48.5441797,65.1881836 C48.5441797,60.396875 44.6461914,56.4988867 39.8548828,56.4988867 L38.0511523,56.4988867 L33.5942578,44.3378906 C35.4215039,44.8139453 37.3213477,45.0607227 39.2593359,45.0607227 C45.2223242,45.0607227 50.8283398,42.7386914 55.0446094,38.5221484 L56.4947852,37.0721094 L42.1595508,22.736875 L46.7319727,18.1644531 Z M24.5154492,43.368418 C21.5425,43.368418 19.1238086,40.9497266 19.1238086,37.9767773 C19.1238086,35.0038281 21.5425,32.5852734 24.5154492,32.5852734 C27.4883984,32.5852734 29.9069531,35.0038281 29.9069531,37.9767773 C29.9069531,40.9497266 27.4883984,43.368418 24.5154492,43.368418 Z M39.8547461,60.6004492 C42.3844531,60.6004492 44.4424805,62.6584766 44.4424805,65.1881836 L44.4424805,65.8989844 L4.17634766,65.8989844 L4.17634766,65.1881836 C4.17634766,62.6584766 6.234375,60.6004492 8.76408203,60.6004492 L39.8547461,60.6004492 Z M14.9361133,56.4988867 L18.9169531,45.6368555 C20.4878516,46.7880273 22.4231055,47.4698437 24.5154492,47.4698437 C26.464375,47.4698437 28.2774023,46.8788086 29.7863672,45.8676367 L33.6827148,56.4988867 L14.9361133,56.4988867 Z M39.2591992,40.9591602 C37.3660547,40.9591602 35.5170703,40.6720508 33.7617383,40.1188867 C33.9212891,39.4299609 34.0085156,38.7135547 34.0085156,37.9767773 C34.0085156,32.7422266 29.75,28.4837109 24.5154492,28.4837109 C23.6739453,28.4837109 22.8581445,28.5951367 22.0807617,28.801582 C20.0448828,23.0064844 21.0175,16.3812305 25.0051758,11.3829297 L50.6141016,36.9919922 C47.3988867,39.5633984 43.4365039,40.9591602 39.2591992,40.9591602 Z" id="Shape"></path>
                            <polygon id="Path" points="22.464668 35.9259961 26.5662305 35.9259961 26.5662305 40.0275586 22.464668 40.0275586"></polygon>
                        </g>
                        <g id="on-air" transform="translate(10.000000, 78.000000)" fill="#FF6500" fill-rule="nonzero">
                            <path d="M85.1811462,6.22835088 C85.1811462,2.65483041 83.1674152,0.0609824561 80.3930058,0.0609824561 L73.0482417,0.0609824561 C71.9201559,0.0609824561 70.7147212,0.688475634 70.7147212,2.45203119 L70.7352671,17.6148382 C70.7364756,18.61554 71.5479142,19.4252865 72.5481326,19.4252865 L72.5505497,19.4252865 C73.5517349,19.4238363 74.3622066,18.6111891 74.3609981,17.6100039 L74.3539883,12.3952359 L78.1813099,12.3952359 L80.9170448,18.3672982 C81.2220897,19.0329825 81.8790721,19.42577 82.566269,19.42577 C82.8188616,19.42577 83.0755634,19.3725926 83.3201793,19.2604366 C84.2304795,18.8434776 84.6302768,17.7676023 84.2133177,16.8575439 L82.0197505,12.0691618 C83.920117,11.2678752 85.1811462,9.05545419 85.1811462,6.22835088 L85.1811462,6.22835088 Z M74.3489123,8.76974659 L74.3419025,3.68695517 L80.3930058,3.68695517 C81.0881793,3.68695517 81.5554152,5.00116179 81.5554152,6.22859259 C81.5554152,7.01851852 81.3758207,7.78548148 81.0751267,8.28099805 C80.7780585,8.76974659 80.5179727,8.76974659 80.3930058,8.76974659 L74.3489123,8.76974659 Z" id="Shape"></path>
                            <path d="M5.12138012,0.623212476 C2.73903314,0.623212476 0.800717349,2.56152827 0.800717349,4.94363353 L0.800717349,14.9402573 C0.800717349,17.3226043 2.73903314,19.2609201 5.12138012,19.2609201 L11.0753138,19.2609201 C13.4576608,19.2609201 15.3959766,17.3226043 15.3959766,14.9402573 L15.3959766,4.94363353 C15.3959766,2.56152827 13.4576608,0.623212476 11.0753138,0.623212476 L5.12138012,0.623212476 Z M11.7702456,4.94363353 L11.7702456,14.9402573 C11.7702456,15.3233762 11.4584327,15.6351891 11.0753138,15.6351891 L5.12138012,15.6351891 C4.73826121,15.6351891 4.42644834,15.3233762 4.42644834,14.9402573 L4.42644834,4.94363353 C4.42644834,4.56704094 4.74454581,4.24894347 5.12138012,4.24894347 L11.0753138,4.24894347 C11.4521481,4.24894347 11.7702456,4.56704094 11.7702456,4.94363353 L11.7702456,4.94363353 Z" id="Shape"></path>
                            <path d="M32.0620117,0.623212476 C31.0608265,0.623212476 30.2491462,1.43465107 30.2491462,2.43607797 L30.2491462,11.8581442 L22.8103548,1.38606628 C22.8004444,1.3722885 22.791501,1.36237817 22.7823158,1.35077583 C22.4516491,0.909645224 21.9261598,0.62297076 21.3325068,0.62297076 C20.3313216,0.62297076 19.5196413,1.43440936 19.5196413,2.43583626 L19.5196413,17.4478129 C19.5196413,18.4492398 20.3313216,19.2606784 21.3325068,19.2606784 C22.333692,19.2606784 23.1453723,18.4492398 23.1453723,17.4478129 L23.1453723,8.11832359 L30.2895127,18.1756179 C30.3787057,18.3010682 30.4809513,18.4115322 30.5928655,18.5070097 C30.9220819,18.962885 31.4567563,19.2606784 32.0620117,19.2606784 C33.0631969,19.2606784 33.8748772,18.4492398 33.8748772,17.4478129 L33.8748772,2.43583626 C33.8748772,1.43465107 33.0631969,0.623212476 32.0620117,0.623212476 L32.0620117,0.623212476 Z" id="Path"></path>
                            <path d="M56.0150409,19.2609201 C57.0162261,19.2609201 57.8279064,18.4494815 57.8279064,17.4480546 L57.8279064,3.93640546 C57.8279064,2.37226511 56.4431189,0.623212476 54.5898869,0.623212476 L48.0671969,0.623212476 C46.1588538,0.623212476 44.8291774,2.36936452 44.8291774,3.9402729 L44.8564912,17.451922 C44.858425,18.4518986 45.6696218,19.2609201 46.6693567,19.2609201 L46.6732242,19.2609201 C47.6744094,19.2587446 48.4843977,18.445614 48.4824639,17.4441871 L48.4708616,11.7583158 L54.2021754,11.7583158 L54.2021754,17.4480546 C54.2021754,18.4494815 55.0138558,19.2609201 56.0150409,19.2609201 L56.0150409,19.2609201 Z M48.4633684,8.1325848 L48.4553918,4.24894347 L54.2019337,4.24894347 L54.2019337,8.1325848 L48.4633684,8.1325848 Z" id="Shape"></path>
                            <path d="M65.9265809,17.4480546 L65.9265809,2.43607797 C65.9265809,1.43465107 65.1149006,0.623212476 64.1137154,0.623212476 C63.1125302,0.623212476 62.3008499,1.43465107 62.3008499,2.43607797 L62.3008499,17.4480546 C62.3008499,18.4494815 63.1125302,19.2609201 64.1137154,19.2609201 C65.1149006,19.2609201 65.9265809,18.4494815 65.9265809,17.4480546 Z" id="Path"></path>
                        </g>
                        <path d="M8,68 L11.5618428,68 L11.5618428,68 L98,68 C102.418278,68 106,71.581722 106,76 L106,99 C106,103.418278 102.418278,107 98,107 L84.0539241,107 L84.0539241,107 L8,107 C3.581722,107 4.46530217e-15,103.418278 0,99 L0,92.01084 L0,92.01084 L0,81.8291141" id="Rectangle" stroke="#FF6500" stroke-width="4" stroke-linecap="round"></path>
                    </g>
                </g>
            </g>
        </g>
    </g>
</svg>