<svg xmlns="http://www.w3.org/2000/svg" viewBox="0 0 500 500"><g id="background-complete--inject-2"><rect y="382.4" width="500" height="0.25" style="fill:#ebebeb"></rect><rect x="333.33" y="389.21" width="73.79" height="0.25" style="fill:#ebebeb"></rect><rect x="103.62" y="390.89" width="8.69" height="0.25" style="fill:#ebebeb"></rect><rect x="408.12" y="398.49" width="19.19" height="0.25" style="fill:#ebebeb"></rect><rect x="200" y="395.11" width="48.67" height="0.25" style="fill:#ebebeb"></rect><rect x="166.72" y="395.11" width="24.38" height="0.25" style="fill:#ebebeb"></rect><rect x="52.46" y="390.89" width="33.15" height="0.25" style="fill:#ebebeb"></rect><path d="M237,337.8H43.91a5.71,5.71,0,0,1-5.7-5.71V60.66A5.71,5.71,0,0,1,43.91,55H237a5.71,5.71,0,0,1,5.71,5.71V332.09A5.71,5.71,0,0,1,237,337.8ZM43.91,55.2a5.46,5.46,0,0,0-5.45,5.46V332.09a5.46,5.46,0,0,0,5.45,5.46H237a5.47,5.47,0,0,0,5.46-5.46V60.66A5.47,5.47,0,0,0,237,55.2Z" style="fill:#ebebeb"></path><path d="M453.31,337.8H260.21a5.72,5.72,0,0,1-5.71-5.71V60.66A5.72,5.72,0,0,1,260.21,55h193.1A5.71,5.71,0,0,1,459,60.66V332.09A5.71,5.71,0,0,1,453.31,337.8ZM260.21,55.2a5.47,5.47,0,0,0-5.46,5.46V332.09a5.47,5.47,0,0,0,5.46,5.46h193.1a5.47,5.47,0,0,0,5.46-5.46V60.66a5.47,5.47,0,0,0-5.46-5.46Z" style="fill:#ebebeb"></path><rect x="173.99" y="379.52" width="154.76" height="2.87" style="fill:#f0f0f0"></rect><path d="M388.07,263.25s12.81,18,31.59,2.63c17.44-14.25.3-48.73.3-48.73s20.27,6.37,23.54-20.36S418,176.85,418,176.85c10.25-20.38-1.5-21-10.27-19.2,2.66-5,3.5-11.14-2.83-16.31-14.49-11.83-24.37,2-24.37,2s-7.54-25.92-25.38-10.79V277.25C378.3,296.86,388.07,263.25,388.07,263.25Z" style="fill:#f5f5f5"></path><rect x="66.33" y="121.72" width="295.5" height="260.68" style="fill:#fafafa"></rect><polygon points="340.57 81.22 87.59 81.22 66.33 121.72 361.83 121.72 340.57 81.22" style="fill:#f0f0f0"></polygon><polygon points="317.45 355.64 317.45 328.87 300.09 328.87 300.09 302.11 173.7 302.11 173.7 328.87 191.06 328.87 191.06 355.64 208.43 355.64 208.43 382.4 334.81 382.4 334.81 355.64 317.45 355.64" style="fill:#f5f5f5"></polygon><polygon points="173.7 302.11 173.7 328.87 191.06 328.87 191.06 355.64 208.43 355.64 208.43 382.4 66.33 382.4 66.33 302.11 173.7 302.11" style="fill:#ebebeb"></polygon><rect x="173.7" y="326" width="126.39" height="2.87" style="fill:#f0f0f0"></rect><rect x="191.06" y="352.76" width="126.39" height="2.87" style="fill:#f0f0f0"></rect><rect x="81.89" y="145.33" width="83.11" height="156.78" style="fill:#f0f0f0"></rect><rect x="80.33" y="145.33" width="1.56" height="156.78" transform="translate(162.22 447.44) rotate(180)" style="fill:#e6e6e6"></rect><circle cx="152.58" cy="223.72" r="4.61" style="fill:#fafafa"></circle><rect x="193.85" y="145.33" width="120.81" height="120.56" style="fill:#f5f5f5"></rect><rect x="199.64" y="150.24" width="109.24" height="110.73" transform="translate(459.87 -48.65) rotate(90)" style="fill:#fff"></rect><path d="M198.89,151V260.23h3.26s14.94-35.75,19.1-109.24Z" style="fill:#fafafa"></path><path d="M309.63,151V260.23h-3.27S291.43,224.48,287.27,151Z" style="fill:#fafafa"></path><rect x="195.94" y="201.81" width="116.64" height="7.6" style="fill:#f5f5f5"></rect><rect x="195.94" y="201.81" width="116.64" height="7.6" transform="translate(459.87 -48.65) rotate(90)" style="fill:#f5f5f5"></rect></g><g id="Shadow--inject-2"><ellipse id="path--inject-2" cx="250" cy="416.24" rx="193.89" ry="11.32" style="fill:#f5f5f5"></ellipse></g><g id="Mailbox--inject-2"><path d="M153.09,356.85H184.6a4.48,4.48,0,0,1,4.48,4.48v54.91a0,0,0,0,1,0,0H148.61a0,0,0,0,1,0,0V361.32A4.48,4.48,0,0,1,153.09,356.85Z" transform="translate(337.68 773.09) rotate(180)" style="fill:#FF6500"></path><polygon points="189.07 356.85 148.61 356.85 148.61 380.68 189.07 371.91 189.07 356.85" style="opacity:0.2"></polygon><path d="M206.48,284.81a57,57,0,1,1,114,0v72h-114Z" style="fill:#FF6500"></path><path d="M206.48,284.81a57,57,0,1,1,114,0v72h-114Z" style="opacity:0.30000000000000004"></path><path d="M72.29,284.8v64.95a7.1,7.1,0,0,0,7.11,7.1H206.48V284.8a57,57,0,0,1,57-57H129.29a57,57,0,0,0-57,57Z" style="fill:#FF6500"></path><rect x="72.29" y="315.6" width="134.19" height="20" transform="translate(278.78 651.19) rotate(180)" style="opacity:0.2"></rect><rect x="72.29" y="289.37" width="134.19" height="20" transform="translate(278.78 598.75) rotate(180)" style="opacity:0.2"></rect><rect x="198.56" y="224.3" width="16.33" height="1" style="fill:#FF6500"></rect><rect x="181.22" y="224.3" width="8.78" height="1" style="fill:#FF6500"></rect><path d="M137.92,303.54v-81a2.22,2.22,0,0,0-2.59-2.19L107.06,225v11.73h21.61v66.63a10.61,10.61,0,1,0,9.25.19Z" style="fill:#263238"></path><path d="M214.59,365H360.83a4.05,4.05,0,0,0,4.06-4h0a4.06,4.06,0,0,0-4.06-4.06H206.48A8.11,8.11,0,0,0,214.59,365Z" style="fill:#FF6500"></path><path d="M214.59,365h59.76a4.05,4.05,0,0,0,4.06-4h0a4.06,4.06,0,0,0-4.06-4.06H206.48A8.11,8.11,0,0,0,214.59,365Z" style="opacity:0.2"></path></g></svg>