<?xml version="1.0" encoding="UTF-8"?>
<svg width="120px" height="102px" viewBox="0 0 120 102" version="1.1" xmlns="http://www.w3.org/2000/svg" xmlns:xlink="http://www.w3.org/1999/xlink">
    <title>tv</title>
    <g id="Page-1" stroke="none" stroke-width="1" fill="none" fill-rule="evenodd">
        <g id="Home-slider-1-Copy-2" transform="translate(-340.000000, -1164.000000)" fill="#FF6500" fill-rule="nonzero">
            <g id="OVERVIEW/STEPS" transform="translate(157.000000, 721.000000)">
                <g id="Group-18" transform="translate(115.000000, 0.000000)">
                    <g id="tv" transform="translate(68.000000, 443.000000)">
                        <path d="M18.75,77 C11.8492127,76.9931336 6.25686641,71.4007873 6.25,64.5 L6.25,60.3335877 C6.25,53.4297484 11.8461609,47.8335877 18.75,47.8335877 C25.6538391,47.8335877 31.25,53.4297484 31.25,60.3335877 L31.25,64.5 C31.2431336,71.4007873 25.6507873,76.9931336 18.75,77 Z M18.75,52 C14.1479492,52 10.4164123,55.7307738 10.4164123,60.3335877 L10.4164123,64.5 C10.4164123,69.1020508 14.1479492,72.8335877 18.75,72.8335877 C23.3520508,72.8335877 27.0835877,69.1020508 27.0835877,64.5 L27.0835877,60.3335877 C27.0835877,55.7307738 23.3520508,52 18.75,52 L18.75,52 Z" id="Shape"></path>
                        <path d="M35.4164123,102 L2.0835877,102 C0.933075,102 0,101.066925 0,99.9164123 L0,91.5835877 C0,81.2282105 8.39462285,72.8335877 18.75,72.8335877 C29.1053771,72.8335877 37.5,81.2282105 37.5,91.5835877 L37.5,99.9164123 C37.5,101.066925 36.566925,102 35.4164123,102 Z M4.1664123,97.8335877 L33.3335877,97.8335877 L33.3335877,91.5835877 C33.3335877,83.5292359 26.8043518,77 18.75,77 C10.6956482,77 4.1664123,83.5292359 4.1664123,91.5835877 L4.1664123,97.8335877 Z" id="Shape"></path>
                        <path d="M101.25,77 C94.3492127,76.9931336 88.7568664,71.4007873 88.75,64.5 L88.75,60.3335877 C88.75,53.4297484 94.3461609,47.8335877 101.25,47.8335877 C108.153839,47.8335877 113.75,53.4297484 113.75,60.3335877 L113.75,64.5 C113.743134,71.4007873 108.150787,76.9931336 101.25,77 Z M101.25,52 C96.6479492,52 92.9164123,55.7307738 92.9164123,60.3335877 L92.9164123,64.5 C92.9164123,69.1020508 96.6479492,72.8335877 101.25,72.8335877 C105.852051,72.8335877 109.583588,69.1020508 109.583588,64.5 L109.583588,60.3335877 C109.583588,55.7307738 105.852051,52 101.25,52 L101.25,52 Z" id="Shape"></path>
                        <path d="M59.75,77 C52.8492127,76.9931336 47.2568664,71.4007873 47.25,64.5 L47.25,60.3335877 C47.25,53.4297484 52.8461609,47.8335877 59.75,47.8335877 C66.6538391,47.8335877 72.25,53.4297484 72.25,60.3335877 L72.25,64.5 C72.2431336,71.4007873 66.6507873,76.9931336 59.75,77 Z M59.75,52 C55.1479492,52 51.4164123,55.7307738 51.4164123,60.3335877 L51.4164123,64.5 C51.4164123,69.1020508 55.1479492,72.8335877 59.75,72.8335877 C64.3520508,72.8335877 68.0835877,69.1020508 68.0835877,64.5 L68.0835877,60.3335877 C68.0835877,55.7307738 64.3520508,52 59.75,52 L59.75,52 Z" id="Shape-Copy"></path>
                        <path d="M117.916412,102 L84.5835877,102 C83.433075,102 82.5,101.066925 82.5,99.9164123 L82.5,91.5835877 C82.5,81.2282105 90.8946229,72.8335877 101.25,72.8335877 C111.605377,72.8335877 120,81.2282105 120,91.5835877 L120,99.9164123 C120,101.066925 119.066925,102 117.916412,102 L117.916412,102 Z M86.6664123,97.8335877 L115.833588,97.8335877 L115.833588,91.5835877 C115.833588,83.5292359 109.304352,77 101.25,77 C93.1956482,77 86.6664123,83.5292359 86.6664123,91.5835877 L86.6664123,97.8335877 Z" id="Shape"></path>
                        <path d="M76.4164123,102 L43.0835877,102 C41.933075,102 41,101.066925 41,99.9164123 L41,91.5835877 C41,81.2282105 49.3946229,72.8335877 59.75,72.8335877 C70.1053771,72.8335877 78.5,81.2282105 78.5,91.5835877 L78.5,99.9164123 C78.5,101.066925 77.566925,102 76.4164123,102 L76.4164123,102 Z M45.1664123,97.8335877 L74.3335877,97.8335877 L74.3335877,91.5835877 C74.3335877,83.5292359 67.8043518,77 59.75,77 C51.6956482,77 45.1664123,83.5292359 45.1664123,91.5835877 L45.1664123,97.8335877 Z" id="Shape-Copy-2"></path>
                        <path d="M80.8335877,37.5 L39.1664123,37.5 C38.0158996,37.5 37.0835877,36.566925 37.0835877,35.4164123 L37.0835877,2.0835877 C37.0835877,0.933075 38.0158996,0 39.1664123,0 L80.8335877,0 C81.9841004,0 82.9164123,0.933075 82.9164123,2.0835877 L82.9164123,35.4164123 C82.9164123,36.566925 81.9841004,37.5 80.8335877,37.5 Z M41.25,33.3335877 L78.75,33.3335877 L78.75,4.1664123 L41.25,4.1664123 L41.25,33.3335877 Z" id="Shape"></path>
                        <polygon id="Path" points="51.6664123 41.6664123 68.3335877 41.6664123 68.3335877 45.8335877 51.6664123 45.8335877"></polygon>
                        <polygon id="Path" points="57.9164123 35.4164123 62.0835877 35.4164123 62.0835877 43.75 57.9164123 43.75"></polygon>
                        <path d="M39.1664123,25 L72.5003815,25 C73.6509045,25 74.5835877,25.9326832 74.5835877,27.0832062 C74.5835877,28.2337291 73.6509045,29.1664123 72.5003815,29.1664123 L39.1664123,29.1664123 L39.1664123,29.1664123 L39.1664123,25 Z" id="Path"></path>
                        <path d="M101.25,41.6664123 C100.099266,41.6664123 99.1664123,40.7335583 99.1664123,39.5828246 L99.1664123,20.8335877 L99.1664123,20.8335877 L80.8335877,20.8335877 L80.8335877,16.6664123 L101.25,16.6664123 C102.400513,16.6664123 103.333588,17.5994873 103.333588,18.75 L103.333588,39.5828246 C103.333588,40.7335583 102.400734,41.6664123 101.25,41.6664123 Z" id="Path"></path>
                        <path d="M18.75,41.6664123 C17.5992663,41.6664123 16.6664123,40.7335583 16.6664123,39.5828246 L16.6664123,18.75 L16.6664123,18.75 C16.6664123,17.5994873 17.5994873,16.6664123 18.75,16.6664123 L39.1664123,16.6664123 L39.1664123,20.8335877 L20.8335877,20.8335877 L20.8335877,39.5828246 C20.8335877,40.7335583 19.9007337,41.6664123 18.75,41.6664123 Z" id="Path"></path>
                    </g>
                </g>
            </g>
        </g>
    </g>
</svg>