<?xml version="1.0" encoding="UTF-8"?>
<svg width="37px" height="27px" viewBox="0 0 37 27" version="1.1" xmlns="http://www.w3.org/2000/svg" xmlns:xlink="http://www.w3.org/1999/xlink">
    <title>television</title>
    <g id="Page-1" stroke="none" stroke-width="1" fill="none" fill-rule="evenodd">
        <g id="Home-slider-1-Copy" transform="translate(-203.000000, -578.000000)" fill="#FFFFFF" fill-rule="nonzero">
            <g id="Group" transform="translate(160.000000, 542.000000)">
                <g id="television" transform="translate(43.000000, 36.000000)">
                    <path d="M33.5977011,0.630086313 L3.40229885,0.588162762 C1.53103448,0.588162762 0,2.0974106 0,3.94204686 L0,23.6461159 C0,25.4907522 1.53103448,27 3.40229885,27 L33.5977011,27 C35.4689655,27 37,25.4907522 37,23.6461159 L37,3.94204686 C37,2.13933416 35.4689655,0.630086313 33.5977011,0.630086313 Z M22.9655172,19.3279901 C22.9655172,20.7114673 21.8172414,21.8434032 20.4137931,21.8434032 L7.22988506,21.8434032 C5.82643678,21.8434032 4.67816092,20.7114673 4.67816092,19.3279901 L4.67816092,8.42786683 C4.67816092,7.04438964 5.82643678,5.91245376 7.22988506,5.91245376 L20.4137931,5.91245376 C21.8172414,5.91245376 22.9655172,7.04438964 22.9655172,8.42786683 L22.9655172,19.3279901 Z M29.3448276,20.837238 C27.6862069,20.837238 26.3678161,19.5376079 26.3678161,17.9025894 C26.3678161,16.2675709 27.6862069,14.9679408 29.3448276,14.9679408 C31.0034483,14.9679408 32.3218391,16.2675709 32.3218391,17.9025894 C32.3218391,19.5376079 31.0034483,20.837238 29.3448276,20.837238 Z M32.7471264,12.3267571 L25.9425287,12.3267571 L25.9425287,10.649815 L32.7471264,10.649815 L32.7471264,12.3267571 Z M32.7471264,8.13440197 L25.9425287,8.13440197 L25.9425287,6.45745993 L32.7471264,6.45745993 L32.7471264,8.13440197 Z" id="Shape"></path>
                </g>
            </g>
        </g>
    </g>
</svg>