<svg xmlns="http://www.w3.org/2000/svg" width="35" height="35" viewBox="0 0 35 35">
    <g fill="#FFF" fill-rule="nonzero">
        <path d="M28.712 16.125a1.232 1.232 0 0 0 0 2.462 1.232 1.232 0 0 0 0-2.462z"/>
        <path d="M21.245 9.97v-2.3l7.173-6.108L27.09 0l-6.532 5.561h-6.116L7.91 0 6.582 1.562l7.173 6.108v2.3H0V35h35V9.97H21.245zm1.929 20.927H3.69V14.074h19.483v16.823zm8.204 0h-5.332v-2.052h5.332v2.052zm0-3.739h-5.332v-2.05h5.332v2.05zm-2.666-6.519a3.285 3.285 0 0 1-3.281-3.283 3.285 3.285 0 0 1 3.28-3.282 3.286 3.286 0 0 1 3.282 3.282 3.286 3.286 0 0 1-3.281 3.283z"/>
        <path d="M5.742 16.125h15.381v12.72H5.743z"/>
    </g>
</svg>
