<?xml version="1.0" encoding="utf-8"?><svg xml:space="preserve" viewBox="0 0 100 100" y="0px" x="0px" xmlns:xlink="http://www.w3.org/1999/xlink" xmlns="http://www.w3.org/2000/svg" id="圖層_1" version="1.1" width="128px" height="128px" style="width:100%;height:100%;background-size:initial;background-repeat-y:initial;background-repeat-x:initial;background-position-y:initial;background-position-x:initial;background-origin:initial;background-image:initial;background-color:rgb(255, 255, 255);background-clip:initial;background-attachment:initial;animation-play-state:paused" ><g class="ldl-scale" style="transform-origin:50% 50%;transform:rotate(0deg) scale(0.8, 0.8);animation-play-state:paused" ><g style="animation-play-state:paused" ><path d="M21.7,69.5H7.5V20c0-2.1,1.7-3.7,3.7-3.7h10.4V69.5z" fill="#F2F2F3" style="fill:rgb(242, 242, 243);animation-play-state:paused" ></path>
<rect height="53.2" width="14.2" fill="#F5E169" y="16.3" x="21.7" style="fill:rgb(245, 225, 105);animation-play-state:paused" ></rect>
<rect height="53.2" width="14.2" fill="#A0C8D7" y="16.3" x="35.8" style="fill:rgb(160, 200, 215);animation-play-state:paused" ></rect>
<rect height="53.2" width="14.2" fill="#ACBD81" y="16.3" x="50" style="fill:rgb(172, 189, 129);animation-play-state:paused" ></rect>
<rect height="53.2" width="14.2" fill="#AFA6CD" y="16.3" x="64.2" style="fill:rgb(175, 166, 205);animation-play-state:paused" ></rect>
<path d="M92.5,69.5H78.3V16.3h10.4c2.1,0,3.7,1.7,3.7,3.7V69.5z" fill="#E15C64" style="fill:rgb(225, 92, 100);animation-play-state:paused" ></path></g>
<g style="animation-play-state:paused" ><path d="M24.5,69.5h-17V80c0,2.1,1.7,3.7,3.7,3.7h13.3V69.5z" fill="#333435" style="fill:rgb(51, 52, 53);animation-play-state:paused" ></path>
<rect height="14.2" width="17" fill="#D2D2D3" y="69.5" x="24.5" style="fill:rgb(210, 210, 211);animation-play-state:paused" ></rect>
<rect height="14.2" width="17" fill="#B2B3B4" y="69.5" x="41.5" style="fill:rgb(178, 179, 180);animation-play-state:paused" ></rect>
<rect height="14.2" width="17" fill="#666868" y="69.5" x="58.5" style="fill:rgb(102, 104, 104);animation-play-state:paused" ></rect>
<path d="M92.5,69.5h-17v14.2h13.3c2.1,0,3.7-1.7,3.7-3.7V69.5z" fill="#333435" style="fill:rgb(51, 52, 53);animation-play-state:paused" ></path></g>
<metadata xmlns:d="https://loading.io/stock/" style="animation-play-state:paused" ><d:name style="animation-play-state:paused" >test card</d:name>


<d:tags style="animation-play-state:paused" >no signal,test card,color,smpte,arib,pal,test pattern,color bars,closedown test,television,tv</d:tags>


<d:license style="animation-play-state:paused" >by</d:license>


<d:slug style="animation-play-state:paused" >j3sdt0</d:slug></metadata></g><!-- generated by https://loading.io/ --></svg>