<?xml version="1.0" encoding="UTF-8"?>
<svg width="26px" height="21px" viewBox="0 0 26 21" version="1.1" xmlns="http://www.w3.org/2000/svg" xmlns:xlink="http://www.w3.org/1999/xlink">
    <!-- Generator: Sketch 58 (84663) - https://sketch.com -->
    <title>twitter-black-shape (1)</title>
    <desc>Created with Sketch.</desc>
    <g id="Page-1" stroke="none" stroke-width="1" fill="none" fill-rule="evenodd">
        <g id="Home-Copy-2" transform="translate(-1169.000000, -4534.000000)" fill="#555555" fill-rule="nonzero">
            <g id="Group-8" transform="translate(1099.000000, 4533.000000)">
                <g id="twitter-black-shape-(1)" transform="translate(70.000000, 1.000000)">
                    <path d="M25.8745246,2.50490984 C24.8588361,2.94177869 23.842918,3.21460656 22.8276885,3.32419672 C23.9743689,2.63618852 24.7499918,1.66422131 25.1540984,0.408352459 C24.1051885,1.03072131 22.9859918,1.45651639 21.7957049,1.68596721 C20.7471967,0.57204918 19.4587377,0.0148606557 17.9294672,0.0148606557 C16.4662377,0.0148606557 15.2186311,0.530795082 14.1861885,1.56289344 C13.1543197,2.59493443 12.6383279,3.84254098 12.6383279,5.30588525 C12.6383279,5.69897541 12.6819344,6.10319672 12.769377,6.51814754 C10.6069508,6.40895902 8.57844262,5.86565574 6.6835082,4.8882377 C4.78868852,3.91070492 3.18058197,2.60836066 1.85918852,0.981204918 C1.37865574,1.80009016 1.13830328,2.69029508 1.13830328,3.65130328 C1.13830328,4.5577459 1.35122951,5.39877869 1.77736885,6.17417213 C2.20322131,6.94945082 2.77670492,7.57732787 3.49753279,8.05791803 C2.64554098,8.02509836 1.84834426,7.80115574 1.10582787,7.38614754 L1.10582787,7.45167213 C1.10582787,8.72951639 1.50718033,9.85140984 2.30977049,10.8182131 C3.11247541,11.7849016 4.12546721,12.3933852 5.34851639,12.6446967 C4.88978689,12.7646721 4.42554918,12.8247459 3.95603279,12.8247459 C3.65021311,12.8247459 3.31708197,12.7974918 2.9567541,12.7432705 C3.29527869,13.8023934 3.91781967,14.6730328 4.82414754,15.3559344 C5.73064754,16.0384918 6.7572377,16.3903279 7.90397541,16.4127049 C5.98195902,17.919541 3.79233607,18.672959 1.33510656,18.672959 C0.865418033,18.672959 0.439622951,18.6515574 0.0573196721,18.6076066 C2.51460656,20.1909836 5.22297541,20.9826721 8.18259836,20.9826721 C10.0610082,20.9826721 11.8247787,20.6854016 13.4733361,20.0900574 C15.1226967,19.4951148 16.5313607,18.6976885 17.7000164,17.6982377 C18.8683279,16.6990164 19.876041,15.549582 20.7222951,14.2500492 C21.5686066,12.9504016 22.1990656,11.5936066 22.614418,10.179377 C23.0292541,8.76486066 23.2368443,7.34816393 23.2368443,5.92819672 C23.2368443,5.62237705 23.2313361,5.39315574 23.220377,5.24018852 C24.2581557,4.487 25.1427377,3.57493443 25.8745246,2.50490984 Z" id="Path"></path>
                </g>
            </g>
        </g>
    </g>
</svg>