<?xml version="1.0" encoding="UTF-8"?>
<svg width="108px" height="106px" viewBox="0 0 108 106" version="1.1" xmlns="http://www.w3.org/2000/svg" xmlns:xlink="http://www.w3.org/1999/xlink">
    <title>video-player-movie-1 2</title>
    <g id="Page-1" stroke="none" stroke-width="1" fill="none" fill-rule="evenodd" stroke-linecap="round" stroke-linejoin="round">
        <g id="Home-slider-1-Copy-2" transform="translate(-665.000000, -1162.000000)" stroke="#FF6500">
            <g id="OVERVIEW/STEPS" transform="translate(157.000000, 721.000000)">
                <g id="Group-18" transform="translate(115.000000, 0.000000)">
                    <g id="video-player-movie-1-2" transform="translate(397.000000, 444.000000)">
                        <g id="video-player-movie-1">
                            <path d="M3.05862362,40.2718777 L100.764656,40.2718777 L100.764656,91.248938 C100.764656,95.9412468 96.960788,99.7451147 92.2684792,99.7451147 L11.5548003,99.7451147 C6.86249151,99.7451147 3.05862362,95.9412468 3.05862362,91.248938 L3.05862362,40.2718777 Z" id="Path" stroke-width="5"></path>
                            <path d="M40.9345794,54.7153781 C40.0750795,54.3395777 39.0839785,54.422883 38.2992694,54.9368846 C37.5145602,55.4508862 37.0422203,56.3261667 37.0433285,57.2642311 L37.0433285,82.7527613 C37.0422203,83.6908257 37.5145602,84.5661062 38.2992694,85.0801078 C39.0839785,85.5941094 40.0750795,85.6774147 40.9345794,85.3016143 L69.0824129,72.982158 C70.264039,72.4654532 71.027621,71.2981567 71.027621,70.0084962 C71.027621,68.7188357 70.264039,67.5515392 69.0824129,67.0348343 L40.9345794,54.7153781 Z" id="Path" stroke-width="5"></path>
                            <g id="Group-9" transform="translate(50.220704, 17.803033) rotate(-7.000000) translate(-50.220704, -17.803033) translate(1.220704, 6.803033)" stroke-width="4.5">
                                <path d="M8.49617672,-3.1044741e-13 L89.2098556,-3.1044741e-13 C93.9021644,-3.1044741e-13 97.7060323,3.80386789 97.7060323,8.49617672 L97.7060323,21.2404418 L6.17574527e-13,21.2404418 L6.17574527e-13,8.49617672 C6.17574527e-13,3.80386789 3.80386789,-3.1044741e-13 8.49617672,-3.1044741e-13 Z" id="Path"></path>
                                <line x1="16.9923534" y1="21.2404418" x2="38.2327952" y2="-3.1044741e-13" id="Path"></line>
                                <line x1="38.2327952" y1="21.2404418" x2="59.473237" y2="-3.1044741e-13" id="Path"></line>
                                <line x1="59.473237" y1="21.2404418" x2="80.7136788" y2="-3.1044741e-13" id="Path"></line>
                                <line x1="80.7136788" y1="21.2404418" x2="96.9541206" y2="5" id="Path"></line>
                                <line x1="-9.26361791e-13" y1="16.9923534" x2="16.9923534" y2="7.71968159e-13" id="Path"></line>
                            </g>
                        </g>
                    </g>
                </g>
            </g>
        </g>
    </g>
</svg>