<?xml version="1.0" standalone="no"?>
<!DOCTYPE svg PUBLIC "-//W3C//DTD SVG 1.1//EN" "http://www.w3.org/Graphics/SVG/1.1/DTD/svg11.dtd" >
<svg xmlns="http://www.w3.org/2000/svg" xmlns:xlink="http://www.w3.org/1999/xlink" version="1.1">
<metadata>
Created by FontForge 20170731 at Fri Jan  4 23:25:42 2013
 By Aleksey,,,
Copyright (c) 2012 by Rui Abreu, Portugal. All rights reserved.
</metadata>
<defs>
<font id="AzoSans-Black" horiz-adv-x="616" >
  <font-face 
    font-family="Azo Sans Bk"
    font-weight="900"
    font-stretch="normal"
    units-per-em="1000"
    panose-1="2 0 0 0 0 0 0 0 0 0"
    ascent="772"
    descent="-228"
    x-height="492"
    cap-height="724"
    bbox="-101 -272 1328 1028"
    underline-thickness="50"
    underline-position="-220"
    unicode-range="U+000D-FB02"
  />
<missing-glyph horiz-adv-x="644" 
d="M150 604l131 131l213 -212l-101 -101l101 -100l-101 -101l101 -100l-132 -132l-212 213l100 100l-100 101l100 100z" />
    <glyph glyph-name="fi" unicode="fi" horiz-adv-x="710" 
d="M81 0v336h-68v156h68v59q0 121 61 174q57 50 158 50q56 0 90 -12v-155q-42 8 -65 8q-26 0 -36 -14t-10 -43v-67h108v-156h-108v-336h-198zM454 656q0 43 30.5 73t73.5 30t73.5 -30t30.5 -73t-30.5 -73t-73.5 -30t-73.5 30t-30.5 73zM459 0v492h198v-492h-198z" />
    <glyph glyph-name="fl" unicode="fl" horiz-adv-x="710" 
d="M81 0v336h-68v156h68v59q0 121 61 174q57 50 158 50q56 0 90 -12v-155q-42 8 -65 8q-26 0 -36 -14t-10 -43v-67h108v-156h-108v-336h-198zM459 0v764h198v-764h-198z" />
    <glyph glyph-name=".notdef" horiz-adv-x="644" 
d="M150 604l131 131l213 -212l-101 -101l101 -100l-101 -101l101 -100l-132 -132l-212 213l100 100l-100 101l100 100z" />
    <glyph glyph-name=".null" horiz-adv-x="0" 
 />
    <glyph glyph-name=".null" horiz-adv-x="0" 
 />
    <glyph glyph-name="nonmarkingreturn" horiz-adv-x="333" 
 />
    <glyph glyph-name="CR" unicode="&#xd;" horiz-adv-x="366" 
 />
    <glyph glyph-name="space" unicode=" " horiz-adv-x="236" 
 />
    <glyph glyph-name="exclam" unicode="!" horiz-adv-x="286" 
d="M39 92q0 43 30.5 73t73.5 30t73.5 -30t30.5 -73t-30.5 -73t-73.5 -30t-73.5 30t-30.5 73zM74 254l-47 470h232l-47 -470h-138z" />
    <glyph glyph-name="quotedbl" unicode="&#x22;" horiz-adv-x="393" 
d="M40 452l-25 290h160l-25 -290h-110zM243 452l-25 290h160l-25 -290h-110z" />
    <glyph glyph-name="numbersign" unicode="#" horiz-adv-x="647" 
d="M47 0l56 194h-96l33 115h96l31 106h-96l33 115h96l56 194h124l-56 -194h96l56 194h124l-56 -194h96l-33 -115h-96l-31 -106h96l-33 -115h-96l-56 -194h-124l56 194h-96l-56 -194h-124zM260 309h96l31 106h-96z" />
    <glyph glyph-name="dollar" unicode="$" horiz-adv-x="615" 
d="M236 -76v128q-84 12 -149 42v177q57 -33 119 -51t101 -18q53 0 53 37q0 11 -5.5 18.5t-18.5 12.5t-26.5 8.5t-38.5 10t-45 12.5q-81 26 -122 68t-41 110q0 73 46.5 122.5t126.5 67.5v131h150v-129q83 -12 146 -42v-175q-55 32 -115.5 49.5t-99.5 17.5q-48 0 -48 -32
q0 -10 5 -16.5t17.5 -11.5t25.5 -8t37.5 -9.5t44.5 -12.5q82 -26 124 -69t42 -112q0 -76 -49 -127.5t-130 -67.5v-131h-150z" />
    <glyph glyph-name="percent" unicode="%" horiz-adv-x="942" 
d="M223 361q-87 0 -136.5 52t-49.5 135t49.5 135t136.5 52t136.5 -52t49.5 -135t-49.5 -135t-136.5 -52zM167 0l480 724h128l-480 -724h-128zM223 474q27 0 41.5 21t14.5 53t-14.5 53t-41.5 21t-41.5 -21t-14.5 -53t14.5 -53t41.5 -21zM533 176q0 83 49.5 135t136.5 52
t136.5 -52t49.5 -135t-49.5 -135t-136.5 -52t-136.5 52t-49.5 135zM663 176q0 -32 14.5 -53t41.5 -21t41.5 21t14.5 53t-14.5 53t-41.5 21t-41.5 -21t-14.5 -53z" />
    <glyph glyph-name="ampersand" unicode="&#x26;" horiz-adv-x="737" 
d="M546 434h182l-120 -271l159 -161l-1 -2h-242l-38 38q-74 -49 -190 -49q-73 0 -129.5 19.5t-89 52t-49 71t-16.5 79.5q0 119 123 184q-62 67 -62 147q0 81 66 137.5t170 56.5q103 0 169.5 -56.5t66.5 -137.5q0 -53 -31 -97.5t-76 -73.5l-21 -14l66 -67zM296 149
q40 0 62 19l-107 109q-39 -18 -39 -58q0 -27 20 -48.5t64 -21.5zM267 533q0 -21 26 -50l12 -13l15 12q31 25 31 51q0 18 -11.5 30.5t-30.5 12.5q-20 0 -31 -12t-11 -31z" />
    <glyph glyph-name="quotesingle" unicode="'" horiz-adv-x="190" 
d="M40 452l-25 290h160l-25 -290h-110z" />
    <glyph glyph-name="parenleft" unicode="(" horiz-adv-x="396" 
d="M65 265q0 293 158 478h174q-69 -87 -111 -210.5t-42 -267.5t42 -267.5t111 -210.5h-174q-158 185 -158 478z" />
    <glyph glyph-name="parenright" unicode=")" horiz-adv-x="396" 
d="M-1 -213q69 87 111 210.5t42 267.5t-42 267.5t-111 210.5h174q158 -185 158 -478t-158 -478h-174z" />
    <glyph glyph-name="asterisk" unicode="*" horiz-adv-x="451" 
d="M189 590l-21 134h112l-21 -134h-70zM291 518l-22 65l123 60l35 -103zM157 518l-136 22l35 103l123 -60zM293 345l-63 121l58 40l96 -97zM155 345l-91 64l96 97l58 -40z" />
    <glyph glyph-name="plus" unicode="+" 
d="M233 116v179h-177v134h177v179h150v-179h177v-134h-177v-179h-150z" />
    <glyph glyph-name="comma" unicode="," horiz-adv-x="324" 
d="M35 -147l58 311h174l-97 -311h-135z" />
    <glyph glyph-name="hyphen" unicode="-" horiz-adv-x="335" 
d="M39 201v152h257v-152h-257z" />
    <glyph glyph-name="period" unicode="." horiz-adv-x="324" 
d="M54 96q0 44 31.5 75.5t76.5 31.5t76.5 -31.5t31.5 -75.5t-31.5 -75.5t-76.5 -31.5t-76.5 31.5t-31.5 75.5z" />
    <glyph glyph-name="slash" unicode="/" horiz-adv-x="486" 
d="M-2 -38l343 800h147l-343 -800h-147z" />
    <glyph glyph-name="zero" unicode="0" horiz-adv-x="648" 
d="M324 -11q-144 0 -217 101q-63 86 -63 272t63 272q73 101 217 101t217 -101q63 -86 63 -272t-63 -272q-73 -101 -217 -101zM324 168q38 0 55 31q19 33 19 163t-19 163q-17 31 -55 31t-55 -31q-19 -33 -19 -163t19 -163q17 -31 55 -31z" />
    <glyph glyph-name="one" unicode="1" horiz-adv-x="529" 
d="M194 0v476l-137 -46v188l343 117v-735h-206z" />
    <glyph glyph-name="two" unicode="2" horiz-adv-x="604" 
d="M8 2l208 295q57 80 78 117.5t21 69.5q0 34 -22 53t-63 19q-85 0 -172 -69v189q34 24 90 41.5t118 17.5q116 0 187.5 -64.5t71.5 -163.5q0 -54 -24 -108.5t-75 -130.5l-63 -92l1 -2h188v-174h-543z" />
    <glyph glyph-name="three" unicode="3" horiz-adv-x="588" 
d="M53 43v191q109 -71 195 -71q42 0 65.5 17t23.5 47q0 61 -104 61h-74v144h70q96 0 96 63q0 31 -22.5 48.5t-64.5 17.5q-73 0 -162 -54v184q77 44 187 44q115 0 193 -59t78 -147q0 -51 -27.5 -91t-72.5 -59v-2q54 -23 83 -67.5t29 -99.5q0 -97 -83.5 -159t-202.5 -62
q-121 0 -207 54z" />
    <glyph glyph-name="four" unicode="4" horiz-adv-x="675" 
d="M-10 142l-1 2l365 580h182v-436h95v-146h-95v-142h-206v142h-340zM289 344l-34 -54l1 -2h80v54q0 26 2 80l-2 1q-18 -33 -47 -79z" />
    <glyph glyph-name="five" unicode="5" horiz-adv-x="591" 
d="M43 19l13 184q95 -39 177 -39q50 0 81 15.5t31 45.5q0 23 -19 39.5t-50.5 23.5t-59.5 10t-58 3q-47 0 -94 -7l31 430h430l-13 -174h-226l-7 -105q49 -3 94.5 -16t87 -37.5t66.5 -67t25 -97.5q0 -108 -90.5 -173t-230.5 -65q-96 0 -188 30z" />
    <glyph glyph-name="six" unicode="6" horiz-adv-x="653" 
d="M283 724h239l-185 -261l1 -2q23 7 51 7q90 0 156 -65t66 -164q0 -108 -82 -179t-205 -71t-205 70t-82 193q0 64 22 120.5t70 126.5zM249 238q0 -34 22 -58.5t57 -24.5q34 0 57 23t23 57t-22.5 57.5t-57.5 23.5q-33 0 -56 -22t-23 -56z" />
    <glyph glyph-name="seven" unicode="7" horiz-adv-x="583" 
d="M73 0l217 550h-252v174h537l1 -2l-285 -722h-218z" />
    <glyph glyph-name="eight" unicode="8" horiz-adv-x="673" 
d="M336 443q28 0 48.5 19.5t20.5 46.5t-20 46t-49 19t-49 -19t-20 -46t20.5 -46.5t48.5 -19.5zM336 152q36 0 59.5 22t23.5 54q0 33 -24 56t-59 23t-59 -23t-24 -56q0 -32 23.5 -54t59.5 -22zM336 -11q-126 0 -210 62t-84 161q0 57 29.5 103t85.5 69v2q-43 18 -66.5 56.5
t-23.5 85.5q0 89 78.5 148t190.5 59t190.5 -59t78.5 -148q0 -47 -23.5 -85.5t-66.5 -56.5v-2q56 -23 85.5 -69t29.5 -103q0 -99 -84 -161t-210 -62z" />
    <glyph glyph-name="nine" unicode="9" horiz-adv-x="642" 
d="M377 0h-239l158 259l-2 1q-18 -4 -36 -4q-88 0 -157.5 62t-69.5 164q0 109 82 180.5t205 71.5q120 0 203.5 -68.5t83.5 -187.5q0 -102 -87 -246zM313 410q33 0 56 22t23 55q0 34 -22 58.5t-56 24.5t-57.5 -23.5t-23.5 -57.5q0 -32 22.5 -55.5t57.5 -23.5z" />
    <glyph glyph-name="colon" unicode=":" horiz-adv-x="324" 
d="M162 297q-43 0 -73.5 30t-30.5 73t30.5 73t73.5 30t73.5 -30t30.5 -73t-30.5 -73t-73.5 -30zM58 92q0 43 30.5 73t73.5 30t73.5 -30t30.5 -73t-30.5 -73t-73.5 -30t-73.5 30t-30.5 73z" />
    <glyph glyph-name="semicolon" unicode=";" horiz-adv-x="324" 
d="M35 -147l58 311h174l-97 -311h-135zM162 297q-43 0 -73.5 30t-30.5 73t30.5 73t73.5 30t73.5 -30t30.5 -73t-30.5 -73t-73.5 -30z" />
    <glyph glyph-name="less" unicode="&#x3c;" horiz-adv-x="746" 
d="M78 313v98l590 209v-141l-329 -116v-2l329 -116v-141z" />
    <glyph glyph-name="equal" unicode="=" 
d="M56 409v134h504v-134h-504zM56 181v134h504v-134h-504z" />
    <glyph glyph-name="greater" unicode="&#x3e;" horiz-adv-x="746" 
d="M78 104v141l329 116v2l-329 116v141l590 -209v-98z" />
    <glyph glyph-name="question" unicode="?" horiz-adv-x="494" 
d="M107 236l-21 175q180 0 180 87q0 32 -22 53t-63 21q-54 0 -120 -44l-20 166q72 41 168 41q107 0 183.5 -61.5t76.5 -157.5q0 -80 -53.5 -138.5t-130.5 -73.5l-3 -68h-175zM106 92q0 43 30.5 73t73.5 30t73.5 -30t30.5 -73t-30.5 -73t-73.5 -30t-73.5 30t-30.5 73z" />
    <glyph glyph-name="at" unicode="@" horiz-adv-x="809" 
d="M23 245q0 161 108 267.5t272 106.5q165 0 274 -106t109 -259q0 -98 -47.5 -149t-126.5 -51q-84 0 -125 49h-2q-53 -50 -121 -50q-75 0 -119 48.5t-44 125.5q0 86 53 149t141 63q52 0 90 -24l105 14l-18 -202q-1 -13 -1 -17q0 -30 14 -52.5t44 -22.5q32 0 52.5 28t20.5 88
q0 75 -33.5 140.5t-102.5 108.5t-160 43q-136 0 -217.5 -87.5t-81.5 -210.5q0 -121 80 -208.5t215 -87.5q111 0 202 67l42 -67q-99 -76 -240 -76q-166 0 -274.5 105.5t-108.5 266.5zM386 152q40 0 63 32q-3 22 -1 49l8 88q-24 18 -52 18q-37 0 -56.5 -34t-19.5 -77
q0 -76 58 -76z" />
    <glyph glyph-name="A" unicode="A" horiz-adv-x="793" 
d="M2 0l293 724h203l293 -724h-224l-51 148h-248l-53 -148h-213zM395 504h-2q-20 -67 -45 -135l-25 -69h140l-24 69q-19 56 -44 135z" />
    <glyph glyph-name="B" unicode="B" horiz-adv-x="651" 
d="M57 0v724h224q163 0 236 -41q87 -49 87 -141q0 -97 -110 -139v-2q140 -47 140 -178q0 -130 -126 -186q-81 -37 -216 -37h-235zM263 435h44q91 0 91 63q0 36 -30 51q-21 11 -81 11h-24v-125zM263 164h30q80 0 106 14q29 16 29 55q0 70 -100 70h-65v-139z" />
    <glyph glyph-name="C" unicode="C" horiz-adv-x="682" 
d="M32 361q0 161 114.5 267.5t291.5 106.5q109 0 200 -41v-202q-96 60 -196 60q-91 0 -147.5 -53t-56.5 -136q0 -82 56 -136.5t152 -54.5q101 0 202 63v-203q-92 -43 -210 -43q-180 0 -293 106t-113 266z" />
    <glyph glyph-name="D" unicode="D" horiz-adv-x="758" 
d="M57 0v724h208q230 0 340 -83q124 -93 124 -280q0 -167 -103 -261q-111 -100 -357 -100h-212zM263 174h8q162 0 215 63q37 45 37 124q0 101 -62 148q-55 41 -191 41h-7v-376z" />
    <glyph glyph-name="E" unicode="E" horiz-adv-x="576" 
d="M57 0v724h472v-174h-266v-92h225v-164h-225v-120h278v-174h-484z" />
    <glyph glyph-name="F" unicode="F" horiz-adv-x="580" 
d="M57 0v724h485v-174h-279v-106h235v-164h-235v-280h-206z" />
    <glyph glyph-name="G" unicode="G" horiz-adv-x="737" 
d="M32 358q0 162 115 269.5t291 107.5q121 0 223 -51v-199q-110 67 -215 67q-95 0 -151.5 -55t-56.5 -139q0 -83 55.5 -139t148.5 -56q26 0 44 5v77h-99v151h298v-355q-109 -52 -243 -52q-182 0 -296 104.5t-114 264.5z" />
    <glyph glyph-name="H" unicode="H" horiz-adv-x="784" 
d="M57 0v724h206v-261h258v261h206v-724h-206v289h-258v-289h-206z" />
    <glyph glyph-name="I" unicode="I" horiz-adv-x="320" 
d="M57 0v724h206v-724h-206z" />
    <glyph glyph-name="J" unicode="J" horiz-adv-x="425" 
d="M162 246v478h206v-476q0 -136 -59 -193q-66 -66 -186 -66q-57 0 -109 18v179q50 -18 88 -18q36 0 48 18t12 60z" />
    <glyph glyph-name="K" unicode="K" horiz-adv-x="717" 
d="M57 0v724h206v-314l2 -1l209 315h242l-239 -336l259 -388h-250l-221 355l-2 -1v-354h-206z" />
    <glyph glyph-name="L" unicode="L" horiz-adv-x="579" 
d="M57 0v724h206v-550h302v-174h-508z" />
    <glyph glyph-name="M" unicode="M" horiz-adv-x="881" 
d="M255 0h-198v724h198l187 -264l186 264h196v-724h-206v236q0 70 2 170l-2 1q-25 -39 -95 -139l-86 -122l-87 122q-48 67 -95 139l-2 -1q2 -100 2 -170v-236z" />
    <glyph glyph-name="N" unicode="N" horiz-adv-x="808" 
d="M558 0l-192 262q-56 76 -111 155l-2 -1q2 -122 2 -184v-232h-198v724h193l192 -262q56 -76 111 -155l2 1q-2 122 -2 184v232h198v-724h-193z" />
    <glyph glyph-name="O" unicode="O" horiz-adv-x="838" 
d="M32 362q0 157 112 265t275 108t275 -108t112 -265t-112 -265t-275 -108t-275 108t-112 265zM238 362q0 -79 52.5 -133.5t128.5 -54.5t128.5 54.5t52.5 133.5t-52.5 133.5t-128.5 54.5t-128.5 -54.5t-52.5 -133.5z" />
    <glyph glyph-name="P" unicode="P" horiz-adv-x="659" 
d="M57 0v724h235q142 0 218 -38q126 -62 126 -204q0 -128 -108 -191q-83 -49 -232 -49h-33v-242h-206zM263 398h37q68 0 93 13q37 19 37 67q0 51 -40 69q-27 13 -96 13h-31v-162z" />
    <glyph glyph-name="Q" unicode="Q" horiz-adv-x="838" 
d="M32 362q0 157 112 265t275 108t275 -108t112 -265q0 -101 -50.5 -186t-134.5 -134v-2q90 -57 194 -103l-184 -105q-118 59 -218 157q-161 2 -271 110t-110 263zM238 362q0 -79 52.5 -133.5t128.5 -54.5t128.5 54.5t52.5 133.5t-52.5 133.5t-128.5 54.5t-128.5 -54.5
t-52.5 -133.5z" />
    <glyph glyph-name="R" unicode="R" horiz-adv-x="666" 
d="M57 0v724h253q131 0 203 -36q117 -57 117 -189q0 -139 -133 -195l192 -304h-233l-161 275h-32v-275h-206zM263 416h51q57 0 81 15q29 17 29 57q0 43 -35 60q-26 12 -88 12h-38v-144z" />
    <glyph glyph-name="S" unicode="S" horiz-adv-x="601" 
d="M60 39v193q61 -35 128 -53.5t110 -18.5q72 0 72 52q0 15 -6 25.5t-21 18t-29.5 12t-43.5 13t-50 15.5q-91 31 -138.5 79t-47.5 130q0 105 74.5 167.5t196.5 62.5q130 0 236 -53v-190q-61 34 -126.5 53t-107.5 19q-64 0 -64 -44q0 -14 6 -23t20.5 -16t28.5 -11.5t41 -12.5
t48 -15q94 -33 143 -82.5t49 -135.5q0 -108 -78 -171.5t-205 -63.5q-130 0 -236 50z" />
    <glyph glyph-name="T" unicode="T" horiz-adv-x="678" 
d="M236 0v550h-230v174h666v-174h-230v-550h-206z" />
    <glyph glyph-name="U" unicode="U" horiz-adv-x="772" 
d="M108 107q-57 79 -57 236v381h206v-369q0 -100 28 -139q34 -48 105 -48q65 0 99 42q34 41 34 145v369h198v-381q0 -158 -61 -239q-41 -54 -112.5 -84.5t-161.5 -30.5q-91 0 -164 30.5t-114 87.5z" />
    <glyph glyph-name="V" unicode="V" horiz-adv-x="747" 
d="M270 0l-277 724h221l100 -283q37 -105 60 -176h2q30 88 63 178l103 281h212l-277 -724h-207z" />
    <glyph glyph-name="W" unicode="W" horiz-adv-x="1086" 
d="M223 0l-218 724h216l70 -257q26 -93 49 -187h2q23 87 53 188l75 256h151l73 -255q33 -117 52 -189h2q25 92 53 192l72 252h208l-221 -724h-218l-50 175q-34 119 -51 188h-2q-26 -99 -53 -191l-50 -172h-213z" />
    <glyph glyph-name="X" unicode="X" horiz-adv-x="728" 
d="M-27 0l261 389l-222 335h241l48 -78q36 -60 67 -113h2q30 52 64 110l49 81h232l-222 -335l262 -389h-247l-80 129q-34 55 -68 114h-2q-33 -57 -73 -122l-75 -121h-237z" />
    <glyph glyph-name="Y" unicode="Y" horiz-adv-x="737" 
d="M266 0v324l-281 400h240l66 -102q43 -65 80 -126h2q52 84 78 124l67 104h234l-280 -396v-328h-206z" />
    <glyph glyph-name="Z" unicode="Z" horiz-adv-x="673" 
d="M641 0h-618l-1 2l298 546l-1 2h-267v174h595l1 -2l-298 -546l1 -2h290v-174z" />
    <glyph glyph-name="bracketleft" unicode="[" horiz-adv-x="369" 
d="M244 -79h84v-134h-267v956h267v-134h-84v-688z" />
    <glyph glyph-name="backslash" unicode="\" horiz-adv-x="486" 
d="M341 -38l-343 800h147l343 -800h-147z" />
    <glyph glyph-name="bracketright" unicode="]" horiz-adv-x="369" 
d="M41 -79h84v688h-84v134h267v-956h-267v134z" />
    <glyph glyph-name="asciicircum" unicode="^" horiz-adv-x="553" 
d="M38 362l174 373h129l174 -373h-151l-87 183h-1l-87 -183h-151z" />
    <glyph glyph-name="underscore" unicode="_" horiz-adv-x="530" 
d="M0 -78h530v-76h-530v76z" />
    <glyph glyph-name="grave" unicode="`" horiz-adv-x="560" 
d="M264 563l-120 164h160l88 -164h-128z" />
    <glyph glyph-name="a" unicode="a" horiz-adv-x="554" 
d="M202 -11q-69 0 -116 31q-63 42 -63 118t58 118q50 37 138 37q37 0 75 -8v7q0 22 -14 36q-19 18 -66 18q-63 0 -143 -33v154q80 36 182 36q115 0 178 -48q61 -46 61 -141v-142q0 -32 25 -32q11 0 23 6v-136q-33 -19 -93 -19q-71 0 -115 33h-2q-57 -35 -128 -35zM259 120
q17 0 35 7v61q-14 3 -29 3q-50 0 -50 -36q0 -17 12.5 -26t31.5 -9z" />
    <glyph glyph-name="b" unicode="b" 
d="M53 -7v771h198v-292l2 -1q44 32 110 32q92 0 160 -67.5t68 -179.5q0 -118 -76.5 -192.5t-193.5 -74.5q-73 0 -127 28zM251 151q22 -9 46 -9q48 0 71 30.5t23 74.5t-22 71t-64 27q-26 0 -54 -12v-182z" />
    <glyph glyph-name="c" unicode="c" horiz-adv-x="507" 
d="M24 245q0 114 87.5 186t210.5 72q81 0 139 -29v-171q-68 39 -125 39q-50 0 -81 -27t-31 -69q0 -43 31.5 -69t82.5 -26q73 0 130 41v-171q-58 -32 -151 -32q-129 0 -211 72.5t-82 183.5z" />
    <glyph glyph-name="d" unicode="d" horiz-adv-x="617" 
d="M25 235q0 116 75 192t184 76q44 0 80 -14l2 1v274h198v-764h-194v25l-2 1q-49 -37 -118 -37q-92 0 -158.5 68t-66.5 178zM225 244q0 -45 22.5 -73t63.5 -28q29 0 55 13v180q-23 10 -49 10q-46 0 -69 -28.5t-23 -73.5z" />
    <glyph glyph-name="e" unicode="e" horiz-adv-x="567" 
d="M509 177v-150q-82 -38 -192 -38q-132 0 -212.5 68t-80.5 184q0 117 78.5 189.5t188.5 72.5q101 0 173.5 -64t72.5 -188q0 -29 -3 -50h-309q26 -70 119 -70q80 0 165 46zM290 363q-54 0 -68 -60h137q-12 60 -69 60z" />
    <glyph glyph-name="f" unicode="f" horiz-adv-x="400" 
d="M81 0v336h-68v156h68v59q0 121 61 174q57 50 158 50q56 0 90 -12v-155q-42 8 -65 8q-26 0 -36 -14t-10 -43v-67h108v-156h-108v-336h-198z" />
    <glyph glyph-name="g" unicode="g" horiz-adv-x="610" 
d="M98 -196v171q84 -49 164 -49q98 0 98 90v21l-2 2q-39 -30 -105 -30q-89 0 -157 65t-68 172q0 110 74.5 183.5t187.5 73.5q65 0 124 -28l144 25v-486q0 -117 -77 -181t-203 -64q-103 0 -180 35zM228 252q0 -43 22.5 -69t61.5 -26q23 0 48 11v169q-18 9 -44 9
q-46 0 -67 -27.5t-21 -66.5z" />
    <glyph glyph-name="h" unicode="h" 
d="M53 0v764h198v-308l2 -1q65 48 138 48q78 0 127 -47q48 -46 48 -147v-309h-198v279q0 33 -14 47t-38 14q-37 0 -65 -26v-314h-198z" />
    <glyph glyph-name="i" unicode="i" horiz-adv-x="304" 
d="M48 656q0 43 30.5 73t73.5 30t73.5 -30t30.5 -73t-30.5 -73t-73.5 -30t-73.5 30t-30.5 73zM53 0v492h198v-492h-198z" />
    <glyph glyph-name="j" unicode="j" horiz-adv-x="309" 
d="M53 656q0 43 30.5 73t73.5 30t73.5 -30t30.5 -73t-30.5 -73t-73.5 -30t-73.5 30t-30.5 73zM58 -9v501h198v-492q0 -71 -13 -111t-41 -66q-60 -54 -174 -54q-41 0 -74 6v158q25 -5 49 -5q32 0 43.5 13.5t11.5 49.5z" />
    <glyph glyph-name="k" unicode="k" horiz-adv-x="619" 
d="M53 0v764h198v-474l2 -1l138 203h218l-164 -220l171 -272h-226l-137 242l-2 -1v-241h-198z" />
    <glyph glyph-name="l" unicode="l" horiz-adv-x="304" 
d="M53 0v764h198v-764h-198z" />
    <glyph glyph-name="m" unicode="m" horiz-adv-x="921" 
d="M673 0v279q0 33 -14 47t-38 14q-32 0 -60 -23v-317h-198v279q0 33 -14 47t-38 14q-34 0 -60 -24v-316h-198v492h194v-36l2 -1q67 48 138 48q41 0 79.5 -16t60.5 -47q82 63 170 63q78 0 127 -47q47 -47 47 -147v-309h-198z" />
    <glyph glyph-name="n" unicode="n" horiz-adv-x="617" 
d="M53 0v492h194v-38l2 -1q67 50 143 50q77 0 126 -47q48 -46 48 -147v-309h-198v279q0 33 -14 47t-38 14q-37 0 -65 -26v-314h-198z" />
    <glyph glyph-name="o" unicode="o" 
d="M24 246q0 110 80.5 183.5t203.5 73.5t203.5 -73.5t80.5 -183.5t-80.5 -183.5t-203.5 -73.5t-203.5 73.5t-80.5 183.5zM220 246q0 -39 25 -65.5t63 -26.5t63 26.5t25 65.5t-25 65.5t-63 26.5t-63 -26.5t-25 -65.5z" />
    <glyph glyph-name="p" unicode="p" horiz-adv-x="615" 
d="M250 3v-223h-198v712h194v-21l2 -1q50 33 110 33q96 0 164 -70t68 -182q0 -116 -74 -189t-185 -73q-47 0 -79 15zM250 150q19 -8 45 -8q48 0 71.5 28t23.5 73t-23 73.5t-65 28.5q-26 0 -52 -14v-181z" />
    <glyph glyph-name="q" unicode="q" 
d="M25 237q0 115 75.5 190.5t195.5 75.5q64 0 124 -28l144 25v-720h-198v233l-2 1q-45 -25 -103 -25q-100 0 -168 69t-68 179zM225 241q0 -44 22 -71.5t66 -27.5q27 0 53 12v182q-27 9 -49 9q-46 0 -69 -29.5t-23 -74.5z" />
    <glyph glyph-name="r" unicode="r" horiz-adv-x="432" 
d="M52 0v492h194v-53l2 -1q54 63 131 63q18 0 36 -4v-182q-27 6 -54 6q-67 0 -111 -41v-280h-198z" />
    <glyph glyph-name="s" unicode="s" horiz-adv-x="504" 
d="M47 29v154q52 -28 108.5 -42t91.5 -14q36 0 36 20q0 8 -5 12.5t-16 8t-23 5.5t-33.5 6.5t-40.5 9.5q-138 39 -138 144q1 78 65 124t164 46q109 0 202 -40v-154q-52 27 -107 41.5t-88 14.5q-34 0 -34 -19q0 -11 10.5 -16t45 -11t60.5 -13q72 -21 106 -55t34 -89
q-1 -81 -66.5 -127t-168.5 -46q-112 0 -203 40z" />
    <glyph glyph-name="t" unicode="t" horiz-adv-x="432" 
d="M134 40q-48 48 -48 155v141h-73v156h73v123l198 34v-157h118v-156h-118v-127q0 -61 49 -61q27 0 69 16v-151q-52 -24 -123 -24q-94 0 -145 51z" />
    <glyph glyph-name="u" unicode="u" horiz-adv-x="615" 
d="M101 34q-51 47 -51 152v306h198v-280q0 -33 14 -47t37 -14q36 0 66 28v313h198v-492h-194v40l-2 1q-65 -52 -140 -52q-76 0 -126 45z" />
    <glyph glyph-name="v" unicode="v" horiz-adv-x="563" 
d="M192 0l-197 492h204l42 -130q27 -83 43 -138h2q23 68 48 137l48 131h187l-198 -492h-179z" />
    <glyph glyph-name="w" unicode="w" horiz-adv-x="820" 
d="M164 0l-166 492h201l33 -112q21 -70 40 -146h2q21 87 37 146l31 112h151l31 -112q21 -78 37 -146h2q12 48 40 146l33 112h186l-167 -492h-179l-22 79q-24 86 -41 157h-2q-13 -52 -41 -157l-22 -79h-184z" />
    <glyph glyph-name="x" unicode="x" horiz-adv-x="571" 
d="M369 0l-40 65q-29 49 -49 85h-2q-24 -43 -50 -86l-39 -64h-199l185 264l-164 228h206l32 -52q20 -33 41 -70h2q20 36 42 70l33 52h193l-165 -228l187 -264h-213z" />
    <glyph glyph-name="y" unicode="y" horiz-adv-x="565" 
d="M257 -220h-198l132 274l-196 438h204l87 -237h2l95 237h187z" />
    <glyph glyph-name="z" unicode="z" horiz-adv-x="524" 
d="M495 0h-481l-1 2l193 332l-1 2h-169v156h464l1 -2l-193 -332l1 -2h186v-156z" />
    <glyph glyph-name="braceleft" unicode="{" horiz-adv-x="373" 
d="M99 -57v192q0 35 -13 49t-44 14h-32v134h32q31 0 44 14t13 49v192q0 73 50.5 120t144.5 47q40 0 74 -6v-131q-15 3 -33 3q-53 0 -53 -56v-162q0 -60 -17 -91t-58 -45v-2q41 -14 58 -45t17 -91v-162q0 -56 53 -56q18 0 33 3v-131q-34 -6 -74 -6q-94 0 -144.5 47t-50.5 120
z" />
    <glyph glyph-name="bar" unicode="|" horiz-adv-x="327" 
d="M89 -220v1020h149v-1020h-149z" />
    <glyph glyph-name="braceright" unicode="}" horiz-adv-x="373" 
d="M91 -34v162q0 60 17 91t58 45v2q-41 14 -58 45t-17 91v162q0 56 -53 56q-18 0 -33 -3v131q34 6 74 6q94 0 144.5 -47t50.5 -120v-192q0 -35 13 -49t44 -14h32v-134h-32q-31 0 -44 -14t-13 -49v-192q0 -73 -50.5 -120t-144.5 -47q-40 0 -74 6v131q15 -3 33 -3q53 0 53 56z
" />
    <glyph glyph-name="asciitilde" unicode="~" horiz-adv-x="562" 
d="M384 262q-48 0 -112 30q-62 29 -92 29q-58 0 -99 -59l-2 1v164q39 36 99 36q48 0 112 -30q62 -29 92 -29q58 0 99 59l2 -1v-164q-39 -36 -99 -36z" />
    <glyph glyph-name="uni00A0" unicode="&#xa0;" horiz-adv-x="236" 
 />
    <glyph glyph-name="exclamdown" unicode="&#xa1;" horiz-adv-x="286" 
d="M212 238l47 -470h-232l47 470h138zM247 400q0 -43 -30.5 -73t-73.5 -30t-73.5 30t-30.5 73t30.5 73t73.5 30t73.5 -30t30.5 -73z" />
    <glyph glyph-name="cent" unicode="&#xa2;" horiz-adv-x="522" 
d="M206 -18v143q-81 28 -127 91t-46 145t47 144t126 92v145h150v-124q63 -3 113 -26v-171q-66 37 -122 37q-52 0 -83 -26.5t-31 -69.5t31.5 -69t83.5 -26q71 0 127 40v-171q-48 -25 -119 -30v-124h-150z" />
    <glyph glyph-name="sterling" unicode="&#xa3;" horiz-adv-x="615" 
d="M63 297v121h37q-15 48 -15 92q0 97 72 161t190 64q60 0 115.5 -17t89.5 -41v-190q-87 65 -172 65q-41 0 -65 -19.5t-24 -54.5q0 -23 10 -60h129v-121h-97q1 -7 1 -17q0 -31 -15.5 -60.5t-43.5 -43.5v-2h298v-174h-510v142q80 33 80 113q0 17 -5 42h-75z" />
    <glyph glyph-name="currency" unicode="&#xa4;" horiz-adv-x="592" 
d="M223 350q0 -36 19.5 -59.5t53.5 -23.5t53.5 23.5t19.5 59.5t-19.5 59.5t-53.5 23.5t-53.5 -23.5t-19.5 -59.5zM83 350q0 47 16 85l-82 82l112 112l82 -82q40 16 85 16t85 -16l82 82l112 -112l-82 -82q16 -38 16 -85t-16 -85l82 -82l-112 -112l-82 82q-40 -16 -85 -16
t-85 16l-82 -82l-112 112l82 82q-16 38 -16 85z" />
    <glyph glyph-name="yen" unicode="&#xa5;" horiz-adv-x="721" 
d="M98 380v122h58l-156 222h238l46 -71q43 -65 80 -126h2q52 84 78 124l47 73h232l-157 -222h60v-122h-146l-15 -21v-41h161v-122h-161v-196h-206v196h-161v122h161v37l-17 25h-144z" />
    <glyph glyph-name="brokenbar" unicode="&#xa6;" horiz-adv-x="327" 
d="M89 408v392h149v-392h-149zM89 172h149v-392h-149v392z" />
    <glyph glyph-name="section" unicode="&#xa7;" horiz-adv-x="607" 
d="M116 49q79 -53 150 -53q52 0 52 36q0 15 -12 27.5t-27 21t-46 25t-51 28.5q-57 34 -89 74t-32 95q0 82 82 132v2q-44 47 -44 112q0 82 69 134t170 52q77 0 141 -31v-164q-69 41 -131 41q-53 0 -53 -36q0 -11 6 -20.5t19.5 -19t25.5 -16.5t35.5 -19t37.5 -20
q65 -36 99 -74t34 -96q0 -47 -22.5 -82t-58.5 -54v-2q43 -45 43 -108q0 -85 -70.5 -137t-170.5 -52q-92 0 -157 38v166zM367 270q0 15 -15 29t-30 22t-48 24q-28 -13 -28 -36q0 -21 22.5 -38t68.5 -39q30 15 30 38z" />
    <glyph glyph-name="dieresis" unicode="&#xa8;" horiz-adv-x="560" 
d="M79 645q0 35 25 59.5t60 24.5t60 -24.5t25 -59.5t-25 -59.5t-60 -24.5t-60 24.5t-25 59.5zM311 645q0 35 25 59.5t60 24.5t60 -24.5t25 -59.5t-25 -59.5t-60 -24.5t-60 24.5t-25 59.5z" />
    <glyph glyph-name="copyright" unicode="&#xa9;" horiz-adv-x="800" 
d="M18 362q0 159 109.5 266t272.5 107t272.5 -107t109.5 -266t-109.5 -266t-272.5 -107t-272.5 107t-109.5 266zM95 362q0 -131 84.5 -217t220.5 -86t220.5 86t84.5 217t-84.5 217t-220.5 86t-220.5 -86t-84.5 -217zM201 366q0 89 65 147t163 58q60 0 110 -22v-121
q-55 32 -104 32q-46 0 -74 -26t-28 -67t28 -67t76 -26q57 0 107 34v-121q-48 -24 -117 -24q-100 0 -163 58t-63 145z" />
    <glyph glyph-name="ordfeminine" unicode="&#xaa;" horiz-adv-x="387" 
d="M158 401q-46 0 -78 21q-42 28 -42 77q0 47 39 75q34 26 88 26q25 0 47 -6v3q0 31 -50 31q-39 0 -91 -20v105q54 22 120 22q75 0 117 -32q40 -30 40 -92v-87q0 -20 16 -20q7 0 15 4v-92q-23 -14 -67 -14q-46 0 -74 21h-1q-35 -22 -79 -22zM193 489q14 0 19 3v36
q-5 1 -16 1q-28 0 -28 -20t25 -20z" />
    <glyph glyph-name="guillemotleft" unicode="&#xab;" horiz-adv-x="603" 
d="M168 27l-162 219l162 219h155l-161 -219l161 -219h-155zM419 27l-162 219l162 219h155l-161 -219l161 -219h-155z" />
    <glyph glyph-name="logicalnot" unicode="&#xac;" 
d="M56 295v134h504v-313h-150v179h-354z" />
    <glyph glyph-name="uni00AD" unicode="&#xad;" horiz-adv-x="335" 
d="M39 201v152h257v-152h-257z" />
    <glyph glyph-name="registered" unicode="&#xae;" horiz-adv-x="442" 
d="M221 363q-82 0 -136 53t-54 133t54 133t136 53q81 0 135.5 -53.5t54.5 -132.5t-54.5 -132.5t-135.5 -53.5zM221 404q65 0 105.5 41t40.5 104q0 62 -40.5 103.5t-105.5 41.5t-105.5 -41.5t-40.5 -103.5q0 -63 40.5 -104t105.5 -41zM250 448l-37 70h-9v-70h-61v202h85
q34 0 57 -17.5t23 -48.5q0 -38 -37 -56l49 -80h-70zM204 560h17q25 0 25 20q0 18 -25 18h-17v-38z" />
    <glyph glyph-name="macron" unicode="&#xaf;" horiz-adv-x="560" 
d="M117 585v120h326v-120h-326z" />
    <glyph glyph-name="degree" unicode="&#xb0;" horiz-adv-x="340" 
d="M170 441q-66 0 -109.5 42.5t-43.5 104.5t43.5 104.5t109.5 42.5t109.5 -42.5t43.5 -104.5t-43.5 -104.5t-109.5 -42.5zM170 513q32 0 53.5 22t21.5 53t-21.5 53t-53.5 22t-53.5 -22t-21.5 -53t21.5 -53t53.5 -22z" />
    <glyph glyph-name="plusminus" unicode="&#xb1;" 
d="M233 238v149h-156v134h156v149h150v-149h156v-134h-156v-149h-150zM77 54v134h462v-134h-462z" />
    <glyph glyph-name="two.superior" unicode="&#xb2;" horiz-adv-x="387" 
d="M1 422l-1 2l139 177q56 71 56 100q0 33 -42 33q-51 0 -115 -41v131q60 39 134 39q80 0 127 -40t47 -101q0 -65 -67 -147l-20 -24l1 -2h96v-127h-355z" />
    <glyph glyph-name="three.superior" unicode="&#xb3;" horiz-adv-x="382" 
d="M34 446v134q77 -40 127 -40q44 0 44 24q0 23 -56 23h-48v101h45q53 0 53 23q0 27 -44 27q-49 0 -107 -30v125q58 30 125 30q76 0 126 -36t50 -90q0 -58 -59 -85v-2q66 -32 66 -99q0 -60 -54.5 -98t-130.5 -38q-83 0 -137 31z" />
    <glyph glyph-name="acute" unicode="&#xb4;" horiz-adv-x="560" 
d="M416 727l-120 -164h-128l88 164h160z" />
    <glyph glyph-name="mu" unicode="&#xb5;" 
d="M256 -220h-205v712h198v-280q0 -33 14 -47t37 -14q36 0 66 28v313h198v-492h-194v40l-2 1q-62 -49 -134 -52z" />
    <glyph glyph-name="paragraph" unicode="&#xb6;" horiz-adv-x="644" 
d="M217 -220v582q-76 0 -130 53t-54 128t54 128t130 53h365v-944h-149v821h-67v-821h-149z" />
    <glyph glyph-name="periodcentered" unicode="&#xb7;" horiz-adv-x="324" 
d="M54 302q0 44 31.5 75.5t76.5 31.5t76.5 -31.5t31.5 -75.5t-31.5 -75.5t-76.5 -31.5t-76.5 31.5t-31.5 75.5z" />
    <glyph glyph-name="cedilla" unicode="&#xb8;" horiz-adv-x="560" 
d="M227 -89l43 134l62 -14l-21 -64q41 -8 64 -33t23 -60q0 -43 -32.5 -69t-85.5 -26q-47 0 -89 20l23 70q36 -19 65 -19q36 0 36 23q0 35 -88 38z" />
    <glyph glyph-name="one.superior" unicode="&#xb9;" horiz-adv-x="339" 
d="M117 422v265l-84 -27v129l231 74v-441h-147z" />
    <glyph glyph-name="ordmasculine" unicode="&#xba;" horiz-adv-x="404" 
d="M202 401q-81 0 -134 48t-53 119t53 119t134 48t134 -48t53 -119t-53 -119t-134 -48zM202 516q21 0 34 15t13 37t-13 37t-34 15t-34 -15t-13 -37t13 -37t34 -15z" />
    <glyph glyph-name="guillemotright" unicode="&#xbb;" horiz-adv-x="603" 
d="M29 27l161 219l-161 219h155l162 -219l-162 -219h-155zM280 27l161 219l-161 219h155l162 -219l-162 -219h-155z" />
    <glyph glyph-name="onequarter" unicode="&#xbc;" horiz-adv-x="1011" 
d="M766 0v77h-217l-1 2l229 355h136v-254h49v-103h-49v-77h-147zM736 196l-9 -14l1 -2h38v16q0 31 3 52l-2 1q-11 -22 -31 -53zM342 -13h-163l473 737h163zM135 294v265l-84 -27v129l231 74v-441h-147z" />
    <glyph glyph-name="onehalf" unicode="&#xbd;" horiz-adv-x="1028" 
d="M614 0l-1 2l139 177q56 71 56 100q0 33 -42 33q-51 0 -115 -41v131q60 39 134 39q80 0 127 -40t47 -101q0 -65 -67 -147l-20 -24l1 -2h96v-127h-355zM342 -13h-163l473 737h163zM135 294v265l-84 -27v129l231 74v-441h-147z" />
    <glyph glyph-name="threequarters" unicode="&#xbe;" horiz-adv-x="1058" 
d="M68 318v134q77 -40 127 -40q44 0 44 24q0 23 -56 23h-48v101h45q53 0 53 23q0 27 -44 27q-49 0 -107 -30v125q58 30 125 30q76 0 126 -36t50 -90q0 -58 -59 -85v-2q66 -32 66 -99q0 -60 -54.5 -98t-130.5 -38q-83 0 -137 31zM813 0v77h-217l-1 2l229 355h136v-254h49
v-103h-49v-77h-147zM783 196l-9 -14l1 -2h38v16q0 31 3 52l-2 1q-11 -22 -31 -53zM389 -13h-163l473 737h163z" />
    <glyph glyph-name="questiondown" unicode="&#xbf;" horiz-adv-x="494" 
d="M392 256l21 -175q-180 0 -180 -87q0 -32 22 -53t63 -21q54 0 120 44l20 -166q-72 -41 -168 -41q-107 0 -183.5 61.5t-76.5 157.5q0 80 53.5 138.5t130.5 73.5l3 68h175zM393 400q0 -43 -30.5 -73t-73.5 -30t-73.5 30t-30.5 73t30.5 73t73.5 30t73.5 -30t30.5 -73z" />
    <glyph glyph-name="Agrave" unicode="&#xc0;" horiz-adv-x="793" 
d="M2 0l293 724h203l293 -724h-224l-51 148h-248l-53 -148h-213zM395 504h-2q-20 -67 -45 -135l-25 -69h140l-24 69q-19 56 -44 135zM380 795l-120 164h160l88 -164h-128z" />
    <glyph glyph-name="Aacute" unicode="&#xc1;" horiz-adv-x="793" 
d="M2 0l293 724h203l293 -724h-224l-51 148h-248l-53 -148h-213zM395 504h-2q-20 -67 -45 -135l-25 -69h140l-24 69q-19 56 -44 135zM532 959l-120 -164h-128l88 164h160z" />
    <glyph glyph-name="Acircumflex" unicode="&#xc2;" horiz-adv-x="793" 
d="M2 0l293 724h203l293 -724h-224l-51 148h-248l-53 -148h-213zM395 504h-2q-20 -67 -45 -135l-25 -69h140l-24 69q-19 56 -44 135zM207 795l122 164h134l122 -164h-121l-68 83l-68 -83h-121z" />
    <glyph glyph-name="Atilde" unicode="&#xc3;" horiz-adv-x="793" 
d="M2 0l293 724h203l293 -724h-224l-51 148h-248l-53 -148h-213zM395 504h-2q-20 -67 -45 -135l-25 -69h140l-24 69q-19 56 -44 135zM389 819q-51 23 -74 23q-47 0 -89 -50l-2 1v124q36 43 90 43q36 0 89 -24q51 -23 74 -23q47 0 89 50l2 -1v-124q-36 -43 -90 -43
q-36 0 -89 24z" />
    <glyph glyph-name="Adieresis" unicode="&#xc4;" horiz-adv-x="793" 
d="M2 0l293 724h203l293 -724h-224l-51 148h-248l-53 -148h-213zM395 504h-2q-20 -67 -45 -135l-25 -69h140l-24 69q-19 56 -44 135zM195 877q0 35 25 59.5t60 24.5t60 -24.5t25 -59.5t-25 -59.5t-60 -24.5t-60 24.5t-25 59.5zM427 877q0 35 25 59.5t60 24.5t60 -24.5
t25 -59.5t-25 -59.5t-60 -24.5t-60 24.5t-25 59.5z" />
    <glyph glyph-name="Aring" unicode="&#xc5;" horiz-adv-x="793" 
d="M2 0l293 724h203l293 -724h-224l-51 148h-248l-53 -148h-213zM395 504h-2q-20 -67 -45 -135l-25 -69h140l-24 69q-19 56 -44 135zM396 766q-60 0 -99 37.5t-39 93.5t39 93.5t99 37.5t99 -37.5t39 -93.5t-39 -93.5t-99 -37.5zM396 840q24 0 39 16t15 41t-15 41t-39 16
t-39 -16t-15 -41t15 -41t39 -16z" />
    <glyph glyph-name="AE" unicode="&#xc6;" horiz-adv-x="985" 
d="M-16 0l386 724h568v-174h-258v-92h217v-164h-217v-120h270v-174h-476v148h-206l-75 -148h-209zM384 376l-39 -76h129v70q0 62 2 188l-2 1q-43 -91 -90 -183z" />
    <glyph glyph-name="Ccedilla" unicode="&#xc7;" horiz-adv-x="682" 
d="M331 -89l27 84q-148 23 -237 124.5t-89 241.5q0 161 114.5 267.5t291.5 106.5q109 0 200 -41v-202q-96 60 -196 60q-91 0 -147.5 -53t-56.5 -136q0 -82 56 -136.5t152 -54.5q101 0 202 63v-203q-92 -43 -226 -43l-7 -22q41 -8 64 -33t23 -60q0 -43 -32.5 -69t-85.5 -26
q-47 0 -89 20l23 70q36 -19 65 -19q36 0 36 23q0 35 -88 38z" />
    <glyph glyph-name="Egrave" unicode="&#xc8;" horiz-adv-x="576" 
d="M57 0v724h472v-174h-266v-92h225v-164h-225v-120h278v-174h-484zM286 795l-120 164h160l88 -164h-128z" />
    <glyph glyph-name="Eacute" unicode="&#xc9;" horiz-adv-x="576" 
d="M57 0v724h472v-174h-266v-92h225v-164h-225v-120h278v-174h-484zM438 959l-120 -164h-128l88 164h160z" />
    <glyph glyph-name="Ecircumflex" unicode="&#xca;" horiz-adv-x="576" 
d="M57 0v724h472v-174h-266v-92h225v-164h-225v-120h278v-174h-484zM113 795l122 164h134l122 -164h-121l-68 83l-68 -83h-121z" />
    <glyph glyph-name="Edieresis" unicode="&#xcb;" horiz-adv-x="576" 
d="M57 0v724h472v-174h-266v-92h225v-164h-225v-120h278v-174h-484zM101 877q0 35 25 59.5t60 24.5t60 -24.5t25 -59.5t-25 -59.5t-60 -24.5t-60 24.5t-25 59.5zM333 877q0 35 25 59.5t60 24.5t60 -24.5t25 -59.5t-25 -59.5t-60 -24.5t-60 24.5t-25 59.5z" />
    <glyph glyph-name="Igrave" unicode="&#xcc;" horiz-adv-x="320" 
d="M57 0v724h206v-724h-206zM144 795l-120 164h160l88 -164h-128z" />
    <glyph glyph-name="Iacute" unicode="&#xcd;" horiz-adv-x="320" 
d="M57 0v724h206v-724h-206zM296 959l-120 -164h-128l88 164h160z" />
    <glyph glyph-name="Icircumflex" unicode="&#xce;" horiz-adv-x="320" 
d="M57 0v724h206v-724h-206zM-29 795l122 164h134l122 -164h-121l-68 83l-68 -83h-121z" />
    <glyph glyph-name="Idieresis" unicode="&#xcf;" horiz-adv-x="320" 
d="M57 0v724h206v-724h-206zM-41 877q0 35 25 59.5t60 24.5t60 -24.5t25 -59.5t-25 -59.5t-60 -24.5t-60 24.5t-25 59.5zM191 877q0 35 25 59.5t60 24.5t60 -24.5t25 -59.5t-25 -59.5t-60 -24.5t-60 24.5t-25 59.5z" />
    <glyph glyph-name="Eth" unicode="&#xd0;" horiz-adv-x="777" 
d="M2 301v136h74v287h208q230 0 340 -83q124 -93 124 -280q0 -167 -103 -261q-111 -100 -357 -100h-212v301h-74zM282 174h8q162 0 215 63q37 45 37 124q0 101 -62 148q-55 41 -191 41h-7v-113h113v-136h-113v-127z" />
    <glyph glyph-name="Ntilde" unicode="&#xd1;" horiz-adv-x="808" 
d="M558 0l-192 262q-56 76 -111 155l-2 -1q2 -122 2 -184v-232h-198v724h193l192 -262q56 -76 111 -155l2 1q-2 122 -2 184v232h198v-724h-193zM397 819q-51 23 -74 23q-47 0 -89 -50l-2 1v124q36 43 90 43q36 0 89 -24q51 -23 74 -23q47 0 89 50l2 -1v-124q-36 -43 -90 -43
q-36 0 -89 24z" />
    <glyph glyph-name="Ograve" unicode="&#xd2;" horiz-adv-x="838" 
d="M32 362q0 157 112 265t275 108t275 -108t112 -265t-112 -265t-275 -108t-275 108t-112 265zM238 362q0 -79 52.5 -133.5t128.5 -54.5t128.5 54.5t52.5 133.5t-52.5 133.5t-128.5 54.5t-128.5 -54.5t-52.5 -133.5zM403 795l-120 164h160l88 -164h-128z" />
    <glyph glyph-name="Oacute" unicode="&#xd3;" horiz-adv-x="838" 
d="M32 362q0 157 112 265t275 108t275 -108t112 -265t-112 -265t-275 -108t-275 108t-112 265zM238 362q0 -79 52.5 -133.5t128.5 -54.5t128.5 54.5t52.5 133.5t-52.5 133.5t-128.5 54.5t-128.5 -54.5t-52.5 -133.5zM555 959l-120 -164h-128l88 164h160z" />
    <glyph glyph-name="Ocircumflex" unicode="&#xd4;" horiz-adv-x="838" 
d="M32 362q0 157 112 265t275 108t275 -108t112 -265t-112 -265t-275 -108t-275 108t-112 265zM238 362q0 -79 52.5 -133.5t128.5 -54.5t128.5 54.5t52.5 133.5t-52.5 133.5t-128.5 54.5t-128.5 -54.5t-52.5 -133.5zM230 795l122 164h134l122 -164h-121l-68 83l-68 -83h-121
z" />
    <glyph glyph-name="Otilde" unicode="&#xd5;" horiz-adv-x="838" 
d="M32 362q0 157 112 265t275 108t275 -108t112 -265t-112 -265t-275 -108t-275 108t-112 265zM238 362q0 -79 52.5 -133.5t128.5 -54.5t128.5 54.5t52.5 133.5t-52.5 133.5t-128.5 54.5t-128.5 -54.5t-52.5 -133.5zM412 819q-51 23 -74 23q-47 0 -89 -50l-2 1v124
q36 43 90 43q36 0 89 -24q51 -23 74 -23q47 0 89 50l2 -1v-124q-36 -43 -90 -43q-36 0 -89 24z" />
    <glyph glyph-name="Odieresis" unicode="&#xd6;" horiz-adv-x="838" 
d="M32 362q0 157 112 265t275 108t275 -108t112 -265t-112 -265t-275 -108t-275 108t-112 265zM238 362q0 -79 52.5 -133.5t128.5 -54.5t128.5 54.5t52.5 133.5t-52.5 133.5t-128.5 54.5t-128.5 -54.5t-52.5 -133.5zM218 877q0 35 25 59.5t60 24.5t60 -24.5t25 -59.5
t-25 -59.5t-60 -24.5t-60 24.5t-25 59.5zM450 877q0 35 25 59.5t60 24.5t60 -24.5t25 -59.5t-25 -59.5t-60 -24.5t-60 24.5t-25 59.5z" />
    <glyph glyph-name="multiply" unicode="&#xd7;" 
d="M181 135l-100 100l127 127l-127 127l100 100l127 -127l127 127l100 -100l-127 -127l127 -127l-100 -100l-127 127z" />
    <glyph glyph-name="Oslash" unicode="&#xd8;" horiz-adv-x="838" 
d="M238 362q0 -58 30 -105l233 273q-38 20 -82 20q-76 0 -128.5 -54.5t-52.5 -133.5zM32 362q0 157 112 265t275 108q113 0 208 -57l59 70l73 -59l-58 -69q105 -105 105 -258q0 -157 -112 -265t-275 -108q-113 0 -208 57l-59 -70l-73 59l58 69q-105 105 -105 258zM600 362
q0 58 -30 105l-233 -273q38 -20 82 -20q76 0 128.5 54.5t52.5 133.5z" />
    <glyph glyph-name="Ugrave" unicode="&#xd9;" horiz-adv-x="772" 
d="M108 107q-57 79 -57 236v381h206v-369q0 -100 28 -139q34 -48 105 -48q65 0 99 42q34 41 34 145v369h198v-381q0 -158 -61 -239q-41 -54 -112.5 -84.5t-161.5 -30.5q-91 0 -164 30.5t-114 87.5zM370 795l-120 164h160l88 -164h-128z" />
    <glyph glyph-name="Uacute" unicode="&#xda;" horiz-adv-x="772" 
d="M108 107q-57 79 -57 236v381h206v-369q0 -100 28 -139q34 -48 105 -48q65 0 99 42q34 41 34 145v369h198v-381q0 -158 -61 -239q-41 -54 -112.5 -84.5t-161.5 -30.5q-91 0 -164 30.5t-114 87.5zM522 959l-120 -164h-128l88 164h160z" />
    <glyph glyph-name="Ucircumflex" unicode="&#xdb;" horiz-adv-x="772" 
d="M108 107q-57 79 -57 236v381h206v-369q0 -100 28 -139q34 -48 105 -48q65 0 99 42q34 41 34 145v369h198v-381q0 -158 -61 -239q-41 -54 -112.5 -84.5t-161.5 -30.5q-91 0 -164 30.5t-114 87.5zM197 795l122 164h134l122 -164h-121l-68 83l-68 -83h-121z" />
    <glyph glyph-name="Udieresis" unicode="&#xdc;" horiz-adv-x="772" 
d="M108 107q-57 79 -57 236v381h206v-369q0 -100 28 -139q34 -48 105 -48q65 0 99 42q34 41 34 145v369h198v-381q0 -158 -61 -239q-41 -54 -112.5 -84.5t-161.5 -30.5q-91 0 -164 30.5t-114 87.5zM185 877q0 35 25 59.5t60 24.5t60 -24.5t25 -59.5t-25 -59.5t-60 -24.5
t-60 24.5t-25 59.5zM417 877q0 35 25 59.5t60 24.5t60 -24.5t25 -59.5t-25 -59.5t-60 -24.5t-60 24.5t-25 59.5z" />
    <glyph glyph-name="Yacute" unicode="&#xdd;" horiz-adv-x="737" 
d="M266 0v324l-281 400h240l66 -102q43 -65 80 -126h2q52 84 78 124l67 104h234l-280 -396v-328h-206zM507 959l-120 -164h-128l88 164h160z" />
    <glyph glyph-name="Thorn" unicode="&#xde;" horiz-adv-x="659" 
d="M57 0v724h206v-118h29q142 0 218 -38q126 -62 126 -204q0 -128 -108 -191q-83 -49 -232 -49h-33v-124h-206zM263 280h37q68 0 93 13q37 19 37 67q0 51 -40 69q-27 13 -96 13h-31v-162z" />
    <glyph glyph-name="germandbls" unicode="&#xdf;" horiz-adv-x="686" 
d="M53 0v545q0 121 76 177q73 53 201 53q124 0 200 -49q78 -51 78 -150q0 -65 -32 -124q-52 -18 -77.5 -33t-25.5 -37q0 -8 2.5 -14t11.5 -12.5t14.5 -10t22.5 -12t26 -12.5q58 -30 89.5 -64.5t31.5 -94.5q0 -85 -63 -129t-153 -44q-100 0 -163 39v152q90 -51 152 -51
q33 0 33 28q0 10 -7 17.5t-15.5 11.5t-29 12.5t-35.5 16.5q-55 28 -82 64t-27 89q0 64 44 111q30 31 80 52q4 12 4 27q0 29 -23 44q-20 13 -56 13q-38 0 -58 -17q-21 -18 -21 -69v-529h-198z" />
    <glyph glyph-name="agrave" unicode="&#xe0;" horiz-adv-x="554" 
d="M202 -11q-69 0 -116 31q-63 42 -63 118t58 118q50 37 138 37q37 0 75 -8v7q0 22 -14 36q-19 18 -66 18q-63 0 -143 -33v154q80 36 182 36q115 0 178 -48q61 -46 61 -141v-142q0 -32 25 -32q11 0 23 6v-136q-33 -19 -93 -19q-71 0 -115 33h-2q-57 -35 -128 -35zM259 120
q17 0 35 7v61q-14 3 -29 3q-50 0 -50 -36q0 -17 12.5 -26t31.5 -9zM262 563l-120 164h160l88 -164h-128z" />
    <glyph glyph-name="aacute" unicode="&#xe1;" horiz-adv-x="554" 
d="M202 -11q-69 0 -116 31q-63 42 -63 118t58 118q50 37 138 37q37 0 75 -8v7q0 22 -14 36q-19 18 -66 18q-63 0 -143 -33v154q80 36 182 36q115 0 178 -48q61 -46 61 -141v-142q0 -32 25 -32q11 0 23 6v-136q-33 -19 -93 -19q-71 0 -115 33h-2q-57 -35 -128 -35zM259 120
q17 0 35 7v61q-14 3 -29 3q-50 0 -50 -36q0 -17 12.5 -26t31.5 -9zM414 727l-120 -164h-128l88 164h160z" />
    <glyph glyph-name="acircumflex" unicode="&#xe2;" horiz-adv-x="554" 
d="M202 -11q-69 0 -116 31q-63 42 -63 118t58 118q50 37 138 37q37 0 75 -8v7q0 22 -14 36q-19 18 -66 18q-63 0 -143 -33v154q80 36 182 36q115 0 178 -48q61 -46 61 -141v-142q0 -32 25 -32q11 0 23 6v-136q-33 -19 -93 -19q-71 0 -115 33h-2q-57 -35 -128 -35zM259 120
q17 0 35 7v61q-14 3 -29 3q-50 0 -50 -36q0 -17 12.5 -26t31.5 -9zM89 563l122 164h134l122 -164h-121l-68 83l-68 -83h-121z" />
    <glyph glyph-name="atilde" unicode="&#xe3;" horiz-adv-x="554" 
d="M202 -11q-69 0 -116 31q-63 42 -63 118t58 118q50 37 138 37q37 0 75 -8v7q0 22 -14 36q-19 18 -66 18q-63 0 -143 -33v154q80 36 182 36q115 0 178 -48q61 -46 61 -141v-142q0 -32 25 -32q11 0 23 6v-136q-33 -19 -93 -19q-71 0 -115 33h-2q-57 -35 -128 -35zM259 120
q17 0 35 7v61q-14 3 -29 3q-50 0 -50 -36q0 -17 12.5 -26t31.5 -9zM271 587q-51 23 -74 23q-47 0 -89 -50l-2 1v124q36 43 90 43q36 0 89 -24q51 -23 74 -23q47 0 89 50l2 -1v-124q-36 -43 -90 -43q-36 0 -89 24z" />
    <glyph glyph-name="adieresis" unicode="&#xe4;" horiz-adv-x="554" 
d="M202 -11q-69 0 -116 31q-63 42 -63 118t58 118q50 37 138 37q37 0 75 -8v7q0 22 -14 36q-19 18 -66 18q-63 0 -143 -33v154q80 36 182 36q115 0 178 -48q61 -46 61 -141v-142q0 -32 25 -32q11 0 23 6v-136q-33 -19 -93 -19q-71 0 -115 33h-2q-57 -35 -128 -35zM259 120
q17 0 35 7v61q-14 3 -29 3q-50 0 -50 -36q0 -17 12.5 -26t31.5 -9zM77 645q0 35 25 59.5t60 24.5t60 -24.5t25 -59.5t-25 -59.5t-60 -24.5t-60 24.5t-25 59.5zM309 645q0 35 25 59.5t60 24.5t60 -24.5t25 -59.5t-25 -59.5t-60 -24.5t-60 24.5t-25 59.5z" />
    <glyph glyph-name="aring" unicode="&#xe5;" horiz-adv-x="554" 
d="M202 -11q-69 0 -116 31q-63 42 -63 118t58 118q50 37 138 37q37 0 75 -8v7q0 22 -14 36q-19 18 -66 18q-63 0 -143 -33v154q80 36 182 36q115 0 178 -48q61 -46 61 -141v-142q0 -32 25 -32q11 0 23 6v-136q-33 -19 -93 -19q-71 0 -115 33h-2q-57 -35 -128 -35zM259 120
q17 0 35 7v61q-14 3 -29 3q-50 0 -50 -36q0 -17 12.5 -26t31.5 -9zM278 534q-60 0 -99 37.5t-39 93.5t39 93.5t99 37.5t99 -37.5t39 -93.5t-39 -93.5t-99 -37.5zM278 608q24 0 39 16t15 41t-15 41t-39 16t-39 -16t-15 -41t15 -41t39 -16z" />
    <glyph glyph-name="ae" unicode="&#xe6;" horiz-adv-x="828" 
d="M770 177v-150q-81 -38 -191 -38q-131 0 -209 64q-64 -64 -168 -64q-66 0 -115 32q-64 43 -64 117q0 76 58 118q50 37 138 37q30 0 70 -7v6q0 22 -14 36q-19 18 -64 18q-62 0 -140 -33v154q78 36 178 36q112 0 168 -49h2q58 49 138 49q96 0 168.5 -64.5t72.5 -187.5
q0 -29 -3 -50h-304q24 -70 116 -70q81 0 163 46zM553 363q-25 0 -42.5 -16t-23.5 -44h133q-12 60 -67 60zM295 188q-15 3 -32 3q-48 0 -48 -36q0 -17 12.5 -26t30.5 -9q27 0 51 19q-10 25 -14 49z" />
    <glyph glyph-name="ccedilla" unicode="&#xe7;" horiz-adv-x="507" 
d="M24 245q0 114 87.5 186t210.5 72q81 0 139 -29v-171q-68 39 -125 39q-50 0 -81 -27t-31 -69q0 -43 31.5 -69t82.5 -26q73 0 130 41v-171q-58 -32 -151 -32l-7 -22q41 -8 64 -33t23 -60q0 -43 -32.5 -69t-85.5 -26q-47 0 -89 20l23 70q36 -19 65 -19q36 0 36 23
q0 35 -88 38l26 84q-103 17 -165.5 86t-62.5 164z" />
    <glyph glyph-name="egrave" unicode="&#xe8;" horiz-adv-x="567" 
d="M509 177v-150q-82 -38 -192 -38q-132 0 -212.5 68t-80.5 184q0 117 78.5 189.5t188.5 72.5q101 0 173.5 -64t72.5 -188q0 -29 -3 -50h-309q26 -70 119 -70q80 0 165 46zM290 363q-54 0 -68 -60h137q-12 60 -69 60zM265 563l-120 164h160l88 -164h-128z" />
    <glyph glyph-name="eacute" unicode="&#xe9;" horiz-adv-x="567" 
d="M509 177v-150q-82 -38 -192 -38q-132 0 -212.5 68t-80.5 184q0 117 78.5 189.5t188.5 72.5q101 0 173.5 -64t72.5 -188q0 -29 -3 -50h-309q26 -70 119 -70q80 0 165 46zM290 363q-54 0 -68 -60h137q-12 60 -69 60zM417 727l-120 -164h-128l88 164h160z" />
    <glyph glyph-name="ecircumflex" unicode="&#xea;" horiz-adv-x="567" 
d="M509 177v-150q-82 -38 -192 -38q-132 0 -212.5 68t-80.5 184q0 117 78.5 189.5t188.5 72.5q101 0 173.5 -64t72.5 -188q0 -29 -3 -50h-309q26 -70 119 -70q80 0 165 46zM290 363q-54 0 -68 -60h137q-12 60 -69 60zM92 563l122 164h134l122 -164h-121l-68 83l-68 -83h-121
z" />
    <glyph glyph-name="edieresis" unicode="&#xeb;" horiz-adv-x="567" 
d="M509 177v-150q-82 -38 -192 -38q-132 0 -212.5 68t-80.5 184q0 117 78.5 189.5t188.5 72.5q101 0 173.5 -64t72.5 -188q0 -29 -3 -50h-309q26 -70 119 -70q80 0 165 46zM290 363q-54 0 -68 -60h137q-12 60 -69 60zM80 645q0 35 25 59.5t60 24.5t60 -24.5t25 -59.5
t-25 -59.5t-60 -24.5t-60 24.5t-25 59.5zM312 645q0 35 25 59.5t60 24.5t60 -24.5t25 -59.5t-25 -59.5t-60 -24.5t-60 24.5t-25 59.5z" />
    <glyph glyph-name="igrave" unicode="&#xec;" horiz-adv-x="304" 
d="M53 0v492h198v-492h-198zM136 563l-120 164h160l88 -164h-128z" />
    <glyph glyph-name="iacute" unicode="&#xed;" horiz-adv-x="304" 
d="M53 0v492h198v-492h-198zM288 727l-120 -164h-128l88 164h160z" />
    <glyph glyph-name="icircumflex" unicode="&#xee;" horiz-adv-x="304" 
d="M53 0v492h198v-492h-198zM-37 563l122 164h134l122 -164h-121l-68 83l-68 -83h-121z" />
    <glyph glyph-name="idieresis" unicode="&#xef;" horiz-adv-x="304" 
d="M53 0v492h198v-492h-198zM-49 645q0 35 25 59.5t60 24.5t60 -24.5t25 -59.5t-25 -59.5t-60 -24.5t-60 24.5t-25 59.5zM183 645q0 35 25 59.5t60 24.5t60 -24.5t25 -59.5t-25 -59.5t-60 -24.5t-60 24.5t-25 59.5z" />
    <glyph glyph-name="eth" unicode="&#xf0;" horiz-adv-x="602" 
d="M105 465l-25 110l75 27q-22 13 -62 35l122 112q67 -37 124 -82l133 48l25 -110l-65 -23q143 -157 143 -326q0 -121 -76 -194t-201 -73q-122 0 -198 69t-76 176q0 102 68 171.5t172 69.5q23 0 42 -4l1 2q-23 32 -43 49zM220 239q0 -39 22 -64.5t57 -25.5q36 0 56 25t20 65
t-20 65.5t-56 25.5q-35 0 -57 -25.5t-22 -65.5z" />
    <glyph glyph-name="ntilde" unicode="&#xf1;" horiz-adv-x="617" 
d="M53 0v492h194v-38l2 -1q67 50 143 50q77 0 126 -47q48 -46 48 -147v-309h-198v279q0 33 -14 47t-38 14q-37 0 -65 -26v-314h-198zM301 587q-51 23 -74 23q-47 0 -89 -50l-2 1v124q36 43 90 43q36 0 89 -24q51 -23 74 -23q47 0 89 50l2 -1v-124q-36 -43 -90 -43
q-36 0 -89 24z" />
    <glyph glyph-name="ograve" unicode="&#xf2;" 
d="M24 246q0 110 80.5 183.5t203.5 73.5t203.5 -73.5t80.5 -183.5t-80.5 -183.5t-203.5 -73.5t-203.5 73.5t-80.5 183.5zM220 246q0 -39 25 -65.5t63 -26.5t63 26.5t25 65.5t-25 65.5t-63 26.5t-63 -26.5t-25 -65.5zM292 563l-120 164h160l88 -164h-128z" />
    <glyph glyph-name="oacute" unicode="&#xf3;" 
d="M24 246q0 110 80.5 183.5t203.5 73.5t203.5 -73.5t80.5 -183.5t-80.5 -183.5t-203.5 -73.5t-203.5 73.5t-80.5 183.5zM220 246q0 -39 25 -65.5t63 -26.5t63 26.5t25 65.5t-25 65.5t-63 26.5t-63 -26.5t-25 -65.5zM444 727l-120 -164h-128l88 164h160z" />
    <glyph glyph-name="ocircumflex" unicode="&#xf4;" 
d="M24 246q0 110 80.5 183.5t203.5 73.5t203.5 -73.5t80.5 -183.5t-80.5 -183.5t-203.5 -73.5t-203.5 73.5t-80.5 183.5zM220 246q0 -39 25 -65.5t63 -26.5t63 26.5t25 65.5t-25 65.5t-63 26.5t-63 -26.5t-25 -65.5zM119 563l122 164h134l122 -164h-121l-68 83l-68 -83h-121
z" />
    <glyph glyph-name="otilde" unicode="&#xf5;" 
d="M24 246q0 110 80.5 183.5t203.5 73.5t203.5 -73.5t80.5 -183.5t-80.5 -183.5t-203.5 -73.5t-203.5 73.5t-80.5 183.5zM220 246q0 -39 25 -65.5t63 -26.5t63 26.5t25 65.5t-25 65.5t-63 26.5t-63 -26.5t-25 -65.5zM301 587q-51 23 -74 23q-47 0 -89 -50l-2 1v124
q36 43 90 43q36 0 89 -24q51 -23 74 -23q47 0 89 50l2 -1v-124q-36 -43 -90 -43q-36 0 -89 24z" />
    <glyph glyph-name="odieresis" unicode="&#xf6;" 
d="M24 246q0 110 80.5 183.5t203.5 73.5t203.5 -73.5t80.5 -183.5t-80.5 -183.5t-203.5 -73.5t-203.5 73.5t-80.5 183.5zM220 246q0 -39 25 -65.5t63 -26.5t63 26.5t25 65.5t-25 65.5t-63 26.5t-63 -26.5t-25 -65.5zM107 645q0 35 25 59.5t60 24.5t60 -24.5t25 -59.5
t-25 -59.5t-60 -24.5t-60 24.5t-25 59.5zM339 645q0 35 25 59.5t60 24.5t60 -24.5t25 -59.5t-25 -59.5t-60 -24.5t-60 24.5t-25 59.5z" />
    <glyph glyph-name="divide" unicode="&#xf7;" 
d="M213 559q0 38 27 65t66 27t66 -27t27 -65t-27 -65t-66 -27t-66 27t-27 65zM56 295v134h504v-134h-504zM213 165q0 38 27 65t66 27t66 -27t27 -65t-27 -65t-66 -27t-66 27t-27 65z" />
    <glyph glyph-name="oslash" unicode="&#xf8;" 
d="M220 246q0 -24 9 -43l112 129q-15 6 -33 6q-38 0 -63 -26.5t-25 -65.5zM24 246q0 110 80.5 183.5t203.5 73.5q83 0 150 -36l45 51l49 -40l-42 -48q82 -73 82 -184q0 -110 -80.5 -183.5t-203.5 -73.5q-83 0 -150 36l-45 -51l-49 40l42 48q-82 73 -82 184zM396 246
q0 24 -9 43l-112 -129q15 -6 33 -6q38 0 63 26.5t25 65.5z" />
    <glyph glyph-name="ugrave" unicode="&#xf9;" horiz-adv-x="615" 
d="M101 34q-51 47 -51 152v306h198v-280q0 -33 14 -47t37 -14q36 0 66 28v313h198v-492h-194v40l-2 1q-65 -52 -140 -52q-76 0 -126 45zM291 563l-120 164h160l88 -164h-128z" />
    <glyph glyph-name="uacute" unicode="&#xfa;" horiz-adv-x="615" 
d="M101 34q-51 47 -51 152v306h198v-280q0 -33 14 -47t37 -14q36 0 66 28v313h198v-492h-194v40l-2 1q-65 -52 -140 -52q-76 0 -126 45zM443 727l-120 -164h-128l88 164h160z" />
    <glyph glyph-name="ucircumflex" unicode="&#xfb;" horiz-adv-x="615" 
d="M101 34q-51 47 -51 152v306h198v-280q0 -33 14 -47t37 -14q36 0 66 28v313h198v-492h-194v40l-2 1q-65 -52 -140 -52q-76 0 -126 45zM118 563l122 164h134l122 -164h-121l-68 83l-68 -83h-121z" />
    <glyph glyph-name="udieresis" unicode="&#xfc;" horiz-adv-x="615" 
d="M101 34q-51 47 -51 152v306h198v-280q0 -33 14 -47t37 -14q36 0 66 28v313h198v-492h-194v40l-2 1q-65 -52 -140 -52q-76 0 -126 45zM106 645q0 35 25 59.5t60 24.5t60 -24.5t25 -59.5t-25 -59.5t-60 -24.5t-60 24.5t-25 59.5zM338 645q0 35 25 59.5t60 24.5t60 -24.5
t25 -59.5t-25 -59.5t-60 -24.5t-60 24.5t-25 59.5z" />
    <glyph glyph-name="yacute" unicode="&#xfd;" horiz-adv-x="565" 
d="M257 -220h-198l132 274l-196 438h204l87 -237h2l95 237h187zM425 727l-120 -164h-128l88 164h160z" />
    <glyph glyph-name="thorn" unicode="&#xfe;" horiz-adv-x="615" 
d="M52 -220v984h198v-291l2 -1q46 31 108 31q94 0 162 -69t68 -181q0 -117 -75 -190.5t-190 -73.5q-43 0 -73 11l-2 -1v-219h-198zM250 332v-182q19 -8 45 -8q48 0 71.5 29t23.5 74q0 44 -23 72t-64 28q-25 0 -53 -13z" />
    <glyph glyph-name="ydieresis" unicode="&#xff;" horiz-adv-x="565" 
d="M257 -220h-198l132 274l-196 438h204l87 -237h2l95 237h187zM88 645q0 35 25 59.5t60 24.5t60 -24.5t25 -59.5t-25 -59.5t-60 -24.5t-60 24.5t-25 59.5zM320 645q0 35 25 59.5t60 24.5t60 -24.5t25 -59.5t-25 -59.5t-60 -24.5t-60 24.5t-25 59.5z" />
    <glyph glyph-name="Amacron" unicode="&#x100;" horiz-adv-x="793" 
d="M2 0l293 724h203l293 -724h-224l-51 148h-248l-53 -148h-213zM395 504h-2q-20 -67 -45 -135l-25 -69h140l-24 69q-19 56 -44 135zM233 817v120h326v-120h-326z" />
    <glyph glyph-name="amacron" unicode="&#x101;" horiz-adv-x="554" 
d="M202 -11q-69 0 -116 31q-63 42 -63 118t58 118q50 37 138 37q37 0 75 -8v7q0 22 -14 36q-19 18 -66 18q-63 0 -143 -33v154q80 36 182 36q115 0 178 -48q61 -46 61 -141v-142q0 -32 25 -32q11 0 23 6v-136q-33 -19 -93 -19q-71 0 -115 33h-2q-57 -35 -128 -35zM259 120
q17 0 35 7v61q-14 3 -29 3q-50 0 -50 -36q0 -17 12.5 -26t31.5 -9zM115 585v120h326v-120h-326z" />
    <glyph glyph-name="Abreve" unicode="&#x102;" horiz-adv-x="793" 
d="M2 0l293 724h203l293 -724h-224l-51 148h-248l-53 -148h-213zM395 504h-2q-20 -67 -45 -135l-25 -69h140l-24 69q-19 56 -44 135zM396 793q-80 0 -126 44t-48 122h106q4 -74 68 -74t68 74h106q-2 -78 -48 -122t-126 -44z" />
    <glyph glyph-name="abreve" unicode="&#x103;" horiz-adv-x="554" 
d="M202 -11q-69 0 -116 31q-63 42 -63 118t58 118q50 37 138 37q37 0 75 -8v7q0 22 -14 36q-19 18 -66 18q-63 0 -143 -33v154q80 36 182 36q115 0 178 -48q61 -46 61 -141v-142q0 -32 25 -32q11 0 23 6v-136q-33 -19 -93 -19q-71 0 -115 33h-2q-57 -35 -128 -35zM259 120
q17 0 35 7v61q-14 3 -29 3q-50 0 -50 -36q0 -17 12.5 -26t31.5 -9zM278 561q-80 0 -126 44t-48 122h106q4 -74 68 -74t68 74h106q-2 -78 -48 -122t-126 -44z" />
    <glyph glyph-name="Aogonek" unicode="&#x104;" horiz-adv-x="793" 
d="M2 0l293 724h203l293 -724q-49 -10 -80 -28t-40 -32t-9 -27q0 -32 42 -32q24 0 54 8v-106q-42 -14 -95 -14q-72 0 -115 31t-43 81q0 72 62 119l-51 148h-248l-53 -148h-213zM395 504h-2q-20 -67 -45 -135l-25 -69h140l-24 69q-19 56 -44 135z" />
    <glyph glyph-name="aogonek" unicode="&#x105;" horiz-adv-x="554" 
d="M540 10q-57 -21 -86.5 -48.5t-29.5 -50.5q0 -30 40 -30q24 0 56 8v-106q-44 -14 -96 -14q-72 0 -115 31t-43 82q0 74 84 128v2q-9 4 -18 12h-2q-57 -35 -128 -35q-69 0 -116 31q-63 42 -63 118t58 118q50 37 138 37q37 0 75 -8v7q0 22 -14 36q-19 18 -66 18
q-63 0 -143 -33v154q80 36 182 36q115 0 178 -48q61 -46 61 -141v-142q0 -32 25 -32q11 0 23 6v-136zM259 120q17 0 35 7v61q-14 3 -29 3q-50 0 -50 -36q0 -17 12.5 -26t31.5 -9z" />
    <glyph glyph-name="Cacute" unicode="&#x106;" horiz-adv-x="682" 
d="M32 361q0 161 114.5 267.5t291.5 106.5q109 0 200 -41v-202q-96 60 -196 60q-91 0 -147.5 -53t-56.5 -136q0 -82 56 -136.5t152 -54.5q101 0 202 63v-203q-92 -43 -210 -43q-180 0 -293 106t-113 266zM577 959l-120 -164h-128l88 164h160z" />
    <glyph glyph-name="cacute" unicode="&#x107;" horiz-adv-x="507" 
d="M24 245q0 114 87.5 186t210.5 72q81 0 139 -29v-171q-68 39 -125 39q-50 0 -81 -27t-31 -69q0 -43 31.5 -69t82.5 -26q73 0 130 41v-171q-58 -32 -151 -32q-129 0 -211 72.5t-82 183.5zM461 727l-120 -164h-128l88 164h160z" />
    <glyph glyph-name="Ccircumflex" unicode="&#x108;" horiz-adv-x="682" 
d="M32 361q0 161 114.5 267.5t291.5 106.5q109 0 200 -41v-202q-96 60 -196 60q-91 0 -147.5 -53t-56.5 -136q0 -82 56 -136.5t152 -54.5q101 0 202 63v-203q-92 -43 -210 -43q-180 0 -293 106t-113 266zM202 795l122 164h134l122 -164h-121l-68 83l-68 -83h-121z" />
    <glyph glyph-name="ccircumflex" unicode="&#x109;" horiz-adv-x="507" 
d="M24 245q0 114 87.5 186t210.5 72q81 0 139 -29v-171q-68 39 -125 39q-50 0 -81 -27t-31 -69q0 -43 31.5 -69t82.5 -26q73 0 130 41v-171q-58 -32 -151 -32q-129 0 -211 72.5t-82 183.5zM100 563l122 164h134l122 -164h-121l-68 83l-68 -83h-121z" />
    <glyph glyph-name="Cdotaccent" unicode="&#x10a;" horiz-adv-x="682" 
d="M32 361q0 161 114.5 267.5t291.5 106.5q109 0 200 -41v-202q-96 60 -196 60q-91 0 -147.5 -53t-56.5 -136q0 -82 56 -136.5t152 -54.5q101 0 202 63v-203q-92 -43 -210 -43q-180 0 -293 106t-113 266zM391 786q-38 0 -65 26.5t-27 64.5t27 64.5t65 26.5t65 -26.5
t27 -64.5t-27 -64.5t-65 -26.5z" />
    <glyph glyph-name="cdotaccent" unicode="&#x10b;" horiz-adv-x="507" 
d="M24 245q0 114 87.5 186t210.5 72q81 0 139 -29v-171q-68 39 -125 39q-50 0 -81 -27t-31 -69q0 -43 31.5 -69t82.5 -26q73 0 130 41v-171q-58 -32 -151 -32q-129 0 -211 72.5t-82 183.5zM289 554q-38 0 -65 26.5t-27 64.5t27 64.5t65 26.5t65 -26.5t27 -64.5t-27 -64.5
t-65 -26.5z" />
    <glyph glyph-name="Ccaron" unicode="&#x10c;" horiz-adv-x="682" 
d="M32 361q0 161 114.5 267.5t291.5 106.5q109 0 200 -41v-202q-96 60 -196 60q-91 0 -147.5 -53t-56.5 -136q0 -82 56 -136.5t152 -54.5q101 0 202 63v-203q-92 -43 -210 -43q-180 0 -293 106t-113 266zM580 959l-121 -164h-135l-121 164h121l67 -83l68 83h121z" />
    <glyph glyph-name="ccaron" unicode="&#x10d;" horiz-adv-x="507" 
d="M24 245q0 114 87.5 186t210.5 72q81 0 139 -29v-171q-68 39 -125 39q-50 0 -81 -27t-31 -69q0 -43 31.5 -69t82.5 -26q73 0 130 41v-171q-58 -32 -151 -32q-129 0 -211 72.5t-82 183.5zM478 727l-121 -164h-135l-121 164h121l67 -83l68 83h121z" />
    <glyph glyph-name="Dcaron" unicode="&#x10e;" horiz-adv-x="758" 
d="M57 0v724h208q230 0 340 -83q124 -93 124 -280q0 -167 -103 -261q-111 -100 -357 -100h-212zM263 174h8q162 0 215 63q37 45 37 124q0 101 -62 148q-55 41 -191 41h-7v-376zM538 959l-121 -164h-135l-121 164h121l67 -83l68 83h121z" />
    <glyph glyph-name="dcaron" unicode="&#x10f;" horiz-adv-x="788" 
d="M25 235q0 116 75 192t184 76q44 0 80 -14l2 1v274h198v-764h-194v25l-2 1q-49 -37 -118 -37q-92 0 -158.5 68t-66.5 178zM225 244q0 -45 22.5 -73t63.5 -28q29 0 55 13v180q-23 10 -49 10q-46 0 -69 -28.5t-23 -73.5zM648 764h167l-84 -218h-132z" />
    <glyph glyph-name="Dcroat" unicode="&#x110;" horiz-adv-x="777" 
d="M2 301v136h74v287h208q230 0 340 -83q124 -93 124 -280q0 -167 -103 -261q-111 -100 -357 -100h-212v301h-74zM282 174h8q162 0 215 63q37 45 37 124q0 101 -62 148q-55 41 -191 41h-7v-113h113v-136h-113v-127z" />
    <glyph glyph-name="dcroat" unicode="&#x111;" horiz-adv-x="617" 
d="M252 557v132h114v75h198v-75h64v-132h-64v-557h-194v25l-2 1q-49 -37 -118 -37q-92 0 -158.5 68t-66.5 178q0 116 75 192t184 76q44 0 80 -14l2 1v67h-114zM225 244q0 -45 22.5 -73t63.5 -28q29 0 55 13v180q-23 10 -49 10q-46 0 -69 -28.5t-23 -73.5z" />
    <glyph glyph-name="Emacron" unicode="&#x112;" horiz-adv-x="576" 
d="M57 0v724h472v-174h-266v-92h225v-164h-225v-120h278v-174h-484zM139 817v120h326v-120h-326z" />
    <glyph glyph-name="emacron" unicode="&#x113;" horiz-adv-x="567" 
d="M509 177v-150q-82 -38 -192 -38q-132 0 -212.5 68t-80.5 184q0 117 78.5 189.5t188.5 72.5q101 0 173.5 -64t72.5 -188q0 -29 -3 -50h-309q26 -70 119 -70q80 0 165 46zM290 363q-54 0 -68 -60h137q-12 60 -69 60zM118 585v120h326v-120h-326z" />
    <glyph glyph-name="Ebreve" unicode="&#x114;" horiz-adv-x="576" 
d="M57 0v724h472v-174h-266v-92h225v-164h-225v-120h278v-174h-484zM302 793q-80 0 -126 44t-48 122h106q4 -74 68 -74t68 74h106q-2 -78 -48 -122t-126 -44z" />
    <glyph glyph-name="ebreve" unicode="&#x115;" horiz-adv-x="567" 
d="M509 177v-150q-82 -38 -192 -38q-132 0 -212.5 68t-80.5 184q0 117 78.5 189.5t188.5 72.5q101 0 173.5 -64t72.5 -188q0 -29 -3 -50h-309q26 -70 119 -70q80 0 165 46zM290 363q-54 0 -68 -60h137q-12 60 -69 60zM281 561q-80 0 -126 44t-48 122h106q4 -74 68 -74t68 74
h106q-2 -78 -48 -122t-126 -44z" />
    <glyph glyph-name="Edotaccent" unicode="&#x116;" horiz-adv-x="576" 
d="M57 0v724h472v-174h-266v-92h225v-164h-225v-120h278v-174h-484zM302 786q-38 0 -65 26.5t-27 64.5t27 64.5t65 26.5t65 -26.5t27 -64.5t-27 -64.5t-65 -26.5z" />
    <glyph glyph-name="edotaccent" unicode="&#x117;" horiz-adv-x="567" 
d="M509 177v-150q-82 -38 -192 -38q-132 0 -212.5 68t-80.5 184q0 117 78.5 189.5t188.5 72.5q101 0 173.5 -64t72.5 -188q0 -29 -3 -50h-309q26 -70 119 -70q80 0 165 46zM290 363q-54 0 -68 -60h137q-12 60 -69 60zM281 554q-38 0 -65 26.5t-27 64.5t27 64.5t65 26.5
t65 -26.5t27 -64.5t-27 -64.5t-65 -26.5z" />
    <glyph glyph-name="Eogonek" unicode="&#x118;" horiz-adv-x="576" 
d="M57 0v724h472v-174h-266v-92h225v-164h-225v-120h278v-174q-96 -36 -96 -87q0 -32 40 -32q24 0 56 8v-106q-44 -14 -96 -14q-72 0 -115 31t-43 82q0 68 68 116v2h-298z" />
    <glyph glyph-name="eogonek" unicode="&#x119;" horiz-adv-x="567" 
d="M509 177v-150q-136 -61 -136 -115q0 -32 41 -32q23 0 53 8v-106q-42 -14 -91 -14q-69 0 -111 31t-42 81q0 61 53 109v2q-115 11 -183.5 77t-68.5 173q0 117 78.5 189.5t188.5 72.5q101 0 173.5 -64t72.5 -188q0 -29 -3 -50h-309q26 -70 119 -70q80 0 165 46zM290 363
q-54 0 -68 -60h137q-12 60 -69 60z" />
    <glyph glyph-name="Ecaron" unicode="&#x11a;" horiz-adv-x="576" 
d="M57 0v724h472v-174h-266v-92h225v-164h-225v-120h278v-174h-484zM491 959l-121 -164h-135l-121 164h121l67 -83l68 83h121z" />
    <glyph glyph-name="ecaron" unicode="&#x11b;" horiz-adv-x="567" 
d="M509 177v-150q-82 -38 -192 -38q-132 0 -212.5 68t-80.5 184q0 117 78.5 189.5t188.5 72.5q101 0 173.5 -64t72.5 -188q0 -29 -3 -50h-309q26 -70 119 -70q80 0 165 46zM290 363q-54 0 -68 -60h137q-12 60 -69 60zM470 727l-121 -164h-135l-121 164h121l67 -83l68 83h121
z" />
    <glyph glyph-name="Gcircumflex" unicode="&#x11c;" horiz-adv-x="737" 
d="M32 358q0 162 115 269.5t291 107.5q121 0 223 -51v-199q-110 67 -215 67q-95 0 -151.5 -55t-56.5 -139q0 -83 55.5 -139t148.5 -56q26 0 44 5v77h-99v151h298v-355q-109 -52 -243 -52q-182 0 -296 104.5t-114 264.5zM217 795l122 164h134l122 -164h-121l-68 83l-68 -83
h-121z" />
    <glyph glyph-name="gcircumflex" unicode="&#x11d;" horiz-adv-x="610" 
d="M98 -196v171q84 -49 164 -49q98 0 98 90v21l-2 2q-39 -30 -105 -30q-89 0 -157 65t-68 172q0 110 74.5 183.5t187.5 73.5q65 0 124 -28l144 25v-486q0 -117 -77 -181t-203 -64q-103 0 -180 35zM228 252q0 -43 22.5 -69t61.5 -26q23 0 48 11v169q-18 9 -44 9
q-46 0 -67 -27.5t-21 -66.5zM120 563l122 164h134l122 -164h-121l-68 83l-68 -83h-121z" />
    <glyph glyph-name="Gbreve" unicode="&#x11e;" horiz-adv-x="737" 
d="M32 358q0 162 115 269.5t291 107.5q121 0 223 -51v-199q-110 67 -215 67q-95 0 -151.5 -55t-56.5 -139q0 -83 55.5 -139t148.5 -56q26 0 44 5v77h-99v151h298v-355q-109 -52 -243 -52q-182 0 -296 104.5t-114 264.5zM406 793q-80 0 -126 44t-48 122h106q4 -74 68 -74
t68 74h106q-2 -78 -48 -122t-126 -44z" />
    <glyph glyph-name="gbreve" unicode="&#x11f;" horiz-adv-x="610" 
d="M98 -196v171q84 -49 164 -49q98 0 98 90v21l-2 2q-39 -30 -105 -30q-89 0 -157 65t-68 172q0 110 74.5 183.5t187.5 73.5q65 0 124 -28l144 25v-486q0 -117 -77 -181t-203 -64q-103 0 -180 35zM228 252q0 -43 22.5 -69t61.5 -26q23 0 48 11v169q-18 9 -44 9
q-46 0 -67 -27.5t-21 -66.5zM309 561q-80 0 -126 44t-48 122h106q4 -74 68 -74t68 74h106q-2 -78 -48 -122t-126 -44z" />
    <glyph glyph-name="Gdotaccent" unicode="&#x120;" horiz-adv-x="737" 
d="M32 358q0 162 115 269.5t291 107.5q121 0 223 -51v-199q-110 67 -215 67q-95 0 -151.5 -55t-56.5 -139q0 -83 55.5 -139t148.5 -56q26 0 44 5v77h-99v151h298v-355q-109 -52 -243 -52q-182 0 -296 104.5t-114 264.5zM406 786q-38 0 -65 26.5t-27 64.5t27 64.5t65 26.5
t65 -26.5t27 -64.5t-27 -64.5t-65 -26.5z" />
    <glyph glyph-name="gdotaccent" unicode="&#x121;" horiz-adv-x="610" 
d="M98 -196v171q84 -49 164 -49q98 0 98 90v21l-2 2q-39 -30 -105 -30q-89 0 -157 65t-68 172q0 110 74.5 183.5t187.5 73.5q65 0 124 -28l144 25v-486q0 -117 -77 -181t-203 -64q-103 0 -180 35zM228 252q0 -43 22.5 -69t61.5 -26q23 0 48 11v169q-18 9 -44 9
q-46 0 -67 -27.5t-21 -66.5zM309 554q-38 0 -65 26.5t-27 64.5t27 64.5t65 26.5t65 -26.5t27 -64.5t-27 -64.5t-65 -26.5z" />
    <glyph glyph-name="Gcommaaccent" unicode="&#x122;" horiz-adv-x="737" 
d="M32 358q0 162 115 269.5t291 107.5q121 0 223 -51v-199q-110 67 -215 67q-95 0 -151.5 -55t-56.5 -139q0 -83 55.5 -139t148.5 -56q26 0 44 5v77h-99v151h298v-355q-109 -52 -243 -52q-182 0 -296 104.5t-114 264.5zM346 -54h167l-84 -218h-132z" />
    <glyph glyph-name="gcommaaccent" unicode="&#x123;" horiz-adv-x="610" 
d="M98 -196v171q84 -49 164 -49q98 0 98 90v21l-2 2q-39 -30 -105 -30q-89 0 -157 65t-68 172q0 110 74.5 183.5t187.5 73.5q65 0 124 -28l144 25v-486q0 -117 -77 -181t-203 -64q-103 0 -180 35zM228 252q0 -43 22.5 -69t61.5 -26q23 0 48 11v169q-18 9 -44 9
q-46 0 -67 -27.5t-21 -66.5zM202 556l84 218h132l-49 -218h-167z" />
    <glyph glyph-name="Hcircumflex" unicode="&#x124;" horiz-adv-x="784" 
d="M57 0v724h206v-261h258v261h206v-724h-206v289h-258v-289h-206zM203 795l122 164h134l122 -164h-121l-68 83l-68 -83h-121z" />
    <glyph glyph-name="hcircumflex" unicode="&#x125;" 
d="M53 0v764h198v-308l2 -1q65 48 138 48q78 0 127 -47q48 -46 48 -147v-309h-198v279q0 33 -14 47t-38 14q-37 0 -65 -26v-314h-198zM-36 826l122 164h134l122 -164h-121l-68 83l-68 -83h-121z" />
    <glyph glyph-name="Hbar" unicode="&#x126;" horiz-adv-x="796" 
d="M-2 522v136h65v66h206v-66h258v66h206v-66h65v-136h-65v-522h-206v289h-258v-289h-206v522h-65zM269 463h258v59h-258v-59z" />
    <glyph glyph-name="hbar" unicode="&#x127;" 
d="M-11 557v132h64v75h198v-75h114v-132h-114v-101l2 -1q65 48 138 48q78 0 127 -47q48 -46 48 -147v-309h-198v279q0 33 -14 47t-38 14q-37 0 -65 -26v-314h-198v557h-64z" />
    <glyph glyph-name="Itilde" unicode="&#x128;" horiz-adv-x="320" 
d="M57 0v724h206v-724h-206zM153 819q-51 23 -74 23q-47 0 -89 -50l-2 1v124q36 43 90 43q36 0 89 -24q51 -23 74 -23q47 0 89 50l2 -1v-124q-36 -43 -90 -43q-36 0 -89 24z" />
    <glyph glyph-name="itilde" unicode="&#x129;" horiz-adv-x="304" 
d="M53 0v492h198v-492h-198zM145 587q-51 23 -74 23q-47 0 -89 -50l-2 1v124q36 43 90 43q36 0 89 -24q51 -23 74 -23q47 0 89 50l2 -1v-124q-36 -43 -90 -43q-36 0 -89 24z" />
    <glyph glyph-name="Imacron" unicode="&#x12a;" horiz-adv-x="320" 
d="M57 0v724h206v-724h-206zM-3 817v120h326v-120h-326z" />
    <glyph glyph-name="imacron" unicode="&#x12b;" horiz-adv-x="304" 
d="M53 0v492h198v-492h-198zM-11 585v120h326v-120h-326z" />
    <glyph glyph-name="Ibreve" unicode="&#x12c;" horiz-adv-x="320" 
d="M57 0v724h206v-724h-206zM160 793q-80 0 -126 44t-48 122h106q4 -74 68 -74t68 74h106q-2 -78 -48 -122t-126 -44z" />
    <glyph glyph-name="ibreve" unicode="&#x12d;" horiz-adv-x="304" 
d="M53 0v492h198v-492h-198zM152 561q-80 0 -126 44t-48 122h106q4 -74 68 -74t68 74h106q-2 -78 -48 -122t-126 -44z" />
    <glyph glyph-name="Iogonek" unicode="&#x12e;" horiz-adv-x="320" 
d="M57 0v724h206v-724q-48 -17 -70 -42t-22 -46q0 -31 41 -31q24 0 52 7v-106q-41 -13 -92 -13q-72 0 -115.5 33.5t-43.5 89.5q0 61 44 108z" />
    <glyph glyph-name="iogonek" unicode="&#x12f;" horiz-adv-x="304" 
d="M48 656q0 43 30.5 73t73.5 30t73.5 -30t30.5 -73t-30.5 -73t-73.5 -30t-73.5 30t-30.5 73zM10 -108q0 57 43 108v492h198v-492q-42 -20 -62.5 -44.5t-20.5 -43.5q0 -31 41 -31q19 0 46 6v-107q-40 -11 -86 -11q-73 0 -116 33.5t-43 89.5z" />
    <glyph glyph-name="Idotaccent" unicode="&#x130;" horiz-adv-x="320" 
d="M57 0v724h206v-724h-206zM160 786q-38 0 -65 26.5t-27 64.5t27 64.5t65 26.5t65 -26.5t27 -64.5t-27 -64.5t-65 -26.5z" />
    <glyph glyph-name="dotlessi" unicode="&#x131;" horiz-adv-x="304" 
d="M53 0v492h198v-492h-198z" />
    <glyph glyph-name="IJ" unicode="&#x132;" horiz-adv-x="745" 
d="M57 0v724h206v-724h-206zM482 246v478h206v-476q0 -136 -59 -193q-66 -66 -186 -66q-57 0 -109 18v179q50 -18 88 -18q36 0 48 18t12 60z" />
    <glyph glyph-name="ij" unicode="&#x133;" horiz-adv-x="613" 
d="M48 656q0 43 30.5 73t73.5 30t73.5 -30t30.5 -73t-30.5 -73t-73.5 -30t-73.5 30t-30.5 73zM53 0v492h198v-492h-198zM357 656q0 43 30.5 73t73.5 30t73.5 -30t30.5 -73t-30.5 -73t-73.5 -30t-73.5 30t-30.5 73zM362 -9v501h198v-492q0 -71 -13 -111t-41 -66
q-60 -54 -174 -54q-41 0 -74 6v158q25 -5 49 -5q32 0 43.5 13.5t11.5 49.5z" />
    <glyph glyph-name="Jcircumflex" unicode="&#x134;" horiz-adv-x="425" 
d="M162 246v478h206v-476q0 -136 -59 -193q-66 -66 -186 -66q-57 0 -109 18v179q50 -18 88 -18q36 0 48 18t12 60zM76 795l122 164h134l122 -164h-121l-68 83l-68 -83h-121z" />
    <glyph glyph-name="jcircumflex" unicode="&#x135;" horiz-adv-x="309" 
d="M58 -9v501h198v-492q0 -71 -13 -111t-41 -66q-60 -54 -174 -54q-41 0 -74 6v158q25 -5 49 -5q32 0 43.5 13.5t11.5 49.5zM-32 563l122 164h134l122 -164h-121l-68 83l-68 -83h-121z" />
    <glyph glyph-name="Kcommaaccent" unicode="&#x136;" horiz-adv-x="717" 
d="M57 0v724h206v-314l2 -1l209 315h242l-239 -336l259 -388h-250l-221 355l-2 -1v-354h-206zM298 -54h167l-84 -218h-132z" />
    <glyph glyph-name="kcommaaccent" unicode="&#x137;" horiz-adv-x="619" 
d="M53 0v764h198v-474l2 -1l138 203h218l-164 -220l171 -272h-226l-137 242l-2 -1v-241h-198zM249 -54h167l-84 -218h-132z" />
    <glyph glyph-name="kgreenlandic" unicode="&#x138;" horiz-adv-x="619" 
d="M53 0v492h198v-202l2 -1l138 203h218l-164 -220l171 -272h-226l-137 242l-2 -1v-241h-198z" />
    <glyph glyph-name="Lacute" unicode="&#x139;" horiz-adv-x="579" 
d="M57 0v724h206v-550h302v-174h-508zM332 959l-120 -164h-128l88 164h160z" />
    <glyph glyph-name="lacute" unicode="&#x13a;" horiz-adv-x="304" 
d="M53 0v764h198v-764h-198zM287 990l-120 -164h-128l88 164h160z" />
    <glyph glyph-name="Lcommaaccent" unicode="&#x13b;" horiz-adv-x="579" 
d="M57 0v724h206v-550h302v-174h-508zM243 -54h167l-84 -218h-132z" />
    <glyph glyph-name="lcommaaccent" unicode="&#x13c;" horiz-adv-x="304" 
d="M53 0v764h198v-764h-198zM92 -54h167l-84 -218h-132z" />
    <glyph glyph-name="Lcaron" unicode="&#x13d;" horiz-adv-x="579" 
d="M57 0v724h206v-550h302v-174h-508zM322 490l60 290h162l-101 -290h-121z" />
    <glyph glyph-name="lcaron" unicode="&#x13e;" horiz-adv-x="475" 
d="M53 0v764h198v-764h-198zM335 764h167l-84 -218h-132z" />
    <glyph glyph-name="Ldot" unicode="&#x13f;" horiz-adv-x="579" 
d="M57 0v724h206v-550h302v-174h-508zM335 418q0 44 31.5 75.5t76.5 31.5t76.5 -31.5t31.5 -75.5t-31.5 -75.5t-76.5 -31.5t-76.5 31.5t-31.5 75.5z" />
    <glyph glyph-name="ldot" unicode="&#x140;" horiz-adv-x="472" 
d="M53 0v764h198v-764h-198zM388 225q-38 0 -65 26.5t-27 64.5t27 64.5t65 26.5t65 -26.5t27 -64.5t-27 -64.5t-65 -26.5z" />
    <glyph glyph-name="Lslash" unicode="&#x141;" horiz-adv-x="593" 
d="M71 0v216l-79 -52v168l79 52v340h206v-205l120 79v-168l-120 -79v-177h302v-174h-508z" />
    <glyph glyph-name="lslash" unicode="&#x142;" horiz-adv-x="329" 
d="M66 0v229l-78 -51v168l78 51v367h198v-237l78 51v-168l-78 -51v-359h-198z" />
    <glyph glyph-name="Nacute" unicode="&#x143;" horiz-adv-x="808" 
d="M558 0l-192 262q-56 76 -111 155l-2 -1q2 -122 2 -184v-232h-198v724h193l192 -262q56 -76 111 -155l2 1q-2 122 -2 184v232h198v-724h-193zM540 959l-120 -164h-128l88 164h160z" />
    <glyph glyph-name="nacute" unicode="&#x144;" horiz-adv-x="617" 
d="M53 0v492h194v-38l2 -1q67 50 143 50q77 0 126 -47q48 -46 48 -147v-309h-198v279q0 33 -14 47t-38 14q-37 0 -65 -26v-314h-198zM444 727l-120 -164h-128l88 164h160z" />
    <glyph glyph-name="Ncommaaccent" unicode="&#x145;" horiz-adv-x="808" 
d="M558 0l-192 262q-56 76 -111 155l-2 -1q2 -122 2 -184v-232h-198v724h193l192 -262q56 -76 111 -155l2 1q-2 122 -2 184v232h198v-724h-193zM344 -54h167l-84 -218h-132z" />
    <glyph glyph-name="ncommaaccent" unicode="&#x146;" horiz-adv-x="617" 
d="M53 0v492h194v-38l2 -1q67 50 143 50q77 0 126 -47q48 -46 48 -147v-309h-198v279q0 33 -14 47t-38 14q-37 0 -65 -26v-314h-198zM248 -54h167l-84 -218h-132z" />
    <glyph glyph-name="Ncaron" unicode="&#x147;" horiz-adv-x="808" 
d="M558 0l-192 262q-56 76 -111 155l-2 -1q2 -122 2 -184v-232h-198v724h193l192 -262q56 -76 111 -155l2 1q-2 122 -2 184v232h198v-724h-193zM593 959l-121 -164h-135l-121 164h121l67 -83l68 83h121z" />
    <glyph glyph-name="ncaron" unicode="&#x148;" horiz-adv-x="617" 
d="M53 0v492h194v-38l2 -1q67 50 143 50q77 0 126 -47q48 -46 48 -147v-309h-198v279q0 33 -14 47t-38 14q-37 0 -65 -26v-314h-198zM497 727l-121 -164h-135l-121 164h121l67 -83l68 83h121z" />
    <glyph glyph-name="napostrophe" unicode="&#x149;" horiz-adv-x="617" 
d="M53 0v492h194v-38l2 -1q67 50 143 50q77 0 126 -47q48 -46 48 -147v-309h-198v279q0 33 -14 47t-38 14q-37 0 -65 -26v-314h-198zM100 772h167l-84 -218h-132z" />
    <glyph glyph-name="Eng" unicode="&#x14a;" horiz-adv-x="808" 
d="M751 28q0 -136 -59 -193q-66 -66 -186 -66q-57 0 -109 18v179q50 -18 88 -18q34 0 46.5 16.5t13.5 52.5l-179 245q-56 76 -111 155l-2 -1q2 -122 2 -184v-232h-198v724h193l192 -262q56 -76 111 -155l2 1q-2 122 -2 184v232h198v-696z" />
    <glyph glyph-name="eng" unicode="&#x14b;" horiz-adv-x="617" 
d="M368 -9v288q0 33 -14 47t-38 14q-37 0 -65 -26v-314h-198v492h194v-38l2 -1q67 50 143 50q77 0 126 -47q48 -46 48 -147v-309q0 -71 -13 -111t-41 -66q-60 -54 -174 -54q-41 0 -74 6v158q25 -5 49 -5q32 0 43.5 13.5t11.5 49.5z" />
    <glyph glyph-name="Omacron" unicode="&#x14c;" horiz-adv-x="838" 
d="M32 362q0 157 112 265t275 108t275 -108t112 -265t-112 -265t-275 -108t-275 108t-112 265zM238 362q0 -79 52.5 -133.5t128.5 -54.5t128.5 54.5t52.5 133.5t-52.5 133.5t-128.5 54.5t-128.5 -54.5t-52.5 -133.5zM256 817v120h326v-120h-326z" />
    <glyph glyph-name="omacron" unicode="&#x14d;" 
d="M24 246q0 110 80.5 183.5t203.5 73.5t203.5 -73.5t80.5 -183.5t-80.5 -183.5t-203.5 -73.5t-203.5 73.5t-80.5 183.5zM220 246q0 -39 25 -65.5t63 -26.5t63 26.5t25 65.5t-25 65.5t-63 26.5t-63 -26.5t-25 -65.5zM145 585v120h326v-120h-326z" />
    <glyph glyph-name="Obreve" unicode="&#x14e;" horiz-adv-x="838" 
d="M32 362q0 157 112 265t275 108t275 -108t112 -265t-112 -265t-275 -108t-275 108t-112 265zM238 362q0 -79 52.5 -133.5t128.5 -54.5t128.5 54.5t52.5 133.5t-52.5 133.5t-128.5 54.5t-128.5 -54.5t-52.5 -133.5zM419 793q-80 0 -126 44t-48 122h106q4 -74 68 -74t68 74
h106q-2 -78 -48 -122t-126 -44z" />
    <glyph glyph-name="obreve" unicode="&#x14f;" 
d="M24 246q0 110 80.5 183.5t203.5 73.5t203.5 -73.5t80.5 -183.5t-80.5 -183.5t-203.5 -73.5t-203.5 73.5t-80.5 183.5zM220 246q0 -39 25 -65.5t63 -26.5t63 26.5t25 65.5t-25 65.5t-63 26.5t-63 -26.5t-25 -65.5zM308 561q-80 0 -126 44t-48 122h106q4 -74 68 -74t68 74
h106q-2 -78 -48 -122t-126 -44z" />
    <glyph glyph-name="Ohungarumlaut" unicode="&#x150;" horiz-adv-x="838" 
d="M32 362q0 157 112 265t275 108t275 -108t112 -265t-112 -265t-275 -108t-275 108t-112 265zM238 362q0 -79 52.5 -133.5t128.5 -54.5t128.5 54.5t52.5 133.5t-52.5 133.5t-128.5 54.5t-128.5 -54.5t-52.5 -133.5zM421 795l68 164h131l-93 -164h-106zM240 795l68 164h131
l-93 -164h-106z" />
    <glyph glyph-name="ohungarumlaut" unicode="&#x151;" 
d="M24 246q0 110 80.5 183.5t203.5 73.5t203.5 -73.5t80.5 -183.5t-80.5 -183.5t-203.5 -73.5t-203.5 73.5t-80.5 183.5zM220 246q0 -39 25 -65.5t63 -26.5t63 26.5t25 65.5t-25 65.5t-63 26.5t-63 -26.5t-25 -65.5zM310 563l68 164h131l-93 -164h-106zM129 563l68 164h131
l-93 -164h-106z" />
    <glyph glyph-name="OE" unicode="&#x152;" horiz-adv-x="953" 
d="M156 83q-124 93 -124 279q0 168 103 262q111 100 359 100h412v-174h-258v-92h217v-164h-217v-120h270v-174h-422q-230 0 -340 83zM300 215q44 -33 142 -41v376q-124 -7 -168 -63q-36 -45 -36 -124q0 -100 62 -148z" />
    <glyph glyph-name="oe" unicode="&#x153;" horiz-adv-x="933" 
d="M875 177v-150q-81 -38 -191 -38q-129 0 -196 73h-2q-76 -73 -191 -73q-118 0 -194.5 73.5t-76.5 183.5t76.5 183.5t193.5 73.5q115 0 193 -75h2q64 75 173 75q96 0 168.5 -64.5t72.5 -187.5q0 -29 -3 -50h-304q24 -70 116 -70q81 0 163 46zM220 246q0 -39 24 -65.5
t61 -26.5t61.5 26.5t24.5 65.5t-24.5 65.5t-61.5 26.5t-61 -26.5t-24 -65.5zM658 363q-25 0 -42.5 -16t-23.5 -44h133q-12 60 -67 60z" />
    <glyph glyph-name="Racute" unicode="&#x154;" horiz-adv-x="666" 
d="M57 0v724h253q131 0 203 -36q117 -57 117 -189q0 -139 -133 -195l192 -304h-233l-161 275h-32v-275h-206zM263 416h51q57 0 81 15q29 17 29 57q0 43 -35 60q-26 12 -88 12h-38v-144zM449 959l-120 -164h-128l88 164h160z" />
    <glyph glyph-name="racute" unicode="&#x155;" horiz-adv-x="432" 
d="M52 0v492h194v-53l2 -1q54 63 131 63q18 0 36 -4v-182q-27 6 -54 6q-67 0 -111 -41v-280h-198zM352 727l-120 -164h-128l88 164h160z" />
    <glyph glyph-name="Rcommaaccent" unicode="&#x156;" horiz-adv-x="666" 
d="M57 0v724h253q131 0 203 -36q117 -57 117 -189q0 -139 -133 -195l192 -304h-233l-161 275h-32v-275h-206zM263 416h51q57 0 81 15q29 17 29 57q0 43 -35 60q-26 12 -88 12h-38v-144zM253 -54h167l-84 -218h-132z" />
    <glyph glyph-name="rcommaaccent" unicode="&#x157;" horiz-adv-x="432" 
d="M52 0v492h194v-53l2 -1q54 63 131 63q18 0 36 -4v-182q-27 6 -54 6q-67 0 -111 -41v-280h-198zM91 -54h167l-84 -218h-132z" />
    <glyph glyph-name="Rcaron" unicode="&#x158;" horiz-adv-x="666" 
d="M57 0v724h253q131 0 203 -36q117 -57 117 -189q0 -139 -133 -195l192 -304h-233l-161 275h-32v-275h-206zM263 416h51q57 0 81 15q29 17 29 57q0 43 -35 60q-26 12 -88 12h-38v-144zM502 959l-121 -164h-135l-121 164h121l67 -83l68 83h121z" />
    <glyph glyph-name="rcaron" unicode="&#x159;" horiz-adv-x="432" 
d="M52 0v492h194v-53l2 -1q54 63 131 63q18 0 36 -4v-182q-27 6 -54 6q-67 0 -111 -41v-280h-198zM405 727l-121 -164h-135l-121 164h121l67 -83l68 83h121z" />
    <glyph glyph-name="Sacute" unicode="&#x15a;" horiz-adv-x="601" 
d="M60 39v193q61 -35 128 -53.5t110 -18.5q72 0 72 52q0 15 -6 25.5t-21 18t-29.5 12t-43.5 13t-50 15.5q-91 31 -138.5 79t-47.5 130q0 105 74.5 167.5t196.5 62.5q130 0 236 -53v-190q-61 34 -126.5 53t-107.5 19q-64 0 -64 -44q0 -14 6 -23t20.5 -16t28.5 -11.5t41 -12.5
t48 -15q94 -33 143 -82.5t49 -135.5q0 -108 -78 -171.5t-205 -63.5q-130 0 -236 50zM436 959l-120 -164h-128l88 164h160z" />
    <glyph glyph-name="sacute" unicode="&#x15b;" horiz-adv-x="504" 
d="M47 29v154q52 -28 108.5 -42t91.5 -14q36 0 36 20q0 8 -5 12.5t-16 8t-23 5.5t-33.5 6.5t-40.5 9.5q-138 39 -138 144q1 78 65 124t164 46q109 0 202 -40v-154q-52 27 -107 41.5t-88 14.5q-34 0 -34 -19q0 -11 10.5 -16t45 -11t60.5 -13q72 -21 106 -55t34 -89
q-1 -81 -66.5 -127t-168.5 -46q-112 0 -203 40zM388 727l-120 -164h-128l88 164h160z" />
    <glyph glyph-name="Scircumflex" unicode="&#x15c;" horiz-adv-x="601" 
d="M60 39v193q61 -35 128 -53.5t110 -18.5q72 0 72 52q0 15 -6 25.5t-21 18t-29.5 12t-43.5 13t-50 15.5q-91 31 -138.5 79t-47.5 130q0 105 74.5 167.5t196.5 62.5q130 0 236 -53v-190q-61 34 -126.5 53t-107.5 19q-64 0 -64 -44q0 -14 6 -23t20.5 -16t28.5 -11.5t41 -12.5
t48 -15q94 -33 143 -82.5t49 -135.5q0 -108 -78 -171.5t-205 -63.5q-130 0 -236 50zM111 795l122 164h134l122 -164h-121l-68 83l-68 -83h-121z" />
    <glyph glyph-name="scircumflex" unicode="&#x15d;" horiz-adv-x="504" 
d="M47 29v154q52 -28 108.5 -42t91.5 -14q36 0 36 20q0 8 -5 12.5t-16 8t-23 5.5t-33.5 6.5t-40.5 9.5q-138 39 -138 144q1 78 65 124t164 46q109 0 202 -40v-154q-52 27 -107 41.5t-88 14.5q-34 0 -34 -19q0 -11 10.5 -16t45 -11t60.5 -13q72 -21 106 -55t34 -89
q-1 -81 -66.5 -127t-168.5 -46q-112 0 -203 40zM63 563l122 164h134l122 -164h-121l-68 83l-68 -83h-121z" />
    <glyph glyph-name="Scedilla" unicode="&#x15e;" horiz-adv-x="601" 
d="M240 -89l25 79q-118 7 -205 49v193q61 -35 128 -53.5t110 -18.5q72 0 72 52q0 15 -6 25.5t-21 18t-29.5 12t-43.5 13t-50 15.5q-91 31 -138.5 79t-47.5 130q0 105 74.5 167.5t196.5 62.5q130 0 236 -53v-190q-61 34 -126.5 53t-107.5 19q-64 0 -64 -44q0 -14 6 -23
t20.5 -16t28.5 -11.5t41 -12.5t48 -15q94 -33 143 -82.5t49 -135.5q0 -101 -67.5 -163t-180.5 -70l-7 -24q41 -8 64 -33t23 -60q0 -43 -32.5 -69t-85.5 -26q-47 0 -89 20l23 70q36 -19 65 -19q36 0 36 23q0 35 -88 38z" />
    <glyph glyph-name="scedilla" unicode="&#x15f;" horiz-adv-x="504" 
d="M192 -89l25 79q-97 7 -170 39v154q52 -28 108.5 -42t91.5 -14q36 0 36 20q0 8 -5 12.5t-16 8t-23 5.5t-33.5 6.5t-40.5 9.5q-138 39 -138 144q1 78 65 124t164 46q109 0 202 -40v-154q-52 27 -107 41.5t-88 14.5q-34 0 -34 -19q0 -11 10.5 -16t45 -11t60.5 -13
q72 -21 106 -55t34 -89q-1 -74 -56.5 -119t-145.5 -52l-7 -24q41 -8 64 -33t23 -60q0 -43 -32.5 -69t-85.5 -26q-47 0 -89 20l23 70q36 -19 65 -19q36 0 36 23q0 35 -88 38z" />
    <glyph glyph-name="Scaron" unicode="&#x160;" horiz-adv-x="601" 
d="M60 39v193q61 -35 128 -53.5t110 -18.5q72 0 72 52q0 15 -6 25.5t-21 18t-29.5 12t-43.5 13t-50 15.5q-91 31 -138.5 79t-47.5 130q0 105 74.5 167.5t196.5 62.5q130 0 236 -53v-190q-61 34 -126.5 53t-107.5 19q-64 0 -64 -44q0 -14 6 -23t20.5 -16t28.5 -11.5t41 -12.5
t48 -15q94 -33 143 -82.5t49 -135.5q0 -108 -78 -171.5t-205 -63.5q-130 0 -236 50zM489 959l-121 -164h-135l-121 164h121l67 -83l68 83h121z" />
    <glyph glyph-name="scaron" unicode="&#x161;" horiz-adv-x="504" 
d="M47 29v154q52 -28 108.5 -42t91.5 -14q36 0 36 20q0 8 -5 12.5t-16 8t-23 5.5t-33.5 6.5t-40.5 9.5q-138 39 -138 144q1 78 65 124t164 46q109 0 202 -40v-154q-52 27 -107 41.5t-88 14.5q-34 0 -34 -19q0 -11 10.5 -16t45 -11t60.5 -13q72 -21 106 -55t34 -89
q-1 -81 -66.5 -127t-168.5 -46q-112 0 -203 40zM441 727l-121 -164h-135l-121 164h121l67 -83l68 83h121z" />
    <glyph glyph-name="Tcommaaccent" unicode="&#x162;" horiz-adv-x="678" 
d="M236 0v550h-230v174h666v-174h-230v-550h-71l-11 -33q41 -8 64 -33t23 -60q0 -43 -32.5 -69t-85.5 -26q-47 0 -89 20l23 70q36 -19 65 -19q36 0 36 23q0 35 -88 38l28 89h-68z" />
    <glyph glyph-name="tcommaaccent" unicode="&#x163;" horiz-adv-x="432" 
d="M186 -89l27 86q-50 13 -79 43q-48 48 -48 155v141h-73v156h73v123l198 34v-157h118v-156h-118v-127q0 -61 49 -61q27 0 69 16v-151q-52 -24 -125 -24l-7 -22q41 -8 64 -33t23 -60q0 -43 -32.5 -69t-85.5 -26q-47 0 -89 20l23 70q36 -19 65 -19q36 0 36 23q0 35 -88 38z
" />
    <glyph glyph-name="Tcaron" unicode="&#x164;" horiz-adv-x="678" 
d="M236 0v550h-230v174h666v-174h-230v-550h-206zM528 959l-121 -164h-135l-121 164h121l67 -83l68 83h121z" />
    <glyph glyph-name="tcaron" unicode="&#x165;" horiz-adv-x="432" 
d="M134 40q-48 48 -48 155v141h-73v156h73v123l198 34v-157h118v-156h-118v-127q0 -61 49 -61q27 0 69 16v-151q-52 -24 -123 -24q-94 0 -145 51zM360 772h167l-84 -218h-132z" />
    <glyph glyph-name="Tbar" unicode="&#x166;" horiz-adv-x="678" 
d="M129 268v136h107v146h-230v174h666v-174h-230v-146h107v-136h-107v-268h-206v268h-107z" />
    <glyph glyph-name="tbar" unicode="&#x167;" horiz-adv-x="442" 
d="M407 197h-118q0 -61 49 -61q27 0 69 16v-139q-52 -24 -123 -24q-94 0 -145 51q-48 48 -48 157h-73v124h73v47h-73v124h73v123l198 34v-157h118v-124h-118v-47h118v-124z" />
    <glyph glyph-name="Utilde" unicode="&#x168;" horiz-adv-x="772" 
d="M108 107q-57 79 -57 236v381h206v-369q0 -100 28 -139q34 -48 105 -48q65 0 99 42q34 41 34 145v369h198v-381q0 -158 -61 -239q-41 -54 -112.5 -84.5t-161.5 -30.5q-91 0 -164 30.5t-114 87.5zM379 819q-51 23 -74 23q-47 0 -89 -50l-2 1v124q36 43 90 43q36 0 89 -24
q51 -23 74 -23q47 0 89 50l2 -1v-124q-36 -43 -90 -43q-36 0 -89 24z" />
    <glyph glyph-name="utilde" unicode="&#x169;" horiz-adv-x="615" 
d="M101 34q-51 47 -51 152v306h198v-280q0 -33 14 -47t37 -14q36 0 66 28v313h198v-492h-194v40l-2 1q-65 -52 -140 -52q-76 0 -126 45zM300 587q-51 23 -74 23q-47 0 -89 -50l-2 1v124q36 43 90 43q36 0 89 -24q51 -23 74 -23q47 0 89 50l2 -1v-124q-36 -43 -90 -43
q-36 0 -89 24z" />
    <glyph glyph-name="Umacron" unicode="&#x16a;" horiz-adv-x="772" 
d="M108 107q-57 79 -57 236v381h206v-369q0 -100 28 -139q34 -48 105 -48q65 0 99 42q34 41 34 145v369h198v-381q0 -158 -61 -239q-41 -54 -112.5 -84.5t-161.5 -30.5q-91 0 -164 30.5t-114 87.5zM223 817v120h326v-120h-326z" />
    <glyph glyph-name="umacron" unicode="&#x16b;" horiz-adv-x="615" 
d="M101 34q-51 47 -51 152v306h198v-280q0 -33 14 -47t37 -14q36 0 66 28v313h198v-492h-194v40l-2 1q-65 -52 -140 -52q-76 0 -126 45zM144 585v120h326v-120h-326z" />
    <glyph glyph-name="Ubreve" unicode="&#x16c;" horiz-adv-x="772" 
d="M108 107q-57 79 -57 236v381h206v-369q0 -100 28 -139q34 -48 105 -48q65 0 99 42q34 41 34 145v369h198v-381q0 -158 -61 -239q-41 -54 -112.5 -84.5t-161.5 -30.5q-91 0 -164 30.5t-114 87.5zM386 793q-80 0 -126 44t-48 122h106q4 -74 68 -74t68 74h106
q-2 -78 -48 -122t-126 -44z" />
    <glyph glyph-name="ubreve" unicode="&#x16d;" horiz-adv-x="615" 
d="M101 34q-51 47 -51 152v306h198v-280q0 -33 14 -47t37 -14q36 0 66 28v313h198v-492h-194v40l-2 1q-65 -52 -140 -52q-76 0 -126 45zM307 561q-80 0 -126 44t-48 122h106q4 -74 68 -74t68 74h106q-2 -78 -48 -122t-126 -44z" />
    <glyph glyph-name="Uring" unicode="&#x16e;" horiz-adv-x="772" 
d="M108 107q-57 79 -57 236v381h206v-369q0 -100 28 -139q34 -48 105 -48q65 0 99 42q34 41 34 145v369h198v-381q0 -158 -61 -239q-41 -54 -112.5 -84.5t-161.5 -30.5q-91 0 -164 30.5t-114 87.5zM386 766q-60 0 -99 37.5t-39 93.5t39 93.5t99 37.5t99 -37.5t39 -93.5
t-39 -93.5t-99 -37.5zM386 840q24 0 39 16t15 41t-15 41t-39 16t-39 -16t-15 -41t15 -41t39 -16z" />
    <glyph glyph-name="uring" unicode="&#x16f;" horiz-adv-x="615" 
d="M101 34q-51 47 -51 152v306h198v-280q0 -33 14 -47t37 -14q36 0 66 28v313h198v-492h-194v40l-2 1q-65 -52 -140 -52q-76 0 -126 45zM307 534q-60 0 -99 37.5t-39 93.5t39 93.5t99 37.5t99 -37.5t39 -93.5t-39 -93.5t-99 -37.5zM307 608q24 0 39 16t15 41t-15 41t-39 16
t-39 -16t-15 -41t15 -41t39 -16z" />
    <glyph glyph-name="Uhungarumlaut" unicode="&#x170;" horiz-adv-x="772" 
d="M108 107q-57 79 -57 236v381h206v-369q0 -100 28 -139q34 -48 105 -48q65 0 99 42q34 41 34 145v369h198v-381q0 -158 -61 -239q-41 -54 -112.5 -84.5t-161.5 -30.5q-91 0 -164 30.5t-114 87.5zM388 795l68 164h131l-93 -164h-106zM207 795l68 164h131l-93 -164h-106z
" />
    <glyph glyph-name="uhungarumlaut" unicode="&#x171;" horiz-adv-x="615" 
d="M101 34q-51 47 -51 152v306h198v-280q0 -33 14 -47t37 -14q36 0 66 28v313h198v-492h-194v40l-2 1q-65 -52 -140 -52q-76 0 -126 45zM309 563l68 164h131l-93 -164h-106zM128 563l68 164h131l-93 -164h-106z" />
    <glyph glyph-name="Uogonek" unicode="&#x172;" horiz-adv-x="772" 
d="M257 -118q0 62 57 110l-1 2q-141 23 -205 113q-57 79 -57 236v381h206v-369q0 -100 28 -139q34 -48 105 -48q65 0 99 42q34 41 34 145v369h198v-381q0 -158 -61 -239q-54 -71 -158 -101q-87 -43 -87 -90q0 -32 40 -32q24 0 56 8v-106q-44 -14 -96 -14q-72 0 -115 31
t-43 82z" />
    <glyph glyph-name="uogonek" unicode="&#x173;" horiz-adv-x="615" 
d="M309 -119q0 69 60 119v40l-2 1q-65 -52 -140 -52q-76 0 -126 45q-51 47 -51 152v306h198v-280q0 -33 14 -47t37 -14q36 0 66 28v313h198v-492q-52 -19 -74 -43t-22 -44q0 -32 41 -32q23 0 55 8v-106q-44 -14 -95 -14q-72 0 -115.5 31t-43.5 81z" />
    <glyph glyph-name="Wcircumflex" unicode="&#x174;" horiz-adv-x="1086" 
d="M223 0l-218 724h216l70 -257q26 -93 49 -187h2q23 87 53 188l75 256h151l73 -255q33 -117 52 -189h2q25 92 53 192l72 252h208l-221 -724h-218l-50 175q-34 119 -51 188h-2q-26 -99 -53 -191l-50 -172h-213zM356 795l122 164h134l122 -164h-121l-68 83l-68 -83h-121z" />
    <glyph glyph-name="wcircumflex" unicode="&#x175;" horiz-adv-x="820" 
d="M164 0l-166 492h201l33 -112q21 -70 40 -146h2q21 87 37 146l31 112h151l31 -112q21 -78 37 -146h2q12 48 40 146l33 112h186l-167 -492h-179l-22 79q-24 86 -41 157h-2q-13 -52 -41 -157l-22 -79h-184zM229 563l122 164h134l122 -164h-121l-68 83l-68 -83h-121z" />
    <glyph glyph-name="Ycircumflex" unicode="&#x176;" horiz-adv-x="737" 
d="M266 0v324l-281 400h240l66 -102q43 -65 80 -126h2q52 84 78 124l67 104h234l-280 -396v-328h-206zM182 795l122 164h134l122 -164h-121l-68 83l-68 -83h-121z" />
    <glyph glyph-name="ycircumflex" unicode="&#x177;" horiz-adv-x="565" 
d="M257 -220h-198l132 274l-196 438h204l87 -237h2l95 237h187zM100 563l122 164h134l122 -164h-121l-68 83l-68 -83h-121z" />
    <glyph glyph-name="Ydieresis" unicode="&#x178;" horiz-adv-x="737" 
d="M266 0v324l-281 400h240l66 -102q43 -65 80 -126h2q52 84 78 124l67 104h234l-280 -396v-328h-206zM170 877q0 35 25 59.5t60 24.5t60 -24.5t25 -59.5t-25 -59.5t-60 -24.5t-60 24.5t-25 59.5zM402 877q0 35 25 59.5t60 24.5t60 -24.5t25 -59.5t-25 -59.5t-60 -24.5
t-60 24.5t-25 59.5z" />
    <glyph glyph-name="Zacute" unicode="&#x179;" horiz-adv-x="673" 
d="M641 0h-618l-1 2l298 546l-1 2h-267v174h595l1 -2l-298 -546l1 -2h290v-174zM476 959l-120 -164h-128l88 164h160z" />
    <glyph glyph-name="zacute" unicode="&#x17a;" horiz-adv-x="524" 
d="M495 0h-481l-1 2l193 332l-1 2h-169v156h464l1 -2l-193 -332l1 -2h186v-156zM399 727l-120 -164h-128l88 164h160z" />
    <glyph glyph-name="Zdotaccent" unicode="&#x17b;" horiz-adv-x="673" 
d="M641 0h-618l-1 2l298 546l-1 2h-267v174h595l1 -2l-298 -546l1 -2h290v-174zM340 786q-38 0 -65 26.5t-27 64.5t27 64.5t65 26.5t65 -26.5t27 -64.5t-27 -64.5t-65 -26.5z" />
    <glyph glyph-name="zdotaccent" unicode="&#x17c;" horiz-adv-x="524" 
d="M495 0h-481l-1 2l193 332l-1 2h-169v156h464l1 -2l-193 -332l1 -2h186v-156zM263 554q-38 0 -65 26.5t-27 64.5t27 64.5t65 26.5t65 -26.5t27 -64.5t-27 -64.5t-65 -26.5z" />
    <glyph glyph-name="Zcaron" unicode="&#x17d;" horiz-adv-x="673" 
d="M641 0h-618l-1 2l298 546l-1 2h-267v174h595l1 -2l-298 -546l1 -2h290v-174zM529 959l-121 -164h-135l-121 164h121l67 -83l68 83h121z" />
    <glyph glyph-name="zcaron" unicode="&#x17e;" horiz-adv-x="524" 
d="M495 0h-481l-1 2l193 332l-1 2h-169v156h464l1 -2l-193 -332l1 -2h186v-156zM452 727l-121 -164h-135l-121 164h121l67 -83l68 83h121z" />
    <glyph glyph-name="longs" unicode="&#x17f;" horiz-adv-x="353" 
d="M81 0v336h-68v156h68v59q0 121 61 174q57 50 158 50q56 0 90 -12v-155q-42 8 -65 8q-26 0 -36 -14t-10 -43v-559h-198z" />
    <glyph glyph-name="florin" unicode="&#x192;" horiz-adv-x="566" 
d="M110 336l28 156h82l14 76q36 198 259 198q41 0 69 -6v-162q-39 9 -72 9q-26 0 -41.5 -12t-21.5 -45l-11 -58h106l-28 -156h-105l-66 -369q-11 -61 -36 -102t-61.5 -61t-73 -27.5t-82.5 -7.5q-36 0 -69 7v163q44 -11 69 -11q27 0 41 12.5t19 43.5l62 352h-82z" />
    <glyph glyph-name="AEacute" unicode="&#x1fc;" horiz-adv-x="985" 
d="M-16 0l386 724h568v-174h-258v-92h217v-164h-217v-120h270v-174h-476v148h-206l-75 -148h-209zM384 376l-39 -76h129v70q0 62 2 188l-2 1q-43 -91 -90 -183zM792 959l-120 -164h-128l88 164h160z" />
    <glyph glyph-name="aeacute" unicode="&#x1fd;" horiz-adv-x="828" 
d="M770 177v-150q-81 -38 -191 -38q-131 0 -209 64q-64 -64 -168 -64q-66 0 -115 32q-64 43 -64 117q0 76 58 118q50 37 138 37q30 0 70 -7v6q0 22 -14 36q-19 18 -64 18q-62 0 -140 -33v154q78 36 178 36q112 0 168 -49h2q58 49 138 49q96 0 168.5 -64.5t72.5 -187.5
q0 -29 -3 -50h-304q24 -70 116 -70q81 0 163 46zM553 363q-25 0 -42.5 -16t-23.5 -44h133q-12 60 -67 60zM295 188q-15 3 -32 3q-48 0 -48 -36q0 -17 12.5 -26t30.5 -9q27 0 51 19q-10 25 -14 49zM595 727l-120 -164h-128l88 164h160z" />
    <glyph glyph-name="Oslashacute" unicode="&#x1fe;" horiz-adv-x="838" 
d="M238 362q0 -58 30 -105l233 273q-38 20 -82 20q-76 0 -128.5 -54.5t-52.5 -133.5zM32 362q0 157 112 265t275 108q113 0 208 -57l59 70l73 -59l-58 -69q105 -105 105 -258q0 -157 -112 -265t-275 -108q-113 0 -208 57l-59 -70l-73 59l58 69q-105 105 -105 258zM600 362
q0 58 -30 105l-233 -273q38 -20 82 -20q76 0 128.5 54.5t52.5 133.5zM555 959l-120 -164h-128l88 164h160z" />
    <glyph glyph-name="oslashacute" unicode="&#x1ff;" 
d="M220 246q0 -24 9 -43l112 129q-15 6 -33 6q-38 0 -63 -26.5t-25 -65.5zM24 246q0 110 80.5 183.5t203.5 73.5q83 0 150 -36l45 51l49 -40l-42 -48q82 -73 82 -184q0 -110 -80.5 -183.5t-203.5 -73.5q-83 0 -150 36l-45 -51l-49 40l42 48q-82 73 -82 184zM396 246
q0 24 -9 43l-112 -129q15 -6 33 -6q38 0 63 26.5t25 65.5zM444 727l-120 -164h-128l88 164h160z" />
    <glyph glyph-name="Scommaaccent" unicode="&#x218;" horiz-adv-x="601" 
d="M60 39v193q61 -35 128 -53.5t110 -18.5q72 0 72 52q0 15 -6 25.5t-21 18t-29.5 12t-43.5 13t-50 15.5q-91 31 -138.5 79t-47.5 130q0 105 74.5 167.5t196.5 62.5q130 0 236 -53v-190q-61 34 -126.5 53t-107.5 19q-64 0 -64 -44q0 -14 6 -23t20.5 -16t28.5 -11.5t41 -12.5
t48 -15q94 -33 143 -82.5t49 -135.5q0 -108 -78 -171.5t-205 -63.5q-130 0 -236 50zM240 -54h167l-84 -218h-132z" />
    <glyph glyph-name="scommaaccent" unicode="&#x219;" horiz-adv-x="504" 
d="M47 29v154q52 -28 108.5 -42t91.5 -14q36 0 36 20q0 8 -5 12.5t-16 8t-23 5.5t-33.5 6.5t-40.5 9.5q-138 39 -138 144q1 78 65 124t164 46q109 0 202 -40v-154q-52 27 -107 41.5t-88 14.5q-34 0 -34 -19q0 -11 10.5 -16t45 -11t60.5 -13q72 -21 106 -55t34 -89
q-1 -81 -66.5 -127t-168.5 -46q-112 0 -203 40zM192 -54h167l-84 -218h-132z" />
    <glyph glyph-name="uni021A" unicode="&#x21a;" horiz-adv-x="678" 
d="M236 0v550h-230v174h666v-174h-230v-550h-206zM279 -54h167l-84 -218h-132z" />
    <glyph glyph-name="uni021B" unicode="&#x21b;" horiz-adv-x="432" 
d="M134 40q-48 48 -48 155v141h-73v156h73v123l198 34v-157h118v-156h-118v-127q0 -61 49 -61q27 0 69 16v-151q-52 -24 -123 -24q-94 0 -145 51zM176 -54h167l-84 -218h-132z" />
    <glyph glyph-name="dotlessj" unicode="&#x237;" horiz-adv-x="309" 
d="M58 -9v501h198v-492q0 -71 -13 -111t-41 -66q-60 -54 -174 -54q-41 0 -74 6v158q25 -5 49 -5q32 0 43.5 13.5t11.5 49.5z" />
    <glyph glyph-name="circumflex" unicode="&#x2c6;" horiz-adv-x="560" 
d="M91 563l122 164h134l122 -164h-121l-68 83l-68 -83h-121z" />
    <glyph glyph-name="caron" unicode="&#x2c7;" horiz-adv-x="560" 
d="M469 727l-121 -164h-135l-121 164h121l67 -83l68 83h121z" />
    <glyph glyph-name="breve" unicode="&#x2d8;" horiz-adv-x="560" 
d="M280 561q-80 0 -126 44t-48 122h106q4 -74 68 -74t68 74h106q-2 -78 -48 -122t-126 -44z" />
    <glyph glyph-name="dotaccent" unicode="&#x2d9;" horiz-adv-x="560" 
d="M280 554q-38 0 -65 26.5t-27 64.5t27 64.5t65 26.5t65 -26.5t27 -64.5t-27 -64.5t-65 -26.5z" />
    <glyph glyph-name="ring" unicode="&#x2da;" horiz-adv-x="560" 
d="M280 534q-60 0 -99 37.5t-39 93.5t39 93.5t99 37.5t99 -37.5t39 -93.5t-39 -93.5t-99 -37.5zM280 608q24 0 39 16t15 41t-15 41t-39 16t-39 -16t-15 -41t15 -41t39 -16z" />
    <glyph glyph-name="ogonek" unicode="&#x2db;" horiz-adv-x="560" 
d="M136 -118q0 87 109 146l145 -20q-96 -47 -96 -95q0 -32 40 -32q24 0 56 8v-106q-44 -14 -96 -14q-72 0 -115 31t-43 82z" />
    <glyph glyph-name="tilde" unicode="&#x2dc;" horiz-adv-x="560" 
d="M273 587q-51 23 -74 23q-47 0 -89 -50l-2 1v124q36 43 90 43q36 0 89 -24q51 -23 74 -23q47 0 89 50l2 -1v-124q-36 -43 -90 -43q-36 0 -89 24z" />
    <glyph glyph-name="hungarumlaut" unicode="&#x2dd;" horiz-adv-x="560" 
d="M282 563l68 164h131l-93 -164h-106zM101 563l68 164h131l-93 -164h-106z" />
    <glyph glyph-name="uni0394" unicode="&#x394;" horiz-adv-x="754" 
d="M39 0v122l234 602h208l234 -602v-122h-676zM263 174h223l-50 145q-29 84 -60 179h-2q-33 -101 -61 -181z" />
    <glyph glyph-name="uni03A9" unicode="&#x3a9;" horiz-adv-x="814" 
d="M24 0v174h99l1 2q-88 95 -88 229q0 139 105 234.5t266 95.5t266 -95.5t105 -234.5q0 -134 -88 -229l1 -2h99v-174h-342v129q121 107 121 249q0 79 -41.5 128.5t-120.5 49.5t-120.5 -49.5t-41.5 -128.5q0 -142 121 -249v-129h-342z" />
    <glyph glyph-name="uni03BC" unicode="&#x3bc;" 
d="M256 -220h-205v712h198v-280q0 -33 14 -47t37 -14q36 0 66 28v313h198v-492h-194v40l-2 1q-62 -49 -134 -52z" />
    <glyph glyph-name="pi" unicode="&#x3c0;" horiz-adv-x="681" 
d="M91 0q31 119 33 324q-65 -12 -105 -32v156q91 44 255 44h398l-28 -156h-60v-336h-198v336h-64q0 -211 -34 -336h-197z" />
    <glyph glyph-name="Wgrave" unicode="&#x1e80;" horiz-adv-x="1086" 
d="M223 0l-218 724h216l70 -257q26 -93 49 -187h2q23 87 53 188l75 256h151l73 -255q33 -117 52 -189h2q25 92 53 192l72 252h208l-221 -724h-218l-50 175q-34 119 -51 188h-2q-26 -99 -53 -191l-50 -172h-213zM529 795l-120 164h160l88 -164h-128z" />
    <glyph glyph-name="wgrave" unicode="&#x1e81;" horiz-adv-x="820" 
d="M164 0l-166 492h201l33 -112q21 -70 40 -146h2q21 87 37 146l31 112h151l31 -112q21 -78 37 -146h2q12 48 40 146l33 112h186l-167 -492h-179l-22 79q-24 86 -41 157h-2q-13 -52 -41 -157l-22 -79h-184zM402 563l-120 164h160l88 -164h-128z" />
    <glyph glyph-name="Wacute" unicode="&#x1e82;" horiz-adv-x="1086" 
d="M223 0l-218 724h216l70 -257q26 -93 49 -187h2q23 87 53 188l75 256h151l73 -255q33 -117 52 -189h2q25 92 53 192l72 252h208l-221 -724h-218l-50 175q-34 119 -51 188h-2q-26 -99 -53 -191l-50 -172h-213zM681 959l-120 -164h-128l88 164h160z" />
    <glyph glyph-name="wacute" unicode="&#x1e83;" horiz-adv-x="820" 
d="M164 0l-166 492h201l33 -112q21 -70 40 -146h2q21 87 37 146l31 112h151l31 -112q21 -78 37 -146h2q12 48 40 146l33 112h186l-167 -492h-179l-22 79q-24 86 -41 157h-2q-13 -52 -41 -157l-22 -79h-184zM554 727l-120 -164h-128l88 164h160z" />
    <glyph glyph-name="Wdieresis" unicode="&#x1e84;" horiz-adv-x="1086" 
d="M223 0l-218 724h216l70 -257q26 -93 49 -187h2q23 87 53 188l75 256h151l73 -255q33 -117 52 -189h2q25 92 53 192l72 252h208l-221 -724h-218l-50 175q-34 119 -51 188h-2q-26 -99 -53 -191l-50 -172h-213zM344 877q0 35 25 59.5t60 24.5t60 -24.5t25 -59.5t-25 -59.5
t-60 -24.5t-60 24.5t-25 59.5zM576 877q0 35 25 59.5t60 24.5t60 -24.5t25 -59.5t-25 -59.5t-60 -24.5t-60 24.5t-25 59.5z" />
    <glyph glyph-name="wdieresis" unicode="&#x1e85;" horiz-adv-x="820" 
d="M164 0l-166 492h201l33 -112q21 -70 40 -146h2q21 87 37 146l31 112h151l31 -112q21 -78 37 -146h2q12 48 40 146l33 112h186l-167 -492h-179l-22 79q-24 86 -41 157h-2q-13 -52 -41 -157l-22 -79h-184zM217 645q0 35 25 59.5t60 24.5t60 -24.5t25 -59.5t-25 -59.5
t-60 -24.5t-60 24.5t-25 59.5zM449 645q0 35 25 59.5t60 24.5t60 -24.5t25 -59.5t-25 -59.5t-60 -24.5t-60 24.5t-25 59.5z" />
    <glyph glyph-name="Ygrave" unicode="&#x1ef2;" horiz-adv-x="737" 
d="M266 0v324l-281 400h240l66 -102q43 -65 80 -126h2q52 84 78 124l67 104h234l-280 -396v-328h-206zM355 795l-120 164h160l88 -164h-128z" />
    <glyph glyph-name="ygrave" unicode="&#x1ef3;" horiz-adv-x="565" 
d="M257 -220h-198l132 274l-196 438h204l87 -237h2l95 237h187zM273 563l-120 164h160l88 -164h-128z" />
    <glyph glyph-name="endash" unicode="&#x2013;" horiz-adv-x="490" 
d="M45 209v138h400v-138h-400z" />
    <glyph glyph-name="emdash" unicode="&#x2014;" horiz-adv-x="788" 
d="M30 221v114h728v-114h-728z" />
    <glyph glyph-name="quoteleft" unicode="&#x2018;" horiz-adv-x="269" 
d="M15 452l101 290h121l-60 -290h-162z" />
    <glyph glyph-name="quoteright" unicode="&#x2019;" horiz-adv-x="269" 
d="M32 452l60 290h162l-101 -290h-121z" />
    <glyph glyph-name="quotesinglbase" unicode="&#x201a;" horiz-adv-x="269" 
d="M32 -126l60 290h162l-101 -290h-121z" />
    <glyph glyph-name="quotedblleft" unicode="&#x201c;" horiz-adv-x="472" 
d="M15 452l101 290h121l-60 -290h-162zM218 452l101 290h121l-60 -290h-162z" />
    <glyph glyph-name="quotedblright" unicode="&#x201d;" horiz-adv-x="472" 
d="M32 452l60 290h162l-101 -290h-121zM235 452l60 290h162l-101 -290h-121z" />
    <glyph glyph-name="quotedblbase" unicode="&#x201e;" horiz-adv-x="472" 
d="M32 -126l60 290h162l-101 -290h-121zM235 -126l60 290h162l-101 -290h-121z" />
    <glyph glyph-name="dagger" unicode="&#x2020;" horiz-adv-x="615" 
d="M216 -220v579h-161v156h161v209h183v-209h161v-156h-161v-579h-183z" />
    <glyph glyph-name="daggerdbl" unicode="&#x2021;" horiz-adv-x="615" 
d="M55 -11v156h161v214h-161v156h161v209h183v-209h161v-156h-161v-214h161v-156h-161v-209h-183v209h-161z" />
    <glyph glyph-name="bullet" unicode="&#x2022;" horiz-adv-x="376" 
d="M53 297q0 56 39.5 95.5t95.5 39.5t95.5 -39.5t39.5 -95.5t-39.5 -95.5t-95.5 -39.5t-95.5 39.5t-39.5 95.5z" />
    <glyph glyph-name="ellipsis" unicode="&#x2026;" horiz-adv-x="918" 
d="M54 96q0 44 31.5 75.5t76.5 31.5t76.5 -31.5t31.5 -75.5t-31.5 -75.5t-76.5 -31.5t-76.5 31.5t-31.5 75.5zM351 96q0 44 31.5 75.5t76.5 31.5t76.5 -31.5t31.5 -75.5t-31.5 -75.5t-76.5 -31.5t-76.5 31.5t-31.5 75.5zM648 96q0 44 31.5 75.5t76.5 31.5t76.5 -31.5
t31.5 -75.5t-31.5 -75.5t-76.5 -31.5t-76.5 31.5t-31.5 75.5z" />
    <glyph glyph-name="perthousand" unicode="&#x2030;" horiz-adv-x="1365" 
d="M223 361q-87 0 -136.5 52t-49.5 135t49.5 135t136.5 52t136.5 -52t49.5 -135t-49.5 -135t-136.5 -52zM167 0l480 724h128l-480 -724h-128zM223 474q27 0 41.5 21t14.5 53t-14.5 53t-41.5 21t-41.5 -21t-14.5 -53t14.5 -53t41.5 -21zM956 176q0 83 49.5 135t136.5 52
t136.5 -52t49.5 -135t-49.5 -135t-136.5 -52t-136.5 52t-49.5 135zM533 176q0 83 49.5 135t136.5 52t136.5 -52t49.5 -135t-49.5 -135t-136.5 -52t-136.5 52t-49.5 135zM1086 176q0 -32 14.5 -53t41.5 -21t41.5 21t14.5 53t-14.5 53t-41.5 21t-41.5 -21t-14.5 -53zM663 176
q0 -32 14.5 -53t41.5 -21t41.5 21t14.5 53t-14.5 53t-41.5 21t-41.5 -21t-14.5 -53z" />
    <glyph glyph-name="guilsinglleft" unicode="&#x2039;" horiz-adv-x="352" 
d="M168 27l-162 219l162 219h155l-161 -219l161 -219h-155z" />
    <glyph glyph-name="guilsinglright" unicode="&#x203a;" horiz-adv-x="352" 
d="M29 27l161 219l-161 219h155l162 -219l-162 -219h-155z" />
    <glyph glyph-name="fraction" unicode="&#x2044;" horiz-adv-x="434" 
d="M62 -13h-163l473 737h163z" />
    <glyph glyph-name="four.superior" unicode="&#x2074;" horiz-adv-x="434" 
d="M208 422v77h-217l-1 2l229 355h136v-254h49v-103h-49v-77h-147zM178 618l-9 -14l1 -2h38v16q0 31 3 52l-2 1q-11 -22 -31 -53z" />
    <glyph glyph-name="Euro" unicode="&#x20ac;" horiz-adv-x="627" 
d="M16 219v122h59q-2 22 0 43h-59v122h82q38 106 128 167.5t219 61.5q75 0 137 -21v-189q-65 31 -127 31q-80 0 -125 -50h122v-122h-167q-2 -21 0 -43h167v-122h-121q45 -51 128 -51q65 0 131 33v-190q-63 -22 -141 -22q-132 0 -223 62t-128 168h-82z" />
    <glyph glyph-name="litre" unicode="&#x2113;" horiz-adv-x="409" 
d="M49 144l-33 57q56 52 80 77v258q0 102 40.5 158t102.5 56q53 0 84.5 -41.5t31.5 -113.5q0 -157 -159 -328v-66q0 -75 14.5 -105.5t46.5 -30.5q40 0 88 55l37 -48q-60 -86 -148 -86q-69 0 -103 46t-34 123v35q-43 -43 -48 -46zM196 363q85 115 85 232q0 81 -38 81
q-47 0 -47 -132v-181z" />
    <glyph glyph-name="trademark" unicode="&#x2122;" horiz-adv-x="668" 
d="M101 434v205h-77v85h251v-85h-77v-205h-97zM487 518l-23 -32l-23 32q-18 24 -39 58l-2 -1q2 -42 2 -80v-61h-93v290h90l67 -92l65 92h91v-290h-96v61q0 38 2 80l-2 1q-21 -34 -39 -58z" />
    <glyph glyph-name="Omega" unicode="&#x2126;" horiz-adv-x="814" 
d="M24 0v174h99l1 2q-88 95 -88 229q0 139 105 234.5t266 95.5t266 -95.5t105 -234.5q0 -134 -88 -229l1 -2h99v-174h-342v129q121 107 121 249q0 79 -41.5 128.5t-120.5 49.5t-120.5 -49.5t-41.5 -128.5q0 -142 121 -249v-129h-342z" />
    <glyph glyph-name="estimated" unicode="&#x212e;" horiz-adv-x="736" 
d="M166 268v-131q0 -41 35.5 -71t81 -42.5t91.5 -12.5q67 0 131.5 30.5t106.5 87.5l33 -7q-102 -139 -274 -139q-146 0 -241.5 93t-95.5 229t95.5 229.5t240.5 93.5q85 0 157.5 -32.5t122 -101.5t53.5 -162q1 -23 -4 -27.5t-28 -4.5h-473q-25 0 -28.5 -4t-3.5 -28zM198 328
h342q25 0 28.5 4t3.5 28v125q0 48 -59.5 81.5t-143.5 33.5t-143.5 -33.5t-59.5 -81.5v-125q0 -24 3.5 -28t28.5 -4z" />
    <glyph glyph-name="partialdiff" unicode="&#x2202;" horiz-adv-x="598" 
d="M9 233q0 105 71 174.5t179 69.5q67 0 124 -31l2 1q-26 175 -132 175q-59 0 -139 -40v158q92 45 195 45q138 0 207.5 -106.5t69.5 -282.5q0 -194 -82.5 -300.5t-230.5 -106.5q-126 0 -195 71t-69 173zM209 236q0 -37 21.5 -61.5t54.5 -24.5q75 0 98 137q-46 35 -95 35
q-36 0 -57.5 -24.5t-21.5 -61.5z" />
    <glyph glyph-name="Delta" unicode="&#x2206;" horiz-adv-x="754" 
d="M39 0v122l234 602h208l234 -602v-122h-676zM263 174h223l-50 145q-29 84 -60 179h-2q-33 -101 -61 -181z" />
    <glyph glyph-name="product" unicode="&#x220f;" horiz-adv-x="806" 
d="M103 -116v666h-87v174h774v-174h-87v-666h-206v666h-188v-666h-206z" />
    <glyph glyph-name="summation" unicode="&#x2211;" horiz-adv-x="636" 
d="M49 13l186 316l-175 266v129h513v-174h-271l141 -215l-162 -277h306v-174h-538v129z" />
    <glyph glyph-name="minus" unicode="&#x2212;" 
d="M56 295v134h504v-134h-504z" />
    <glyph glyph-name="radical" unicode="&#x221a;" horiz-adv-x="697" 
d="M366 156h3q43 126 74 214l184 508h148l-370 -994h-70l-200 472l-91 -36l-44 109l223 87l65 -159q34 -83 78 -201z" />
    <glyph glyph-name="infinity" unicode="&#x221e;" horiz-adv-x="754" 
d="M218 194q45 0 86 53q-40 65 -86 65q-27 0 -40.5 -16.5t-13.5 -42.5t13.5 -42.5t40.5 -16.5zM375 142h-2q-66 -80 -159 -80q-83 0 -136 54.5t-53 136.5q0 79 49.5 135t136.5 56q95 0 167 -80h2q66 80 159 80q83 0 136 -54.5t53 -136.5q0 -79 -49.5 -135t-136.5 -56
q-95 0 -167 80zM535 312q-45 0 -86 -53q40 -65 86 -65q27 0 40.5 16.5t13.5 42.5t-13.5 42.5t-40.5 16.5z" />
    <glyph glyph-name="integral" unicode="&#x222b;" horiz-adv-x="362" 
d="M1 -18q36 -6 59 -6q29 0 41 13.5t12 46.5q0 30 -9 94l-42 315q-17 126 -17 176q0 58 19.5 99.5t54 63.5t75 32t90.5 10q39 0 69 -6v-159q-36 6 -59 6q-29 0 -41 -13.5t-12 -46.5q0 -29 9 -94l42 -315q17 -126 17 -176q0 -58 -19.5 -99.5t-54 -63.5t-75 -32t-90.5 -10
q-39 0 -69 6v159z" />
    <glyph glyph-name="approxequal" unicode="&#x2248;" 
d="M84 373l-33 106q24 39 63.5 61.5t77.5 22.5q42 0 120 -26t117 -26q66 0 103 56l33 -106q-24 -39 -63.5 -61.5t-77.5 -22.5q-42 0 -120 26t-117 26q-66 0 -103 -56zM84 157l-33 106q24 39 63.5 61.5t77.5 22.5q42 0 120 -26t117 -26q66 0 103 56l33 -106
q-24 -39 -63.5 -61.5t-77.5 -22.5q-42 0 -120 26t-117 26q-66 0 -103 -56z" />
    <glyph glyph-name="notequal" unicode="&#x2260;" 
d="M56 409v134h327l87 134l61 -37l-63 -97h92v-134h-179l-61 -94h240v-134h-327l-87 -134l-61 37l63 97h-92v134h179l61 94h-240z" />
    <glyph glyph-name="lessequal" unicode="&#x2264;" horiz-adv-x="746" 
d="M78 372v98l590 209v-141l-329 -116v-2l329 -116v-141zM78 0v114h590v-114h-590z" />
    <glyph glyph-name="greaterequal" unicode="&#x2265;" horiz-adv-x="746" 
d="M78 163v141l329 116v2l-329 116v141l590 -209v-98zM78 0v114h590v-114h-590z" />
    <glyph glyph-name="lozenge" unicode="&#x25ca;" horiz-adv-x="562" 
d="M216 -19l-185 378l185 379h130l185 -379l-185 -378h-130zM280 118h2l114 241l-114 241h-2l-114 -241z" />
    <glyph glyph-name="commaaccent" unicode="&#xf6c3;" horiz-adv-x="560" 
d="M220 -54h167l-84 -218h-132z" />
    <glyph glyph-name="apple" unicode="&#xf8ff;" horiz-adv-x="990" 
d="M476 674q-2 12 -2 27q0 63 51 120t120 66l15 1q2 -14 2 -25q0 -74 -56 -132q-56 -57 -130 -57zM201 96q-48 64 -77 148t-29 169q0 124 67 197q68 74 177 74q39 0 94 -21q42 -16 56 -16q12 0 79 23q42 14 88 14q116 0 187 -87q-101 -74 -101 -176q0 -118 125 -183
q-35 -99 -98 -171t-116 -72q-21 0 -82 22q-46 17 -77 17q-30 0 -65 -13q-68 -26 -87 -26q-66 0 -141 101z" />
    <glyph glyph-name="ff" unicode="&#xfb00;" horiz-adv-x="780" 
d="M461 0v336h-182v-336h-198v336h-68v156h68v59q0 121 61 174q57 50 158 50q56 0 90 -12v-155q-42 8 -65 8q-26 0 -36 -14t-10 -43v-67h182v59q0 121 61 174q57 50 158 50q56 0 90 -12v-155q-42 8 -65 8q-26 0 -36 -14t-10 -43v-67h108v-156h-108v-336h-198z" />
    <glyph glyph-name="a.alt" horiz-adv-x="617" 
d="M25 234q0 116 76.5 192.5t187.5 76.5q69 0 123 -29l152 26v-500h-194v23l-2 2q-45 -36 -116 -36q-93 0 -160 68.5t-67 176.5zM225 243q0 -44 22.5 -72t64.5 -28q28 0 54 12v181q-23 10 -49 10q-46 0 -69 -29t-23 -74z" />
    <glyph glyph-name="aacute.alt" horiz-adv-x="617" 
d="M25 234q0 116 76.5 192.5t187.5 76.5q69 0 123 -29l152 26v-500h-194v23l-2 2q-45 -36 -116 -36q-93 0 -160 68.5t-67 176.5zM225 243q0 -44 22.5 -72t64.5 -28q28 0 54 12v181q-23 10 -49 10q-46 0 -69 -29t-23 -74zM452 727l-120 -164h-128l88 164h160z" />
    <glyph glyph-name="abreve.alt" horiz-adv-x="617" 
d="M25 234q0 116 76.5 192.5t187.5 76.5q69 0 123 -29l152 26v-500h-194v23l-2 2q-45 -36 -116 -36q-93 0 -160 68.5t-67 176.5zM225 243q0 -44 22.5 -72t64.5 -28q28 0 54 12v181q-23 10 -49 10q-46 0 -69 -29t-23 -74zM316 561q-80 0 -126 44t-48 122h106q4 -74 68 -74
t68 74h106q-2 -78 -48 -122t-126 -44z" />
    <glyph glyph-name="acircumflex.alt" horiz-adv-x="617" 
d="M25 234q0 116 76.5 192.5t187.5 76.5q69 0 123 -29l152 26v-500h-194v23l-2 2q-45 -36 -116 -36q-93 0 -160 68.5t-67 176.5zM225 243q0 -44 22.5 -72t64.5 -28q28 0 54 12v181q-23 10 -49 10q-46 0 -69 -29t-23 -74zM127 563l122 164h134l122 -164h-121l-68 83l-68 -83
h-121z" />
    <glyph glyph-name="acute.cap" horiz-adv-x="560" 
d="M416 959l-120 -164h-128l88 164h160z" />
    <glyph glyph-name="adieresis.alt" horiz-adv-x="617" 
d="M25 234q0 116 76.5 192.5t187.5 76.5q69 0 123 -29l152 26v-500h-194v23l-2 2q-45 -36 -116 -36q-93 0 -160 68.5t-67 176.5zM225 243q0 -44 22.5 -72t64.5 -28q28 0 54 12v181q-23 10 -49 10q-46 0 -69 -29t-23 -74zM115 645q0 35 25 59.5t60 24.5t60 -24.5t25 -59.5
t-25 -59.5t-60 -24.5t-60 24.5t-25 59.5zM347 645q0 35 25 59.5t60 24.5t60 -24.5t25 -59.5t-25 -59.5t-60 -24.5t-60 24.5t-25 59.5z" />
    <glyph glyph-name="ae.alt" horiz-adv-x="902" 
d="M636 503q42 0 82.5 -15t75.5 -44t56.5 -79.5t21.5 -113.5q0 -29 -3 -50h-304q24 -70 115 -70q82 0 164 46v-150q-81 -38 -191 -38q-136 0 -216 72q-77 -72 -180 -72q-99 0 -165.5 67.5t-66.5 176.5q0 117 75.5 193.5t185.5 76.5q50 0 97 -18l144 25v-34l2 -1
q45 28 107 28zM311 143q35 0 62 20q-11 38 -11 78v95q-22 10 -47 10q-45 0 -67.5 -29t-22.5 -74t22 -72.5t64 -27.5zM627 363q-25 0 -42.5 -16t-23.5 -44h133q-12 60 -67 60z" />
    <glyph glyph-name="agrave.alt" horiz-adv-x="617" 
d="M25 234q0 116 76.5 192.5t187.5 76.5q69 0 123 -29l152 26v-500h-194v23l-2 2q-45 -36 -116 -36q-93 0 -160 68.5t-67 176.5zM225 243q0 -44 22.5 -72t64.5 -28q28 0 54 12v181q-23 10 -49 10q-46 0 -69 -29t-23 -74zM300 563l-120 164h160l88 -164h-128z" />
    <glyph glyph-name="amacron.alt" horiz-adv-x="617" 
d="M25 234q0 116 76.5 192.5t187.5 76.5q69 0 123 -29l152 26v-500h-194v23l-2 2q-45 -36 -116 -36q-93 0 -160 68.5t-67 176.5zM225 243q0 -44 22.5 -72t64.5 -28q28 0 54 12v181q-23 10 -49 10q-46 0 -69 -29t-23 -74zM153 585v120h326v-120h-326z" />
    <glyph glyph-name="aogonek.alt" horiz-adv-x="617" 
d="M225 243q0 -44 22.5 -72t64.5 -28q28 0 54 12v181q-23 10 -49 10q-46 0 -69 -29t-23 -74zM310 -119q0 69 60 119v23l-2 2q-45 -36 -116 -36q-93 0 -160 68.5t-67 176.5q0 116 76.5 192.5t187.5 76.5q69 0 123 -29l152 26v-500q-52 -19 -74 -43t-22 -44q0 -32 41 -32
q23 0 55 8v-106q-44 -14 -95 -14q-72 0 -115.5 31t-43.5 81z" />
    <glyph glyph-name="aring.alt" horiz-adv-x="617" 
d="M25 234q0 116 76.5 192.5t187.5 76.5q69 0 123 -29l152 26v-500h-194v23l-2 2q-45 -36 -116 -36q-93 0 -160 68.5t-67 176.5zM225 243q0 -44 22.5 -72t64.5 -28q28 0 54 12v181q-23 10 -49 10q-46 0 -69 -29t-23 -74zM316 534q-60 0 -99 37.5t-39 93.5t39 93.5t99 37.5
t99 -37.5t39 -93.5t-39 -93.5t-99 -37.5zM316 608q24 0 39 16t15 41t-15 41t-39 16t-39 -16t-15 -41t15 -41t39 -16z" />
    <glyph glyph-name="atilde.alt" horiz-adv-x="617" 
d="M25 234q0 116 76.5 192.5t187.5 76.5q69 0 123 -29l152 26v-500h-194v23l-2 2q-45 -36 -116 -36q-93 0 -160 68.5t-67 176.5zM225 243q0 -44 22.5 -72t64.5 -28q28 0 54 12v181q-23 10 -49 10q-46 0 -69 -29t-23 -74zM309 587q-51 23 -74 23q-47 0 -89 -50l-2 1v124
q36 43 90 43q36 0 89 -24q51 -23 74 -23q47 0 89 50l2 -1v-124q-36 -43 -90 -43q-36 0 -89 24z" />
    <glyph glyph-name="braceleft.cap" horiz-adv-x="373" 
d="M99 40v192q0 35 -13 49t-44 14h-32v134h32q31 0 44 14t13 49v192q0 73 50.5 120t144.5 47q40 0 74 -6v-131q-15 3 -33 3q-53 0 -53 -56v-162q0 -60 -17 -91t-58 -45v-2q41 -14 58 -45t17 -91v-162q0 -56 53 -56q18 0 33 3v-131q-34 -6 -74 -6q-94 0 -144.5 47t-50.5 120z
" />
    <glyph glyph-name="braceright.cap" horiz-adv-x="373" 
d="M91 63v162q0 60 17 91t58 45v2q-41 14 -58 45t-17 91v162q0 56 -53 56q-18 0 -33 -3v131q34 6 74 6q94 0 144.5 -47t50.5 -120v-192q0 -35 13 -49t44 -14h32v-134h-32q-31 0 -44 -14t-13 -49v-192q0 -73 -50.5 -120t-144.5 -47q-40 0 -74 6v131q15 -3 33 -3q53 0 53 56z
" />
    <glyph glyph-name="bracketleft.cap" horiz-adv-x="369" 
d="M244 18h84v-134h-267v956h267v-134h-84v-688z" />
    <glyph glyph-name="bracketright.cap" horiz-adv-x="369" 
d="M41 18h84v688h-84v134h267v-956h-267v134z" />
    <glyph glyph-name="breve.cap" horiz-adv-x="560" 
d="M280 793q-80 0 -126 44t-48 122h106q4 -74 68 -74t68 74h106q-2 -78 -48 -122t-126 -44z" />
    <glyph glyph-name="caron.cap" horiz-adv-x="560" 
d="M469 959l-121 -164h-135l-121 164h121l67 -83l68 83h121z" />
    <glyph glyph-name="circumflex.cap" horiz-adv-x="560" 
d="M91 795l122 164h134l122 -164h-121l-68 83l-68 -83h-121z" />
    <glyph glyph-name="commaaccent.alt" horiz-adv-x="560" 
d="M173 556l84 218h132l-49 -218h-167z" />
    <glyph glyph-name="dieresis.cap" horiz-adv-x="560" 
d="M79 877q0 35 25 59.5t60 24.5t60 -24.5t25 -59.5t-25 -59.5t-60 -24.5t-60 24.5t-25 59.5zM311 877q0 35 25 59.5t60 24.5t60 -24.5t25 -59.5t-25 -59.5t-60 -24.5t-60 24.5t-25 59.5z" />
    <glyph glyph-name="dotaccent.cap" horiz-adv-x="560" 
d="M280 786q-38 0 -65 26.5t-27 64.5t27 64.5t65 26.5t65 -26.5t27 -64.5t-27 -64.5t-65 -26.5z" />
    <glyph glyph-name="emdash.cap" horiz-adv-x="788" 
d="M30 305v114h728v-114h-728z" />
    <glyph glyph-name="endash.cap" horiz-adv-x="490" 
d="M45 293v138h400v-138h-400z" />
    <glyph glyph-name="exclamdown.cap" horiz-adv-x="286" 
d="M212 470l47 -470h-232l47 470h138zM247 632q0 -43 -30.5 -73t-73.5 -30t-73.5 30t-30.5 73t30.5 73t73.5 30t73.5 -30t30.5 -73z" />
    <glyph glyph-name="grave.cap" horiz-adv-x="560" 
d="M264 795l-120 164h160l88 -164h-128z" />
    <glyph glyph-name="guillemotleft.cap" horiz-adv-x="603" 
d="M168 143l-162 219l162 219h155l-161 -219l161 -219h-155zM419 143l-162 219l162 219h155l-161 -219l161 -219h-155z" />
    <glyph glyph-name="guillemotright.cap" horiz-adv-x="603" 
d="M29 143l161 219l-161 219h155l162 -219l-162 -219h-155zM280 143l161 219l-161 219h155l162 -219l-162 -219h-155z" />
    <glyph glyph-name="guilsinglleft.cap" horiz-adv-x="352" 
d="M168 143l-162 219l162 219h155l-161 -219l161 -219h-155z" />
    <glyph glyph-name="guilsinglright.cap" horiz-adv-x="352" 
d="M29 143l161 219l-161 219h155l162 -219l-162 -219h-155z" />
    <glyph glyph-name="hungarumlaut.cap" horiz-adv-x="560" 
d="M282 795l68 164h131l-93 -164h-106zM101 795l68 164h131l-93 -164h-106z" />
    <glyph glyph-name="hyphen.cap" horiz-adv-x="335" 
d="M39 285v152h257v-152h-257z" />
    <glyph glyph-name="i.TRK" horiz-adv-x="302" 
d="M53 0v492h198v-492h-198z" />
    <glyph glyph-name="macron.cap" horiz-adv-x="560" 
d="M117 817v120h326v-120h-326z" />
    <glyph glyph-name="parenleft.cap" horiz-adv-x="396" 
d="M65 362q0 293 158 478h174q-69 -87 -111 -210.5t-42 -267.5t42 -267.5t111 -210.5h-174q-158 185 -158 478z" />
    <glyph glyph-name="parenright.cap" horiz-adv-x="396" 
d="M-1 -116q69 87 111 210.5t42 267.5t-42 267.5t-111 210.5h174q158 -185 158 -478t-158 -478h-174z" />
    <glyph glyph-name="questiondown.cap" horiz-adv-x="494" 
d="M392 488l21 -175q-180 0 -180 -87q0 -32 22 -53t63 -21q54 0 120 44l20 -166q-72 -41 -168 -41q-107 0 -183.5 61.5t-76.5 157.5q0 80 53.5 138.5t130.5 73.5l3 68h175zM393 632q0 -43 -30.5 -73t-73.5 -30t-73.5 30t-30.5 73t30.5 73t73.5 30t73.5 -30t30.5 -73z" />
    <glyph glyph-name="ring.cap" horiz-adv-x="560" 
d="M280 766q-60 0 -99 37.5t-39 93.5t39 93.5t99 37.5t99 -37.5t39 -93.5t-39 -93.5t-99 -37.5zM280 840q24 0 39 16t15 41t-15 41t-39 16t-39 -16t-15 -41t15 -41t39 -16z" />
    <glyph glyph-name="tilde.cap" horiz-adv-x="560" 
d="M273 819q-51 23 -74 23q-47 0 -89 -50l-2 1v124q36 43 90 43q36 0 89 -24q51 -23 74 -23q47 0 89 50l2 -1v-124q-36 -43 -90 -43q-36 0 -89 24z" />
    <glyph glyph-name="aeacute.alt" horiz-adv-x="902" 
d="M636 503q42 0 82.5 -15t75.5 -44t56.5 -79.5t21.5 -113.5q0 -29 -3 -50h-304q24 -70 115 -70q82 0 164 46v-150q-81 -38 -191 -38q-136 0 -216 72q-77 -72 -180 -72q-99 0 -165.5 67.5t-66.5 176.5q0 117 75.5 193.5t185.5 76.5q50 0 97 -18l144 25v-34l2 -1
q45 28 107 28zM311 143q35 0 62 20q-11 38 -11 78v95q-22 10 -47 10q-45 0 -67.5 -29t-22.5 -74t22 -72.5t64 -27.5zM627 363q-25 0 -42.5 -16t-23.5 -44h133q-12 60 -67 60zM642 727l-120 -164h-128l88 164h160z" />
    <glyph glyph-name="ordfeminine.alt" horiz-adv-x="409" 
d="M157 566q0 -25 12.5 -40.5t35.5 -15.5q15 0 27 5v106q-14 4 -24 4q-26 0 -38.5 -16.5t-12.5 -42.5zM15 560q0 75 50 125t122 50q51 0 89 -25l97 17v-319h-138v16l-2 1q-28 -24 -72 -24q-60 0 -103 44.5t-43 114.5z" />
    <glyph glyph-name="periodcentered.cap" horiz-adv-x="324" 
d="M54 362q0 44 31.5 75.5t76.5 31.5t76.5 -31.5t31.5 -75.5t-31.5 -75.5t-76.5 -31.5t-76.5 31.5t-31.5 75.5z" />
    <glyph glyph-name="at.cap" horiz-adv-x="809" 
d="M23 361q0 161 108 267.5t272 106.5q165 0 274 -106t109 -259q0 -98 -47.5 -149t-126.5 -51q-84 0 -125 49h-2q-53 -50 -121 -50q-75 0 -119 48.5t-44 125.5q0 86 53 149t141 63q52 0 90 -24l105 14l-18 -202q-1 -13 -1 -17q0 -30 14 -52.5t44 -22.5q32 0 52.5 28t20.5 88
q0 75 -33.5 140.5t-102.5 108.5t-160 43q-136 0 -217.5 -87.5t-81.5 -210.5q0 -121 80 -208.5t215 -87.5q111 0 202 67l42 -67q-99 -76 -240 -76q-166 0 -274.5 105.5t-108.5 266.5zM386 268q40 0 63 32q-3 22 -1 49l8 88q-24 18 -52 18q-37 0 -56.5 -34t-19.5 -77
q0 -76 58 -76z" />
    </font>
</defs>
</svg>
