<?xml version="1.0" encoding="UTF-8"?>
<svg width="56px" height="37px" viewBox="0 0 56 37" version="1.1" xmlns="http://www.w3.org/2000/svg" xmlns:xlink="http://www.w3.org/1999/xlink">
    <!-- Generator: Sketch 57.1 (83088) - https://sketch.com -->
    <title>MasterCard-dark Copy 2</title>
    <desc>Created with Sketch.</desc>
    <g id="Page-1" stroke="none" stroke-width="1" fill="none" fill-rule="evenodd">
        <g id="Payment" transform="translate(-609.000000, -252.000000)">
            <g id="credit-card" transform="translate(284.000000, 243.000000)">
                <g id="base">
                    <g id="MasterCard-dark-Copy-2" transform="translate(324.200000, 5.134021)">
                        <rect id="Rectangle" x="4.8" y="3.86597938" width="54" height="38" rx="4"></rect>
                        <g id="americanexpress" transform="translate(0.800000, 3.865979)" fill-rule="nonzero">
                            <path d="M56,33.5796715 C56,35.3184125 54.5179688,36.7279412 52.6897656,36.7279412 L3.31023438,36.7279412 C1.48203125,36.7279412 0,35.3184125 0,33.5796715 L0,3.14816571 C0,1.40952863 1.48203125,0 3.31023438,0 L52.6897656,0 C54.5180781,0 56,1.40952863 56,3.14816571 L56,33.5796715 L56,33.5796715 Z" id="Path" fill="#306FC5"></path>
                            <path d="M2.3743224,33.8516352 L2.3743224,3.42021562 C2.3743224,1.68158346 3.86973613,0.272058824 5.71417537,0.272058824 L3.33952192,0.272058824 C1.49519304,0.272058824 0,1.68147945 0,3.42021562 L0,33.8517392 C0,35.5904754 1.49519304,37 3.33963227,37 L5.71428571,37 C3.86984648,37 2.3743224,35.5903713 2.3743224,33.8516352 Z" id="Path" fill="#202121" opacity="0.15"></path>
                            <g id="Group" transform="translate(4.000000, 10.882353)" fill="#FFFFFF">
                                <polygon id="Path" points="4.23487662 3.96020204 5.91368312 3.96020204 5.07449935 1.91757372"></polygon>
                                <polygon id="Path" points="13.1629052 10.8171175 13.1629052 11.765623 15.9864123 11.765623 15.9864123 12.787147 13.1629052 12.787147 13.1629052 13.8816894 16.2914903 13.8816894 17.7412688 12.349351 16.3678695 10.8171175"></polygon>
                                <polygon id="Path" points="35.2154299 1.91757372 34.2996474 3.96020204 36.0549429 3.96020204"></polygon>
                                <polygon id="Path" points="21.3278 14.4646831 21.3278 10.3066178 19.3436961 12.349351"></polygon>
                                <path d="M25.0668701,11.4739689 C24.9904909,11.0362778 24.684974,10.8171175 24.2269182,10.8171175 L22.6248201,10.8171175 L22.6248201,12.1301908 L24.3037364,12.1301908 C24.761463,12.1302957 25.0668701,11.911555 25.0668701,11.4739689 Z" id="Path"></path>
                                <path d="M30.4079286,11.9846784 C30.5605773,11.911555 30.637176,11.6924997 30.637176,11.4740738 C30.7135552,11.1825245 30.5605773,11.0363827 30.4079286,10.9633642 C30.2557188,10.8903458 30.0264714,10.8903458 29.7978825,10.8903458 L28.2713955,10.8903458 L28.2713955,12.0576968 L29.7977727,12.0576968 C30.0263617,12.0576968 30.2556091,12.0576968 30.4079286,11.9846784 Z" id="Path"></path>
                                <path d="M41.3958916,0.0207724913 L41.3958916,0.896154652 L40.9383844,0.0207724913 L37.3522922,0.0207724913 L37.3522922,0.896154652 L36.8942364,0.0207724913 L32.0105753,0.0207724913 C31.1712818,0.0207724913 30.4841981,0.1668094 29.8740422,0.458568483 L29.8740422,0.0207724913 L26.4403792,0.0207724913 L26.4403792,0.0937909458 L26.4403792,0.458568483 C26.0589221,0.166914312 25.6010857,0.0207724913 24.9906006,0.0207724913 L12.7051786,0.0207724913 L11.8654461,1.84455527 L11.0262623,0.0207724913 L8.2793539,0.0207724913 L7.13465325,0.0207724913 L7.13465325,0.896154652 L6.75308636,0.0207724913 L6.67670714,0.0207724913 L3.39558312,0.0207724913 L1.86920584,3.44928268 L0.114349351,7.16965686 L0.0820857143,7.24278023 L0.114349351,7.24278023 L4.00606818,7.24278023 L4.05479286,7.24278023 L4.0824474,7.16965686 L4.54050325,6.07563899 L5.53244545,6.07563899 L5.99028182,7.24278023 L10.4156675,7.24278023 L10.4156675,7.16965686 L10.4156675,6.36739807 L10.7974539,7.24267532 L13.0101468,7.24267532 L13.3914942,6.36739807 L13.3914942,7.16965686 L13.3914942,7.24278023 L15.1465701,7.24278023 L23.92195,7.24278023 L23.9983292,7.24278023 L23.9983292,5.345979 L24.1513071,5.345979 C24.3037364,5.345979 24.3037364,5.345979 24.3037364,5.56492945 L24.3037364,7.16976177 L29.7978825,7.16976177 L29.7978825,6.73207069 C30.2557188,6.95123097 30.9420344,7.16976177 31.8578169,7.16976177 L34.1473279,7.16976177 L34.6051643,6.00283035 L35.6731565,6.00283035 L36.1309929,7.16976177 L40.5565981,7.16976177 L40.5565981,6.44041652 L40.5565981,6.0757439 L41.2436818,7.16976177 L41.3958916,7.16976177 L41.4724903,7.16976177 L44.8299935,7.16976177 L44.8299935,0.0207724913 L41.396111,0.0207724913 L41.396111,0.0207724913 L41.3958916,0.0207724913 L41.3958916,0.0207724913 Z M15.5283565,6.14876235 L14.765113,6.14876235 L14.3073864,6.14876235 L14.3073864,5.71138601 L14.3073864,2.13641926 L14.2310071,2.30375322 L14.2310071,2.3017599 L12.4558487,6.14876235 L12.3996617,6.14876235 L11.9915377,6.14876235 L11.3312305,6.14876235 L9.49999481,2.13641926 L9.49999481,6.14876235 L6.90573506,6.14876235 L6.37162922,5.05453465 L3.77693052,5.05453465 L3.24271494,6.14876235 L1.90135974,6.14876235 L4.15871688,1.04219156 L6.06622208,1.04219156 L8.20275519,5.92970699 L8.20275519,1.04219156 L8.66048182,1.04219156 L10.2243903,1.04219156 L10.2603851,1.11531493 L10.2630188,1.11531493 L11.2257701,3.11849649 L11.9171338,4.61936145 L11.9416058,4.5437202 L13.4676539,1.04229647 L15.5283565,1.04229647 L15.5283565,6.14876235 L15.5283565,6.14876235 L15.5283565,6.14876235 Z M20.7936942,2.13641926 L17.8176481,2.13641926 L17.8176481,3.08471497 L20.7173149,3.08471497 L20.7173149,4.10592421 L17.8176481,4.10592421 L17.8176481,5.1275531 L20.7936942,5.1275531 L20.7936942,6.22146607 L16.5205182,6.22146607 L16.5205182,1.04229647 L20.7936942,1.04229647 L20.7936942,2.13641926 L20.7936942,2.13641926 Z M26.2362623,4.01748376 C26.2382377,4.01916234 26.2407617,4.02031637 26.243176,4.02189004 C26.2720377,4.05105546 26.2967292,4.08032579 26.3177994,4.10833718 C26.4639734,4.29151278 26.5821636,4.56396814 26.5880896,4.96347141 C26.5885286,4.97039557 26.5888578,4.97721482 26.5892968,4.98413899 C26.5892968,4.98812562 26.5900649,4.99158771 26.5900649,4.99567926 C26.5900649,4.99798731 26.5898455,4.99977081 26.5898455,5.00197395 C26.5916013,5.04215508 26.5926987,5.08317551 26.5926987,5.1275531 L26.5926987,6.14886726 L25.4483273,6.14886726 L25.4483273,5.56503436 C25.4483273,5.27327528 25.4483273,4.83547929 25.2190799,4.5437202 C25.1469805,4.4747933 25.0740032,4.42936659 24.9945513,4.39705383 C24.8802019,4.32623851 24.6634649,4.32508449 24.3037364,4.32508449 L22.9297883,4.32508449 L22.9297883,6.14886726 L21.6328779,6.14886726 L21.6328779,1.04229647 L24.5327643,1.04229647 C25.2190799,1.04229647 25.6771357,1.04229647 26.0588123,1.26114201 C26.4326974,1.47579109 26.6585429,1.83175606 26.6671026,2.39544593 C26.6494344,3.17179157 26.1281682,3.59773255 25.7534052,3.7413565 C25.7534052,3.7413565 26.0080026,3.7903502 26.2362623,4.01748376 Z M28.8058305,6.14876235 L27.5084812,6.14876235 L27.5084812,1.04219156 L28.8058305,1.04219156 L28.8058305,6.14876235 Z M43.6857318,6.14876235 L42.0067058,6.14876235 L39.5649851,2.28224635 L39.5649851,5.49201591 L39.556974,5.48446227 L39.556974,6.1519097 L38.2678552,6.1519097 L38.2678552,6.14886726 L36.9705058,6.14886726 L36.5126695,5.05463956 L33.8417013,5.05463956 L33.3838649,6.22157098 L31.9340864,6.22157098 C31.3240403,6.22157098 30.5604675,6.07584881 30.1028506,5.63815773 C29.6450143,5.20046665 29.4163156,4.61684357 29.4163156,3.66865278 C29.4163156,2.93920261 29.5687448,2.20922789 30.1028506,1.62581464 C30.4840883,1.18780882 31.1711721,1.04229647 32.0103558,1.04229647 L33.2315455,1.04229647 L33.2315455,2.13641926 L32.0103558,2.13641926 C31.5525195,2.13641926 31.3240403,2.20912298 31.0181942,2.42838817 C30.7897149,2.6471288 30.6369565,3.08471497 30.6369565,3.59531959 C30.6369565,4.17904758 30.7133357,4.5437202 31.0181942,4.83547929 C31.247661,5.05463956 31.5526292,5.12765802 31.9340864,5.12765802 L32.4681922,5.12765802 L34.2230487,1.11552475 L34.9865117,1.11552475 L36.1308831,1.11552475 L38.2677455,6.00304018 L38.2677455,5.75377028 L38.2677455,4.10613403 L38.2677455,3.96041186 L38.2677455,1.11562966 L40.1752506,1.11562966 L42.387724,4.68996694 L42.387724,1.11562966 L43.6855123,1.11562966 L43.6855123,6.14897217 L43.6857318,6.14897217 L43.6857318,6.14876235 L43.6857318,6.14876235 Z" id="Shape"></path>
                                <path d="M25.1481877,3.16906387 C25.1704649,3.14629806 25.1906571,3.12048981 25.2077766,3.09090475 C25.276913,2.98630791 25.3561455,2.79788673 25.3134565,2.54074846 C25.3117006,2.51714336 25.3072013,2.49532175 25.3019338,2.47423453 C25.3005071,2.46835948 25.3007266,2.46321881 25.2990805,2.45734376 L25.2983123,2.45744867 C25.2603422,2.33249899 25.1634416,2.25570372 25.0667604,2.20912298 C24.9137825,2.13641926 24.6848643,2.13641926 24.4560558,2.13641926 L22.9296786,2.13641926 L22.9296786,3.30377033 L24.4560558,3.30377033 C24.6848643,3.30377033 24.9138922,3.30377033 25.0667604,3.23064696 C25.0896961,3.21952634 25.1101078,3.20441907 25.1297513,3.18731848 L25.1299708,3.18826269 C25.1300805,3.18815778 25.1378721,3.18039432 25.1481877,3.16906387 Z" id="Path"></path>
                                <path d="M48.1874968,13.4437885 C48.1874968,12.9331839 48.0350675,12.4223695 47.8062591,12.0576968 L47.8062591,8.77511866 L47.8027474,8.77511866 L47.8027474,8.55595838 C47.8027474,8.55595838 44.6043675,8.55595838 44.1283143,8.55595838 C43.6524805,8.55595838 43.0750273,8.99354455 43.0750273,8.99354455 L43.0750273,8.55595838 L39.5650948,8.55595838 C39.0306597,8.55595838 38.3443442,8.70199529 38.0387175,8.99354455 L38.0387175,8.55595838 L31.7817669,8.55595838 L31.7817669,8.77511866 L31.7817669,8.99343964 C31.3242597,8.62897684 30.4841981,8.55585347 30.1029604,8.55585347 L25.9823234,8.55585347 L25.9823234,8.77501374 L25.9823234,8.99333473 C25.6008662,8.62887192 24.6847545,8.55574856 24.2266987,8.55574856 L19.6489935,8.55574856 L18.5804526,9.65008117 L17.5884006,8.55574856 L17.2689468,8.55574856 L16.7491071,8.55574856 L10.7210747,8.55574856 L10.7210747,8.77490883 L10.7210747,9.3511881 L10.7210747,15.924003 L17.4360812,15.924003 L18.5394097,14.8689073 L19.4957961,15.924003 L19.5723948,15.924003 L23.4416169,15.924003 L23.6169818,15.924003 L23.693361,15.924003 L23.7693013,15.924003 L23.7693013,15.1945529 L23.7693013,14.2462572 L24.1510877,14.2462572 C24.6847545,14.2462572 25.3718383,14.2462572 25.9059442,14.0270969 L25.9059442,15.8506698 L25.9059442,15.9969166 L29.3398266,15.9969166 L29.3398266,15.8506698 L29.3398266,14.1001153 L29.4920364,14.1001153 C29.7212838,14.1001153 29.7212838,14.1001153 29.7212838,14.3189609 L29.7212838,15.8506698 L29.7212838,15.9969166 L40.0986519,15.9969166 C40.7859552,15.9969166 41.4722708,15.8506698 41.8537279,15.5589108 L41.8537279,15.8506698 L41.8537279,15.9969166 L45.1351812,15.9969166 C45.8214968,15.9969166 46.5088,15.924003 46.9666364,15.6320341 C47.6691935,15.2290688 48.1119955,14.515775 48.1778396,13.665047 C48.1809123,13.6398683 48.1847532,13.6146895 48.1874968,13.5894058 L48.1826682,13.5853143 C48.1855214,13.538104 48.1874968,13.4914184 48.1874968,13.4437885 Z M24.1511974,13.0062024 L22.6247104,13.0062024 L22.6247104,13.2245234 L22.6247104,13.6624243 L22.6247104,14.1002203 L22.6247104,14.9026889 L20.1165968,14.9026889 L18.6568318,13.2976467 L18.6517838,13.3029972 L18.5804526,13.2245234 L16.9017558,14.9026889 L12.0182045,14.9026889 L12.0182045,9.7963279 L16.9781351,9.7963279 L18.3332078,11.2152569 L18.6180935,11.5123665 L18.6567221,11.4740738 L20.2593688,9.79643281 L24.3035169,9.79643281 C25.0883792,9.79643281 25.967289,9.98160174 26.3003506,10.7450433 C26.3404058,10.8962208 26.3636708,11.0642892 26.3636708,11.2552282 C26.3636708,12.7141286 25.2953494,13.0062024 24.1511974,13.0062024 Z M31.7817669,12.933079 C31.9341961,13.1514 32.0105753,13.4436836 32.0105753,13.8815845 L32.0105753,14.902584 L30.7135552,14.902584 L30.7135552,14.2462572 C30.7135552,13.9539735 30.7135552,13.4436836 30.4843078,13.2245234 C30.3320981,13.0062024 30.0264714,13.0062024 29.5689643,13.0062024 L28.1955649,13.0062024 L28.1955649,14.9026889 L26.8984351,14.9026889 L26.8984351,9.72330945 L29.7978825,9.72330945 C30.4079286,9.72330945 30.9420344,9.72330945 31.3242597,9.94194517 C31.7054974,10.1610005 32.0105753,10.5257781 32.0105753,11.1094011 C32.0105753,11.9116599 31.476689,12.349351 31.0950123,12.4954928 C31.476689,12.6407954 31.7054974,12.787147 31.7817669,12.933079 Z M37.0471045,10.8171175 L34.0707292,10.8171175 L34.0707292,11.7655181 L36.9705058,11.7655181 L36.9705058,12.7870421 L34.0707292,12.7870421 L34.0707292,13.8084612 L37.0471045,13.8084612 L37.0471045,14.902584 L32.7739286,14.902584 L32.7739286,9.72320454 L37.0471045,9.72320454 L37.0471045,10.8171175 Z M40.2517396,14.9026889 L37.8097994,14.9026889 L37.8097994,13.8085661 L40.2517396,13.8085661 C40.4802188,13.8085661 40.6331968,13.8085661 40.7861747,13.6625292 C40.8625539,13.5894058 40.9383844,13.4437885 40.9383844,13.2977516 C40.9383844,13.1515049 40.8625539,13.0063073 40.7861747,12.9331839 C40.709576,12.8602704 40.5567078,12.7872519 40.3278994,12.7872519 C39.1069292,12.7142335 37.6571506,12.7872519 37.6571506,11.1825245 C37.6571506,10.4529694 38.114987,9.65039591 39.4886058,9.65039591 L42.0065961,9.65039591 L42.0065961,10.8903458 L39.6412545,10.8903458 C39.4124461,10.8903458 39.2595779,10.8903458 39.1068195,10.9633642 C38.9546097,11.0364876 38.9546097,11.1825245 38.9546097,11.3282467 C38.9546097,11.5471971 39.1068195,11.6202156 39.2594682,11.6926046 C39.4124461,11.7657279 39.5648753,11.7657279 39.7173045,11.7657279 L40.4041688,11.7657279 C41.0910331,11.7657279 41.5487597,11.9116599 41.8539474,12.2035239 C42.0829753,12.4224744 42.235624,12.7872519 42.235624,13.2977516 C42.235624,14.3916646 41.5488695,14.9026889 40.2517396,14.9026889 Z M46.8140974,14.3916646 C46.509239,14.6838433 45.9748039,14.9026889 45.2114506,14.9026889 L42.7701688,14.9026889 L42.7701688,13.8085661 L45.2113409,13.8085661 C45.4403688,13.8085661 45.5933468,13.8085661 45.745776,13.6625292 C45.821826,13.5894058 45.8984247,13.4437885 45.8984247,13.2977516 C45.8984247,13.1515049 45.821826,13.0063073 45.745776,12.9331839 C45.6693968,12.8602704 45.5169675,12.7872519 45.2879396,12.7872519 C44.0674084,12.7142335 42.6171909,12.7872519 42.6171909,11.1826294 C42.6171909,10.4892688 43.0321188,9.86294675 44.0554468,9.67693853 C44.1778071,9.66078215 44.3070812,9.65039591 44.4486461,9.65039591 L46.9669656,9.65039591 L46.9669656,10.8903458 L45.2879396,10.8903458 L44.677674,10.8903458 L44.6012948,10.8903458 C44.3722669,10.8903458 44.2198377,10.8903458 44.0674084,10.9633642 C43.9905903,11.0364876 43.914211,11.1825245 43.914211,11.3282467 C43.914211,11.5471971 43.9905903,11.6202156 44.2198377,11.6926046 C44.3722669,11.7657279 44.5249156,11.7657279 44.677674,11.7657279 L44.7535045,11.7657279 L45.3642091,11.7657279 C45.6977097,11.7657279 45.9498929,11.8050698 46.1806766,11.8825994 C46.3920364,11.9557228 47.0917403,12.2549306 47.2482299,13.0359973 C47.2618377,13.1178283 47.271824,13.2032263 47.271824,13.2977516 C47.271824,13.7355476 47.1191753,14.1002203 46.8140974,14.3916646 Z" id="Shape"></path>
                            </g>
                        </g>
                    </g>
                </g>
            </g>
        </g>
    </g>
</svg>