<?xml version="1.0" encoding="UTF-8"?>
<svg width="56px" height="38px" viewBox="0 0 56 38" version="1.1" xmlns="http://www.w3.org/2000/svg" xmlns:xlink="http://www.w3.org/1999/xlink">
    <!-- Generator: Sketch 57.1 (83088) - https://sketch.com -->
    <title>MasterCard-dark Copy 2</title>
    <desc>Created with Sketch.</desc>
    <g id="Page-1" stroke="none" stroke-width="1" fill="none" fill-rule="evenodd">
        <g id="Payment" transform="translate(-610.000000, -251.000000)">
            <g id="credit-card" transform="translate(284.000000, 243.000000)">
                <g id="base">
                    <g id="MasterCard-dark-Copy-2" transform="translate(324.200000, 5.134021)">
                        <rect id="Rectangle" x="4.8" y="3.86597938" width="54" height="38" rx="4"></rect>
                        <g id="dinersclub" transform="translate(1.800000, 2.865979)" fill-rule="nonzero">
                            <path d="M51.8,0 C49,0 19.3552735,0 2.8,0 C1.4,0 0,1.52000036 0,3.04000035 C0,12.1785549 0,30.3999999 0,33.4399999 C0,36.4799998 1.4,38 4.2,38 C19.8181234,38 49,38 51.8,38 C54.6,38 56,36.4799998 56,33.4399999 C56,30.3999999 56,14.6573374 56,4.56000032 C56,1.52000036 54.6,0 51.8,0 Z" id="Rectangle-2" fill="#F4F4F4"></path>
                            <g id="logo" transform="translate(11.707809, 6.752066)">
                                <path d="M18.0480932,16.9435688 C22.2997204,16.9656263 26.1803526,13.1667925 26.1803526,8.54535974 C26.1803526,3.49156597 22.2997204,-0.00168029359 18.0480932,0 L14.3890703,0 C10.0865162,-0.00168029359 6.54508816,3.49260813 6.54508816,8.54535974 C6.54508816,13.167801 10.0865162,16.9656599 14.3890703,16.9435688 L18.0480932,16.9435688 L18.0480932,16.9435688 Z" id="Shape" fill="#4186CD"></path>
                                <path d="M14.3362537,0.67774275 C10.3773698,0.679094094 7.16936227,4.16724909 7.16842989,8.47232492 C7.16936227,12.7766575 10.3773387,16.2644747 14.3362537,16.265826 C18.29607,16.2644747 21.5047303,12.7766575 21.5052897,8.47232492 C21.5046992,4.16724909 18.29607,0.679094094 14.3362537,0.67774275 L14.3362537,0.67774275 Z M9.97346767,8.30288511 L9.97346767,8.30288511 C9.9770543,6.2152333 11.1394189,4.43501312 12.7785054,3.72758513 L12.7785054,12.8771122 C11.1394189,12.1700866 9.97702441,10.3908387 9.97346767,8.30288511 L9.97346767,8.30288511 Z M15.8952141,12.8771122 L15.8952141,12.8771122 L15.8952141,3.72758513 C17.5338508,4.43312492 18.697265,6.21390064 18.7002519,8.30203028 C18.697265,10.3907968 17.5338508,12.1702318 15.8952141,12.8771122 L15.8952141,12.8771122 Z" id="Shape" fill="#FFFFFF"></path>
                                <g id="text" transform="translate(0.000000, 18.553208)" fill="#211E1F">
                                    <path d="M0.663151372,1.20101815 C0.663151372,0.50236277 0.32463155,0.548371283 0,0.540781344 L0,0.338871376 C0.28133282,0.353816816 0.569718703,0.353816816 0.851596161,0.353816816 C1.15468727,0.353816816 1.56616137,0.338871376 2.10042413,0.338871376 C3.96907752,0.338871376 4.98673384,1.68220272 4.98673384,3.05774002 C4.98673384,3.82699062 4.56847899,5.76081338 2.01355436,5.76081338 C1.6456513,5.76081338 1.30606943,5.74554559 0.967032209,5.74554559 C0.642427891,5.74554559 0.32463155,5.75319413 0,5.76081338 L0,5.55919646 C0.432742217,5.5122795 0.642427891,5.49677726 0.66312414,4.968412 L0.66312414,1.20101815 L0.663151372,1.20101815 L0.663151372,1.20101815 Z M1.24668346,4.77852199 L1.24668346,4.77852199 C1.24668346,5.35474852 1.6416029,5.42194201 1.99294315,5.42194201 C3.5428463,5.42194201 4.05172125,4.20201312 4.05172125,3.08682703 C4.05172125,1.68790372 3.19069401,0.67774275 1.80647297,0.67774275 C1.51197512,0.67774275 1.37663605,0.699764147 1.24668346,0.707697497 L1.24668346,4.77852199 L1.24668346,4.77852199 Z" id="Shape"></path>
                                    <path d="M4.98673384,5.56809165 L5.1247021,5.56809165 C5.32835646,5.56809165 5.47432249,5.56809165 5.47432249,5.32275605 L5.47432249,3.31389073 C5.47432249,2.98805394 5.36518464,2.94271259 5.09559684,2.79530424 L5.09559684,2.67642654 C5.43776914,2.57181416 5.84620469,2.43195805 5.87476026,2.40958106 C5.92615482,2.37993158 5.9695791,2.37209963 6.00613244,2.37209963 C6.0421636,2.37209963 6.05725215,2.41685359 6.05725215,2.47643229 L6.05725215,5.32275605 C6.05725215,5.56809165 6.21748224,5.56809165 6.42141143,5.56809165 L6.54508816,5.56809165 L6.54508816,5.76081338 C6.29715753,5.76081338 6.04213611,5.74601661 5.78049111,5.74601661 C5.51829644,5.74601661 5.25582692,5.75328912 4.98676132,5.76081338 L4.98676132,5.56809165 L4.98673384,5.56809165 L4.98673384,5.56809165 Z M5.60994354,1.01661413 L5.60994354,1.01661413 C5.44434477,1.01661413 5.2984047,0.850853889 5.2984047,0.671225993 C5.2984047,0.498140922 5.4510657,0.338871376 5.60994354,0.338871376 C5.77484623,0.338871376 5.92174644,0.484612134 5.92174644,0.671225993 C5.92174644,0.85786592 5.78135113,1.01661413 5.60994354,1.01661413 L5.60994354,1.01661413 Z" id="Shape"></path>
                                    <path d="M7.30748254,3.35808526 C7.30748254,3.08396727 7.23195827,3.01012324 6.91169515,2.86914828 L6.91169515,2.728481 C7.20518593,2.62470775 7.48478808,2.52820702 7.81275566,2.37209963 C7.83313768,2.37209963 7.8532105,2.38723206 7.8532105,2.44625134 L7.8532105,2.92844727 C8.24309715,2.62470775 8.57781579,2.37209963 9.03593456,2.37209963 C9.61570125,2.37209963 9.82052639,2.83191857 9.82052639,3.41008378 L9.82052639,5.32278402 C9.82052639,5.56809165 9.97075038,5.56809165 10.1622022,5.56809165 L10.2851385,5.56809165 L10.2851385,5.76081338 C10.0454759,5.76081338 9.80663776,5.74601661 9.56133202,5.74601661 C9.3152275,5.74601661 9.06912299,5.75328912 8.82358535,5.76081338 L8.82358535,5.56809165 L8.94623821,5.56809165 C9.13792196,5.56809165 9.27376774,5.56809165 9.27376774,5.32278402 L9.27376774,3.40309096 C9.27376774,2.97988635 9.03593456,2.77261959 8.64604789,2.77261959 C8.42782371,2.77261959 8.07942258,2.96536928 7.85318472,3.12869326 L7.85318472,5.32272807 C7.85318472,5.56806368 8.00415597,5.56806368 8.19565936,5.56806368 L8.31831222,5.56806368 L8.31831222,5.76081338 C8.07942258,5.76081338 7.84004334,5.74596066 7.59424804,5.74596066 C7.34865886,5.74596066 7.1023482,5.75326115 6.85675903,5.76081338 L6.85675903,5.56806368 L6.97992725,5.56806368 C7.17112141,5.56806368 7.30743101,5.56806368 7.30743101,5.32272807 L7.30743101,3.35808526 L7.30748254,3.35808526 L7.30748254,3.35808526 Z" id="Shape"></path>
                                    <path d="M10.882227,3.80182158 C10.8667171,3.87305445 10.8667171,3.99129921 10.882227,4.26002377 C10.926167,5.00989045 11.3824279,5.62572254 11.978306,5.62572254 C12.3889942,5.62572254 12.7104515,5.38887551 12.9860546,5.09691312 L13.0901763,5.20773966 C12.7467913,5.68917968 12.321691,6.09968476 11.7103311,6.09968476 C10.523867,6.09968476 10.2851385,4.88327411 10.2851385,4.37832813 C10.2851385,2.83030183 11.2697771,2.37209963 11.7916525,2.37209963 C12.3962848,2.37209963 13.0457015,2.77462043 13.0527387,3.61174811 C13.0527387,3.65971335 13.0527387,3.70648693 13.0457015,3.75445217 L12.9781449,3.80182158 L10.882227,3.80182158 L10.882227,3.80182158 Z M12.2516372,3.38871376 L12.2516372,3.38871376 C12.4440658,3.38871376 12.4668346,3.3133143 12.4668346,3.24403422 C12.4668346,2.94853392 12.227762,2.710971 11.7953871,2.710971 C11.3251614,2.710971 11.0010696,2.97126304 10.9084803,3.38871376 L12.2516372,3.38871376 L12.2516372,3.38871376 Z" id="Shape"></path>
                                    <path d="M13.0901763,5.56809324 L13.2630318,5.56809324 C13.4416329,5.56809324 13.5696087,5.56809324 13.5696087,5.32275966 L13.5696087,3.23975983 C13.5696087,3.01011798 13.3332844,2.96536439 13.2369586,2.90606588 L13.2369586,2.79530075 C13.7041028,2.56509948 13.9602233,2.37209963 14.018405,2.37209963 C14.0563078,2.37209963 14.0751383,2.39447643 14.0751383,2.46887926 L14.0751383,3.13598744 L14.0886819,3.13598744 C14.2482351,2.84704709 14.5174406,2.37209963 14.9073309,2.37209963 C15.067367,2.37209963 15.2718724,2.49796909 15.2718724,2.76509208 C15.2718724,2.96536439 15.1506804,3.14381932 14.9715723,3.14381932 C14.7724024,3.14381932 14.7724024,2.96536439 14.548849,2.96536439 C14.4399695,2.96536439 14.0819463,3.13598744 14.0819463,3.58100594 L14.0819463,5.32275966 C14.0819463,5.56806527 14.2096324,5.56806527 14.3890061,5.56806527 L14.7470293,5.56806527 L14.7470293,5.76081338 C14.3950416,5.75323325 14.1273088,5.74598875 13.8516092,5.74598875 C13.5894533,5.74598875 13.3204892,5.75326122 13.0902005,5.76081338 L13.0902005,5.56809324 L13.0901763,5.56809324 L13.0901763,5.56809324 Z" id="Shape"></path>
                                    <path d="M15.712588,4.88322425 C15.8057346,5.40458148 16.091571,5.84702015 16.614093,5.84702015 C17.0351552,5.84702015 17.1927567,5.56280596 17.1927567,5.28633767 C17.1927567,4.35444883 15.6337468,4.65445268 15.6337468,3.38323477 C15.6337468,2.9408259 15.9559944,2.37209963 16.7425439,2.37209963 C16.9711862,2.37209963 17.2785615,2.44360005 17.5573803,2.60179474 L17.6081508,3.40650219 L17.4432616,3.40650219 C17.371978,2.90954447 17.1217968,2.62506216 16.6634598,2.62506216 C16.3773535,2.62506216 16.1058223,2.8068222 16.1058223,3.14612149 C16.1058223,4.07086029 17.7652393,3.78575234 17.7652393,5.02539092 C17.7652393,5.54645024 17.3859864,6.09968476 16.534712,6.09968476 C16.2486056,6.09968476 15.9125386,5.98915702 15.6623574,5.83155817 L15.5835432,4.92323468 L15.712588,4.88322425 L15.712588,4.88322425 Z" id="Shape"></path>
                                    <path d="M23.9915807,1.89019254 L23.8176826,1.89019254 C23.685135,0.9648326 23.1064393,0.592599101 22.3259891,0.592599101 C21.5237065,0.592599101 20.3594759,1.20151579 20.3594759,3.10032454 C20.3594759,4.69970472 21.3640128,5.84652419 22.4372566,5.84652419 C23.1271934,5.84652419 23.6993131,5.30862141 23.8387262,4.47761834 L23.9986566,4.52478184 L23.8387262,5.6799594 C23.5459325,5.88622512 22.7581434,6.09968476 22.2975542,6.09968476 C20.6666844,6.09968476 19.6352645,4.90480628 19.6352645,3.1245033 C19.6352645,1.50243687 20.9107625,0.338871376 22.2770105,0.338871376 C22.8415282,0.338871376 23.3852391,0.545435594 23.9221109,0.75916389 L23.9915807,1.89019254 L23.9915807,1.89019254 Z" id="Shape"></path>
                                    <path d="M24.3103824,5.56483349 L24.4483726,5.56483349 C24.652609,5.56483349 24.7988456,5.56483349 24.7988456,5.31535022 L24.7988456,1.11645963 C24.7988456,0.626083233 24.689443,0.610979413 24.4123357,0.528207062 L24.4123357,0.407604049 C24.7037093,0.309784766 25.0096518,0.173793493 25.1627878,0.0830852358 C25.2422009,0.0381435472 25.3010254,0 25.3224661,0 C25.3670243,0 25.3815655,0.0455390149 25.3815655,0.106096518 L25.3815655,5.31535022 C25.3815655,5.56483349 25.5415461,5.56483349 25.7457825,5.56483349 L25.8686817,5.56483349 L25.8686817,5.76081338 C25.6220862,5.76081338 25.3670243,5.74573801 25.1044857,5.74573801 C24.8425517,5.74573801 24.5802879,5.75316192 24.3103275,5.76081338 L24.3103275,5.56483349 L24.3103824,5.56483349 L24.3103824,5.56483349 Z" id="Shape"></path>
                                    <path d="M28.8273606,5.24131485 C28.8273606,5.37531583 28.9029968,5.38258936 29.0203633,5.38258936 C29.103537,5.38258936 29.2068456,5.37531583 29.2970613,5.37531583 L29.2970613,5.53141716 C28.9995242,5.56079107 28.4327484,5.71661265 28.3012719,5.76081338 L28.2665835,5.73840528 L28.2665835,5.13836631 C27.8524363,5.50145577 27.5339558,5.76081338 27.0428423,5.76081338 C26.6696429,5.76081338 26.2826203,5.50145577 26.2826203,4.8790087 L26.2826203,2.98005557 C26.2826203,2.78730679 26.2552087,2.60180358 25.8686817,2.56490435 L25.8686817,2.4239096 C26.1177857,2.41663606 26.6696689,2.37209963 26.7598847,2.37209963 C26.8365902,2.37209963 26.8365902,2.4239096 26.8365902,2.58700473 L26.8365902,4.4996377 C26.8365902,4.72262761 26.8365902,5.3601533 27.4374806,5.3601533 C27.6724744,5.3601533 27.9833651,5.16740452 28.2734168,4.90863439 L28.2734168,2.91288724 C28.2734168,2.76517845 27.9418957,2.68377076 27.6936263,2.60932889 L27.6936263,2.47588743 C28.3148864,2.4311272 28.7026914,2.37209963 28.7713116,2.37209963 C28.8273345,2.37209963 28.8273345,2.42385365 28.8273345,2.50582084 L28.8273345,5.24131485 L28.8273606,5.24131485 L28.8273606,5.24131485 Z" id="Shape"></path>
                                    <path d="M30.271769,2.9677551 C30.5644881,2.70158435 30.9599768,2.40386656 31.3632603,2.40386656 C32.2132238,2.40386656 32.7254408,3.19549636 32.7254408,4.04824114 C32.7254408,5.07384479 32.0225279,6.09968476 30.9743226,6.09968476 C30.4325572,6.09968476 30.1470247,5.91152499 29.9563013,5.82583402 L29.7368586,6.00542764 L29.5834782,5.91979575 C29.6484349,5.45781478 29.6857227,5.0035138 29.6857227,4.52617286 L29.6857227,1.15938318 C29.6857227,0.650170272 29.5751583,0.634485368 29.2970613,0.548528552 L29.2970613,0.42328563 C29.5909137,0.321702986 29.8977022,0.180479777 30.0516907,0.0862522009 C30.1324026,0.0395814895 30.1906976,0 30.213391,0 C30.2570639,0 30.2716861,0.0472910183 30.2716861,0.110178325 L30.2716861,2.96772556 L30.271769,2.96772556 L30.271769,2.9677551 Z M30.2321015,4.96664933 L30.2321015,4.96664933 C30.2321015,5.26247983 30.4958241,5.76081338 30.9873461,5.76081338 C31.7722038,5.76081338 32.1020991,4.9434642 32.1020991,4.25087449 C32.1020991,3.41092713 31.5012854,2.710971 30.9289502,2.710971 C30.6568972,2.710971 30.4299281,2.89791945 30.2320739,3.077208 L30.2320739,4.96664933 L30.2321015,4.96664933 L30.2321015,4.96664933 Z" id="Shape"></path>
                                </g>
                            </g>
                        </g>
                    </g>
                </g>
            </g>
        </g>
    </g>
</svg>