<?xml version="1.0" encoding="UTF-8"?>
<svg width="55px" height="38px" viewBox="0 0 55 38" version="1.1" xmlns="http://www.w3.org/2000/svg" xmlns:xlink="http://www.w3.org/1999/xlink">
    <!-- Generator: Sketch 57.1 (83088) - https://sketch.com -->
    <title>MasterCard-dark Copy 2</title>
    <desc>Created with Sketch.</desc>
    <g id="Page-1" stroke="none" stroke-width="1" fill="none" fill-rule="evenodd">
        <g id="Payment" transform="translate(-612.000000, -253.000000)">
            <g id="credit-card" transform="translate(284.000000, 243.000000)">
                <g id="base">
                    <g id="MasterCard-dark-Copy-2" transform="translate(328.200000, 5.134021)">
                        <rect id="Rectangle" x="0.8" y="3.86597938" width="54" height="38" rx="4"></rect>
                        <g id="discover" transform="translate(0.800000, 5.865979)">
                            <path d="M49.5137932,36 L3.48622256,36 C1.56087785,36 0,34.3637702 0,32.3454419 L0,3.65455809 C0,1.6362463 1.56087785,0 3.48622256,0 L49.5137774,0 C51.4391221,0 53,1.6362463 53,3.65455809 L53,32.3454419 C53,34.3637702 51.4391379,36 49.5137932,36 Z" id="Path" fill="#F9F9F9" fill-rule="nonzero"></path>
                            <path d="M53.6033227,20.2705902 L53.6033227,20.2711414 L53.5910851,20.279493 L53.5910851,20.2789418 L53.5292152,20.321067 C53.4065217,20.4053174 53.2886472,20.4864945 53.1731821,20.5656672 L53.1637027,20.5721981 C53.0467,20.6522728 52.9317422,20.7305435 52.817149,20.8071606 C50.9642393,22.0453949 49.0436104,23.1568693 47.0866173,24.1998944 C42.5575942,26.6140603 37.8700048,28.6251302 33.0659359,30.3430942 C29.3783937,31.6621213 25.6419167,32.8015734 21.8525262,33.7425426 C19.8994961,34.2273668 17.9319932,34.6486524 15.9677558,35.0820978 C15.6832305,35.1451019 15.3966445,35.1994037 15.1105815,35.2555094 L15.0836968,35.2649467 L12,36 L50.5140936,36 C52.4392086,36 54,34.3555631 54,32.3269047 L54,20 L53.6033227,20.2705902 Z" id="Path" fill="#FF6F00" fill-rule="nonzero"></path>
                            <path d="M49.5137932,36 L3.48622256,36 C1.56087785,36 0,34.3637702 0,32.3454419 L0,3.65455809 C0,1.6362463 1.56087785,0 3.48622256,0 L49.5137774,0 C51.4391221,0 53,1.6362463 53,3.65455809 L53,32.3454419 C53,34.3637702 51.4391379,36 49.5137932,36 Z" id="Path" stroke="#303030" stroke-width="0.8" stroke-linecap="round" stroke-linejoin="round"></path>
                            <path d="M4,19.9979846 C4,17.6579698 4,15.3437082 4,13.0222306 C4.0329804,13.0155357 4.06302367,13.003867 4.09308613,13.0040407 C5.03306603,13.0097093 5.97615585,12.978635 6.91216197,13.0311676 C8.41227122,13.1156272 9.67030661,13.6172055 10.4332904,14.7278117 C11.9361064,16.9152183 10.2961856,19.6497093 7.32495453,19.939294 C6.57782745,20.0119112 5.81628343,19.9835843 5.061228,19.9969741 C4.71414668,20.0031321 4.3668734,19.9979846 4,19.9979846 Z M5.66831315,18.7993188 C5.98220289,18.7993188 6.27833544,18.8121874 6.5723947,18.7965713 C7.22645485,18.761897 7.84356083,18.6340155 8.35258783,18.262545 C9.52108852,17.4094228 9.5872413,15.7896749 8.49533653,14.8634144 C7.70730069,14.194638 6.70222385,14.1803956 5.66831315,14.2001329 C5.66831315,15.7369686 5.66831315,17.2597356 5.66831315,18.7993188 Z" id="Shape" fill="#303030" fill-rule="nonzero"></path>
                            <path d="M44,13.0130547 C44.0203064,13.0067043 44.0322848,12.9998326 44.0442632,13.0000031 C44.6500396,13.0055037 45.2563481,12.9981107 45.86158,13.024555 C46.0737267,13.0338278 46.290588,13.0990854 46.4938499,13.1839314 C47.1838341,13.4722749 47.5672301,14.229459 47.5214943,15.1569984 C47.4955328,15.6862785 47.3903257,16.1681674 47.0788992,16.5477073 C46.886799,16.7814404 46.6562144,16.921576 46.4046552,17.0141467 C46.3682003,17.0273689 46.3316092,17.0395642 46.2791417,17.0579362 C46.8510122,18.0344149 47.4165594,19.0006097 48,19.9970085 C47.7391477,19.9970085 47.5080434,19.9970085 47.2769143,19.9970085 C47.1158863,19.9970085 46.954586,19.9901368 46.7939662,19.9995834 C46.7058481,20.0047332 46.657291,19.9621444 46.6100703,19.8714693 C46.1643815,19.016233 45.7142627,18.1647721 45.2672252,17.310215 C45.2217616,17.2231417 45.1792432,17.148785 45.0700144,17.2044222 C45.0700144,18.1211407 45.0700144,19.0481746 45.0700144,19.98584 C44.705316,19.98584 44.3563456,19.98584 44,19.98584 C44,17.6613992 44,15.3426295 44,13.0130547 Z M45.071227,16.2215773 C45.4067341,16.2219248 45.7382072,16.2490641 46.0412934,16.0347298 C46.3204351,15.8370613 46.4193065,15.5126532 46.415817,15.1229874 C46.4124511,14.7475705 46.3007969,14.4477268 46.0310721,14.272032 C45.7278498,14.0741898 45.4012152,14.1011553 45.071227,14.1159256 C45.071227,14.8214217 45.071227,15.5119581 45.071227,16.2215773 Z" id="Shape" fill="#303030" fill-rule="nonzero"></path>
                            <path d="M40,13 C41.0006686,13 41.993437,13 42.9960991,13 C42.9960991,13.3949384 42.9960991,13.7823004 42.9960991,14.1839592 C42.3559729,14.1839592 41.7169051,14.1839592 41.0678204,14.1839592 C41.0678204,14.70451 41.0678204,15.2105897 41.0678204,15.7358005 C41.6845413,15.7358005 42.2975089,15.7358005 42.9201242,15.7358005 C42.9201242,16.1410732 42.9201242,16.5275793 42.9201242,16.9302684 C42.3016682,16.9302684 41.6884298,16.9302684 41.0666267,16.9302684 C41.0666267,17.5626579 41.0666267,18.1788486 41.0666267,18.8151849 C41.7107645,18.8151849 42.3526381,18.8151849 43,18.8151849 C43,19.2189043 43,19.6024781 43,20 C41.9997375,20 41.0044218,20 40,20 C40,17.6720874 40,15.3462195 40,13 Z" id="Path" fill="#303030" fill-rule="nonzero"></path>
                            <path d="M16.7981255,13.7547795 C16.5977796,14.0572842 16.4045664,14.3487313 16.206782,14.6474539 C15.9894385,14.3794587 15.7598131,14.1636378 15.4480764,14.1177365 C15.1359062,14.0720024 14.8437285,14.1307839 14.6118175,14.3992804 C14.3616216,14.6887377 14.3907566,15.1207137 14.6900801,15.3353803 C14.890715,15.4790381 15.1177789,15.5736506 15.3328368,15.6902416 C15.6615711,15.869062 16.0015759,16.02478 16.3164652,16.231852 C16.7717227,16.5312278 16.9769288,17.0153629 16.9976307,17.6162561 C17.0250449,18.4113259 16.8169883,19.084048 16.2469116,19.5647352 C15.8167958,19.9273429 15.3222625,20.0287297 14.800315,19.9934 C14.0057621,19.9395701 13.4222737,19.4831701 13,18.7516665 C13.2340521,18.4622091 13.4628237,18.1793438 13.6828863,17.9073842 C13.8251198,18.0971104 13.9380737,18.2884922 14.084445,18.4347929 C14.4111827,18.7615697 14.7998815,18.8682423 15.2194362,18.7477021 C15.6457032,18.6255064 15.9017445,18.1471431 15.812067,17.6783489 C15.765514,17.4342915 15.6431286,17.2483626 15.4546311,17.1392143 C15.2421347,17.0163654 15.0180789,16.9205834 14.7988832,16.8134248 C14.5632548,16.6981704 14.321781,16.5964495 14.0930095,16.4650036 C13.3602863,16.0439333 13.135797,15.3089666 13.344576,14.3925213 C13.5192284,13.6260069 14.1245614,13.0895152 14.8731394,13.0129017 C15.5784483,12.9402526 16.2060595,13.1752117 16.7522818,13.6976687 C16.765851,13.7105338 16.7764253,13.7275455 16.7981255,13.7547795 Z" id="Path" fill="#303030" fill-rule="nonzero"></path>
                            <path d="M32,13.0035758 C32.4992083,13.0035758 32.9837039,12.9997258 33.4681995,13.0097666 C33.5133932,13.0105982 33.5745365,13.0906315 33.5982054,13.1452089 C34.1017187,14.3194835 34.6005641,15.4957601 35.1008445,16.6711897 C35.2236755,16.9599844 35.3477601,17.2482709 35.4833245,17.564539 C35.5177476,17.4927138 35.5433958,17.4440038 35.5652669,17.3939387 C36.1761892,15.9755754 36.7876394,14.5577202 37.3953289,13.1385099 C37.4362176,13.043246 37.4815762,12.9980472 37.6013558,13 C38.0586033,13.0074258 38.5160322,13.003083 39,13.003083 C38.972389,13.0708888 38.953025,13.122956 38.9300653,13.1738527 C37.9243089,15.4033452 36.9174639,17.6323603 35.9154681,19.8631925 C35.8679488,19.9693442 35.8098568,20.0056726 35.6913307,19.999297 C35.5279739,19.9902573 35.3628357,20.0051644 35.200188,19.9927674 C35.1426239,19.9884093 35.059428,19.9448891 35.0393383,19.8995209 C34.0260441,17.6271551 33.0186712,15.3524484 32.011117,13.0777572 C32.0050307,13.0641899 32.0061028,13.0474502 32,13.0035758 Z" id="Path" fill="#303030" fill-rule="nonzero"></path>
                            <path d="M23.9983167,14.9287087 C23.8360453,14.7714149 23.6973607,14.6129884 23.5418117,14.49034 C22.9413001,14.017326 22.1698807,14.1278167 21.6282485,14.7517211 C20.8196575,15.6833111 20.8572142,17.5011683 21.7022183,18.3432753 C22.3357234,18.9745648 23.2190428,18.9423962 23.8237442,18.2652854 C23.8746175,18.2084844 23.9249888,18.1510189 23.9985852,18.0679394 C23.9985852,18.1679339 23.9985852,18.2370435 23.9985852,18.3063343 C23.9984568,18.6995612 23.9969396,19.0927881 24,19.4861661 C24.0006159,19.569744 23.980577,19.6137379 23.9204372,19.6510112 C22.6866773,20.4128327 21.1746728,19.8933479 20.4403084,18.4247086 C19.4266839,16.3973479 20.2286809,13.6262134 22.1738371,13.0827607 C22.7752357,12.9152877 23.3587428,12.9986995 23.9114273,13.36302 C23.9473385,13.3868218 23.9941502,13.4438039 23.9946638,13.4863178 C24.0004758,13.9609932 23.9983167,14.4361518 23.9983167,14.9287087 Z" id="Path" fill="#303030" fill-rule="nonzero"></path>
                            <path d="M31.9994583,16.4904111 C32.0356243,18.4241969 30.2563262,20.0029866 28.0009679,20 C25.7305801,19.9970049 23.9870898,18.4849143 24,16.4496073 C24.0124913,14.527434 25.7788071,13.0123526 28.0026397,13 C30.2681996,12.9879527 32.0354366,14.5801707 31.9994583,16.4904111 Z" id="Path" fill="#FF6F00" fill-rule="nonzero"></path>
                            <path d="M12.92659,20 C12.63915,20 12.35987,20 12.07341,20 C12.07341,17.6651662 12.07341,15.3393035 12.07341,13 C12.35683,13 12.63828,13 12.92659,13 C12.92659,15.3301739 12.92659,17.6562109 12.92659,20 Z" id="Path" fill="#303030" fill-rule="nonzero"></path>
                        </g>
                    </g>
                </g>
            </g>
        </g>
    </g>
</svg>