<?xml version="1.0" encoding="UTF-8"?>
<svg width="55px" height="38px" viewBox="0 0 55 38" version="1.1" xmlns="http://www.w3.org/2000/svg" xmlns:xlink="http://www.w3.org/1999/xlink">
    <!-- Generator: Sketch 57.1 (83088) - https://sketch.com -->
    <title>Maestro-dark Copy 2</title>
    <desc>Created with Sketch.</desc>
    <g id="Page-1" stroke="none" stroke-width="1" fill="none" fill-rule="evenodd">
        <g id="Payment" transform="translate(-676.000000, -252.000000)">
            <g id="credit-card" transform="translate(284.000000, 243.000000)">
                <g id="base">
                    <g id="Maestro-dark-Copy-2" transform="translate(392.200000, 9.134021)">
                        <rect id="Rectangle" fill="#000066" x="-0.2" y="-0.134020619" width="55" height="38" rx="4"></rect>
                        <path d="M45.8,18.3661769 C45.8,25.2700377 40.875683,30.8659794 34.7997392,30.8659794 C28.7250124,30.8659794 23.8,25.2700377 23.8,18.3661769 C23.8,11.4621186 28.7250124,5.86597938 34.7997392,5.86597938 C40.875683,5.86597938 45.8,11.4621186 45.8,18.3661769" id="Fill-356" fill="#CC0000"></path>
                        <path d="M27.0749601,26.3041648 C26.7712348,25.8855754 26.4915016,25.4432811 26.2371513,24.980245 L30.135683,24.980245 C30.3696923,24.5559269 30.5809265,24.1138301 30.7695595,23.6565227 L25.6036225,23.6565227 C25.4275071,23.2282538 25.2710373,22.7865521 25.1378641,22.3331955 L31.2344486,22.3331955 C31.6016311,21.0867117 31.8,19.7533099 31.8,18.3661769 C31.8,17.4578834 31.7148109,16.5721095 31.5531254,15.7191274 L24.8200566,15.7191274 C24.9052457,15.2681413 25.0126883,14.8268347 25.139255,14.3954051 L31.2337532,14.3954051 C31.1000585,13.9420485 30.944458,13.5005443 30.7685164,13.0722754 L25.6046656,13.0722754 C25.7932987,12.614968 26.0050544,12.1736614 26.2383683,11.7483556 L30.134466,11.7483556 C29.8802895,11.2865047 29.5998609,10.8450005 29.2966572,10.4258185 L27.0763509,10.4258185 C27.4179766,9.9546832 27.7891577,9.51238888 28.186591,9.10288636 C26.2341958,7.09132626 23.6428822,5.86597938 20.8005216,5.86597938 C14.7249735,5.86597938 9.8,11.4621186 9.8,18.3661769 C9.8,25.2700377 14.7249735,30.8659794 20.8005216,30.8659794 C23.6430561,30.8659794 26.2345435,29.6406325 28.186591,27.6298626 C28.5845458,27.2195699 28.9562485,26.7762879 29.2978742,26.3041648 L27.0749601,26.3041648" id="Fill-357" fill="#0066CC"></path>
                        <path d="M27.3208845,21.6717059 C26.8779689,21.8029227 26.4496314,21.8670651 25.9968878,21.8659655 C24.5523342,21.8644994 23.8,21.1283287 23.8,19.7204962 C23.8,18.0757037 24.7577396,16.8659794 26.0578215,16.8659794 C27.1212121,16.8659794 27.8,17.5442387 27.8,18.6069854 C27.8,18.959585 27.754136,19.3032046 27.6416052,19.7888536 L25.0727273,19.7888536 C24.9813268,20.4764594 25.4299754,20.7782949 26.1937756,20.7782949 C26.6512695,20.7782949 27.0648649,20.6862964 27.5231777,20.4801247 L27.3208845,21.6717059 L27.3208845,21.6717059 Z M26.6301392,18.8188384 C26.6301392,18.7151111 26.772973,17.9769245 26.029484,17.9609806 C25.6190008,17.9609806 25.3246519,18.266298 25.2055692,18.8188384 L26.6301392,18.8188384 L26.6301392,18.8188384 Z" id="Fill-359" fill="#000066"></path>
                        <path d="M28.3476534,18.4958045 C28.3476534,19.1034148 28.6844765,19.5233349 29.450361,19.8358463 C30.0357401,20.079257 30.1277978,20.1498241 30.1277978,20.3673907 C30.1277978,20.6689047 29.8693141,20.8071063 29.2949458,20.8034404 C28.8637184,20.8003245 28.4700361,20.7469867 28.0055957,20.6163001 L27.8,21.7246619 C28.2129964,21.8219895 28.7918773,21.8538822 29.3050542,21.8659794 C30.8337545,21.8659794 31.5395307,21.3577129 31.5395307,20.2590656 C31.5395307,19.5984842 31.2451264,19.2100902 30.5191336,18.9204902 C29.9122744,18.6741468 29.8411552,18.6211757 29.8411552,18.3981103 C29.8411552,18.1363705 30.0815884,18.0040343 30.550361,18.0040343 C30.834657,18.0040343 31.2236462,18.0304282 31.5929603,18.0758844 L31.8,16.9614741 C31.4238267,16.9085029 30.8532491,16.8659794 30.5227437,16.8659794 C28.9032491,16.8659794 28.3427798,17.6062924 28.3476534,18.4958045" id="Fill-360" fill="#000066"></path>
                        <path d="M23.319663,21.7869867 L22.2651586,21.7869867 L22.2903231,21.2818732 C21.9687946,21.680319 21.5403571,21.8659794 20.9591695,21.8659794 C20.2712332,21.8659794 19.8,21.3280592 19.8,20.5544439 C19.8,19.3785339 20.6192084,18.700223 22.0277789,18.700223 C22.1725148,18.700223 22.3566804,18.7126859 22.5458148,18.7370618 C22.5849239,18.5796262 22.5955026,18.5118135 22.5955026,18.4264061 C22.5955026,18.1045703 22.3738307,17.9859896 21.7811027,17.9859896 C21.1967095,17.9885555 20.8024123,18.0877088 20.4364853,18.200058 L20.6166439,17.1212853 C21.2494427,16.9372744 21.663615,16.8659794 22.1324439,16.8659794 C23.2231724,16.8659794 23.7992309,17.3553309 23.7992309,18.2742855 C23.8083671,18.5196944 23.7338353,19.0119784 23.6961687,19.227513 C23.6535333,19.5407347 23.3512388,21.3581168 23.319663,21.7869867 L23.319663,21.7869867 Z M22.3940264,19.6415375 C22.2605103,19.6265087 22.2023275,19.6219267 22.1108057,19.6219267 C21.3916141,19.6219267 21.0269694,19.8667858 21.0269694,20.3500892 C21.0269694,20.6535971 21.2048839,20.8432896 21.4823345,20.8432896 C21.9990881,20.8432896 22.3722279,20.3489895 22.3940264,19.6415375 L22.3940264,19.6415375 Z" id="Fill-361" fill="#000066"></path>
                        <path d="M34.10839,22.685648 C33.6898554,22.811179 33.3634449,22.8659794 33.0106579,22.8659794 C32.2290571,22.8659794 31.8021829,22.4284263 31.8021829,21.6493269 C31.7775518,21.4352232 31.9685882,20.4462683 32.012032,20.1707797 C32.0550879,19.8944416 32.732152,15.8659794 32.732152,15.8659794 L34.2507461,15.8659794 L34.0211145,17.1990295 L34.8,17.1990295 L34.5884054,18.559055 L33.8060288,18.559055 C33.8060288,18.559055 33.3768272,20.9203549 33.3768272,21.1008987 C33.3768272,21.3870074 33.5350868,21.5114764 33.8987348,21.5114764 C34.0725101,21.5114764 34.2069144,21.4936344 34.3106753,21.4596497 L34.10839,22.685648" id="Fill-362" fill="#000066"></path>
                        <path d="M39.5885309,16.8738709 C38.565673,16.8738709 37.7664929,17.3066069 37.3022056,18.0282605 L37.705182,16.9574905 C36.9626788,16.6777217 36.4839549,17.0771562 36.0513924,17.6447448 C36.0513924,17.6447448 35.9788531,17.738977 35.906492,17.8251582 L35.906492,16.9836559 L34.5961502,16.9836559 C34.4186339,18.4688645 34.1047721,19.9751151 33.8593504,21.4636172 L33.8,21.7873001 L35.2096155,21.7873001 C35.3434657,21.0319791 35.4532549,20.4190126 35.5626877,19.9301033 C35.8621129,18.5888961 36.3661453,18.179032 37.1227287,18.3605432 C36.948064,18.7457057 36.8523549,19.1921649 36.8523549,19.6860146 C36.8523549,20.8850501 37.4861382,21.8659794 39.060794,21.8659794 C40.6495299,21.8659794 41.8,20.9946522 41.8,19.007726 C41.8,17.8094224 41.0332576,16.8738709 39.5885309,16.8738709 L39.5885309,16.8738709 Z M39.1782471,20.7006112 C38.6804527,20.7084792 38.3785323,20.2795856 38.3785323,19.6377091 C38.3785323,18.8772648 38.8189369,18.017831 39.5266854,18.017831 C40.097732,18.017831 40.2932496,18.4827706 40.2932496,18.9780841 C40.2932496,20.0598326 39.8614,20.7006112 39.1782471,20.7006112 L39.1782471,20.7006112 Z" id="Fill-363" fill="#000066"></path>
                        <polyline id="Fill-364" fill="#000066" points="18.7274096 21.8659794 17.3664569 21.8659794 18.1752191 17.2532994 16.3132173 21.8659794 15.0726891 21.8659794 14.8460077 17.2804174 14.0346538 21.8659794 12.8 21.8659794 13.8515118 15.8659794 15.9782056 15.8659794 16.1553005 19.2108457 17.502604 15.8659794 19.8 15.8659794 18.7274096 21.8659794"></polyline>
                        <path d="M27.3205569,21.6715226 C26.8779689,21.8029227 26.4494676,21.8670651 25.9968878,21.8659655 C24.5523342,21.8644994 23.8,21.1281454 23.8,19.7204962 C23.8,18.0757037 24.7575758,16.8659794 26.0574939,16.8659794 C27.1210483,16.8659794 27.8,17.5442387 27.8,18.6068022 C27.8,18.9594017 27.7539722,19.3022883 27.6416052,19.7888536 L25.0728911,19.7888536 C24.9813268,20.4757263 25.4296478,20.7781116 26.193448,20.7781116 C26.6509419,20.7781116 27.0648649,20.6861132 27.5230139,20.4795749 L27.3205569,21.6715226 L27.3205569,21.6715226 Z M26.6298116,18.8188384 C26.6298116,18.7149278 26.7726454,17.9769245 26.029484,17.9607973 C25.6190008,17.9607973 25.3246519,18.2661148 25.2052416,18.8188384 L26.6298116,18.8188384 L26.6298116,18.8188384 Z" id="Fill-366" fill="#FFFFFF"></path>
                        <path d="M28.3479897,18.4955615 C28.3479897,19.1033328 28.6846171,19.5228709 29.4502865,19.8357374 C30.0360002,20.0793225 30.1278733,20.1497037 30.1278733,20.3667125 C30.1278733,20.6687653 29.8692207,20.8069618 29.2954199,20.8034794 C28.8636704,20.8001803 28.4700059,20.7468445 28.0059474,20.6161627 L27.8,21.7241172 C28.2131583,21.8218078 28.792374,21.8536993 29.3049862,21.8659794 C30.8336176,21.8659794 31.5397229,21.3575483 31.5397229,20.2585747 C31.5397229,19.5983841 31.2451514,19.2096377 30.5191914,18.9204149 C29.9123596,18.6742638 29.8410631,18.6205615 29.8410631,18.3982374 C29.8410631,18.1365072 30.0818465,18.003626 30.5504174,18.003626 C30.8347006,18.003626 31.2234917,18.0305688 31.5929696,18.0760234 L31.8,16.9616539 C31.4238437,16.9079515 30.8532918,16.8659794 30.5231623,16.8659794 C28.9033798,16.8659794 28.3429358,17.6058987 28.3479897,18.4955615" id="Fill-367" fill="#FFFFFF"></path>
                        <path d="M23.3198004,21.787525 L22.2650303,21.787525 L22.2905141,21.2823375 C21.968842,21.6804751 21.5407474,21.8659794 20.9594297,21.8659794 C20.2716895,21.8659794 19.8,21.3281636 19.8,20.5544349 C19.8,19.3787191 20.6193261,18.7003087 22.0278232,18.7003087 C22.1725516,18.7003087 22.3565474,18.7129567 22.5459925,18.7364197 C22.5850996,18.5793276 22.5955175,18.5120548 22.5955175,18.4264516 C22.5955175,18.1038355 22.3740174,17.9857873 21.7814805,17.9857873 C21.1969574,17.9885368 20.8026807,18.0877046 20.4369331,18.2002537 L20.6166014,17.1211394 C21.2495276,16.9371016 21.663518,16.8659794 22.1326431,16.8659794 C23.2233149,16.8659794 23.7991831,17.3548528 23.7991831,18.2743087 C23.8086394,18.5199369 23.7336306,19.0113766 23.6964468,19.227676 C23.6533328,19.5409436 23.3512144,21.3585922 23.3198004,21.787525 L23.3198004,21.787525 Z M22.3940517,19.6419445 C22.2607029,19.6261803 22.2023628,19.6221476 22.1106854,19.6221476 C21.3918518,19.6221476 21.0270658,19.8666759 21.0270658,20.3496836 C21.0270658,20.653786 21.2052917,20.8438728 21.482247,20.8438728 C21.9992943,20.8438728 22.3724146,20.3489504 22.3940517,19.6419445 L22.3940517,19.6419445 Z" id="Fill-368" fill="#FFFFFF"></path>
                        <path d="M34.1082037,21.6854411 C33.6894797,21.8111807 33.3632668,21.8659794 33.0102897,21.8659794 C32.2286976,21.8659794 31.8022159,21.4282272 31.8022159,20.6491514 C31.7773912,20.4350542 31.9684255,19.4461293 32.0116749,19.1706491 C32.0551182,18.8943193 32.7321748,14.8659794 32.7321748,14.8659794 L34.2505582,14.8659794 L34.0211231,16.1985643 L34.8,16.1985643 L34.5882137,17.5589733 L33.8060398,17.5589733 C33.8060398,17.5589733 33.376455,19.9202015 33.376455,20.0998902 C33.376455,20.3870523 33.5349068,20.5106679 33.8985508,20.5106679 C34.0723241,20.5106679 34.206533,20.4936761 34.3108746,20.4592676 L34.1082037,21.6854411" id="Fill-369" fill="#FFFFFF"></path>
                        <path d="M41.2776657,18.9726026 C41.2776657,20.0569774 40.8407061,20.698769 40.1503242,20.698769 C39.6472622,20.7060996 39.3423271,20.2770779 39.3423271,19.6341867 C39.3423271,18.8725402 39.7873919,18.0115645 40.5024496,18.0115645 C41.079719,18.0115645 41.2776657,18.4772391 41.2776657,18.9726026 L41.2776657,18.9726026 Z M42.8,19.0030244 C42.8,17.8030098 42.024964,16.8659794 40.5653098,16.8659794 C38.8860951,16.8659794 37.8,18.0047838 37.8,19.6825685 C37.8,20.8833162 38.4404899,21.8659794 40.0319885,21.8659794 C41.637536,21.8659794 42.8,20.9932748 42.8,19.0030244 L42.8,19.0030244 Z" id="Fill-370" fill="#FFFFFF"></path>
                        <path d="M35.6686348,16.9202247 C35.4750644,18.4495735 35.1322796,20.0000194 34.8645883,21.5321937 L34.8,21.8659794 L36.3384466,21.8659794 C36.8928943,18.906551 37.079072,18.0636102 38.2410778,18.3602877 L38.8,16.9601584 C37.989339,16.6721458 37.4677691,17.0835386 36.9956131,17.6682286 C37.038218,17.4050804 37.1183697,17.1509738 37.09911,16.9202247 L35.6686348,16.9202247" id="Fill-371" fill="#FFFFFF"></path>
                        <polyline id="Fill-372" fill="#FFFFFF" points="18.7274096 21.8659794 17.3668024 21.8659794 18.1753918 17.2534431 16.3132173 21.8659794 15.0726891 21.8659794 14.8458349 17.2803733 14.0344811 21.8659794 12.8 21.8659794 13.851339 15.8659794 15.9782056 15.8659794 16.0905097 19.5804699 17.5876095 15.8659794 19.8 15.8659794 18.7274096 21.8659794"></polyline>
                    </g>
                </g>
            </g>
        </g>
    </g>
</svg>