<?xml version="1.0" encoding="UTF-8"?>
<svg width="54px" height="38px" viewBox="0 0 54 38" version="1.1" xmlns="http://www.w3.org/2000/svg" xmlns:xlink="http://www.w3.org/1999/xlink">
    <!-- Generator: Sketch 57.1 (83088) - https://sketch.com -->
    <title>MasterCard-dark Copy</title>
    <desc>Created with Sketch.</desc>
    <g id="Page-1" stroke="none" stroke-width="1" fill="none" fill-rule="evenodd">
        <g id="Payment" transform="translate(-613.000000, -252.000000)">
            <g id="credit-card" transform="translate(284.000000, 243.000000)">
                <g id="base">
                    <g id="MasterCard-dark-Copy" transform="translate(329.200000, 9.134021)">
                        <rect id="Rectangle" fill="#000066" x="-0.2" y="-0.134020619" width="54" height="38" rx="4"></rect>
                        <path d="M30.8,19.3661769 C30.8,26.2700377 26.0992802,31.8659794 20.3002489,31.8659794 C14.5010517,31.8659794 9.8,26.2700377 9.8,19.3661769 C9.8,12.4625137 14.5010517,6.86597938 20.3002489,6.86597938 C26.0992802,6.86597938 30.8,12.4625137 30.8,19.3661769" id="Fill-333" fill="#CC0000"></path>
                        <path d="M34.1809326,6.86597938 C31.4364247,6.86597938 28.9365965,8.09132626 27.0516562,10.1015036 C26.6681904,10.5112036 26.3102329,10.9536955 25.9797978,11.4248308 L28.1253606,11.4248308 C28.4183722,11.844803 28.6883925,12.2863071 28.9349183,12.7487506 L25.1700723,12.7487506 C24.9448596,13.1736614 24.7401207,13.6151655 24.5582051,14.0726705 L29.5464498,14.0726705 C29.7169537,14.5011369 29.8669837,14.9424436 29.9962041,15.3959977 L24.1084509,15.3959977 C23.9859432,15.8270322 23.8825668,16.2687339 23.8,16.7191274 L30.3043193,16.7191274 C30.4600551,17.5725046 30.5429576,18.4578834 30.5429576,19.3661769 C30.5429576,20.7539025 30.3508051,22.0896748 29.9962041,23.3371463 L24.1084509,23.3371463 C24.2376713,23.7903054 24.3877013,24.2322046 24.5578695,24.6612637 L29.5464498,24.6612637 C29.3641987,25.1175834 29.1604667,25.5594827 28.9339114,25.984986 L25.1700723,25.984986 C25.4155912,26.4460467 25.686115,26.8881435 25.9797978,27.307523 L28.1246893,27.307523 C27.7949255,27.7790534 27.4366324,28.2215453 27.0519918,28.6312454 C28.9367643,30.6414227 31.4364247,31.8659794 34.1809326,31.8659794 C40.0456946,31.8659794 44.8,26.2700377 44.8,19.3661769 C44.8,12.4631063 40.0456946,6.86597938 34.1809326,6.86597938" id="Fill-334" fill="#FF9900"></path>
                        <path d="M17.394844,20.6398674 C17.2615997,20.6247589 17.2028318,20.6199684 17.1113534,20.6199684 C16.3917236,20.6199684 16.027843,20.8661268 16.027843,21.3523633 C16.027843,21.65177 16.2054404,21.8421005 16.4826475,21.8421005 C16.9999161,21.8421005 17.3726674,21.3512578 17.394844,20.6398674 L17.394844,20.6398674 Z M18.3183135,22.7828825 L17.266035,22.7828825 L17.2902444,22.2844855 C16.9694233,22.6780441 16.5412307,22.8659794 15.95965,22.8659794 C15.2718066,22.8659794 14.8,22.3305481 14.8,21.5524591 C14.8,20.38118 15.6203484,19.6981642 17.0287457,19.6981642 C17.1730782,19.6981642 17.3575134,19.7114302 17.5463839,19.7351985 C17.5855625,19.5763748 17.5959116,19.5089392 17.5959116,19.4232628 C17.5959116,19.1048783 17.374885,18.9854841 16.7818465,18.9854841 C16.1607176,18.9792196 15.6484388,19.1334371 15.4379461,19.2023467 C15.4512521,19.1223821 15.6140651,18.1206133 15.6140651,18.1206133 C16.246467,17.9352575 16.6637562,17.8659794 17.1333452,17.8659794 C18.2236934,17.8659794 18.8012084,18.3538741 18.7999147,19.2762311 C18.8021324,19.5236792 18.7609209,19.8278764 18.6971633,20.2291735 C18.5870196,20.9256396 18.3504695,22.4193567 18.3183135,22.7828825 L18.3183135,22.7828825 Z" id="Fill-336" fill="#000066"></path>
                        <polyline id="Fill-337" fill="#000066" points="13.9915949 22.8659794 12.9461307 22.8659794 13.5453212 18.2539596 12.2080217 22.8659794 11.4957792 22.8659794 11.4076808 18.2797564 10.7783634 22.8659794 9.8 22.8659794 10.6172302 16.8659794 12.1203798 16.8659794 12.2112169 20.2244241 13.1282615 16.8659794 14.8 16.8659794 13.9915949 22.8659794"></polyline>
                        <path d="M35.394344,20.6398674 C35.2610875,20.6247589 35.2030534,20.6199684 35.1117514,20.6199684 C34.3915008,20.6199684 34.0279562,20.8661268 34.0279562,21.3523633 C34.0279562,21.65177 34.2048307,21.8421005 34.4828027,21.8421005 C34.9997494,21.8421005 35.3727198,21.3512578 35.394344,20.6398674 L35.394344,20.6398674 Z M36.3184531,22.7828825 L35.2664473,22.7828825 L35.2902893,22.2844855 C34.9694386,22.6780441 34.5413913,22.8659794 33.9601266,22.8659794 C33.2712957,22.8659794 32.8,22.3305481 32.8,21.5524591 C32.8,20.38118 33.6207937,19.6981642 35.0289512,19.6981642 C35.1731123,19.6981642 35.3571948,19.7114302 35.5462675,19.7351985 C35.5856346,19.5763748 35.5957998,19.5089392 35.5957998,19.4232628 C35.5957998,19.1048783 35.3747529,18.9854841 34.7816596,18.9854841 C34.1604735,18.9792196 33.6483322,19.1334371 33.4370808,19.2023467 C33.4511273,19.1223821 33.614325,18.1206133 33.614325,18.1206133 C34.2464156,17.9352575 34.664113,17.8659794 35.1330059,17.8659794 C36.224194,17.8659794 36.8010229,18.3538741 36.799914,19.2762311 C36.8021319,19.5236792 36.7612862,19.8278764 36.6971531,20.2291735 C36.5873689,20.9256396 36.3502425,22.4193567 36.3184531,22.7828825 L36.3184531,22.7828825 Z" id="Fill-338" fill="#000066"></path>
                        <path d="M23.2726912,22.6991871 C23.0054854,22.815627 22.7973746,22.8659794 22.5715068,22.8659794 C22.0727511,22.8659794 21.8004314,22.4690608 21.8004314,21.7379676 C21.7934707,21.5109884 21.8721692,20.9140371 21.9341053,20.3696017 C21.9906432,19.8898771 22.3574297,16.8659794 22.3574297,16.8659794 L23.3272404,16.8659794 L23.2140224,17.6430979 L23.8,17.6430979 L23.6677466,18.8771251 L23.0797803,18.8771251 C22.9671305,19.8532929 22.8064661,21.0696181 22.8046194,21.2309032 C22.8046194,21.4956466 22.906615,21.6112998 23.1388752,21.6112998 C23.2501044,21.6112998 23.3361899,21.5955647 23.4019614,21.5629143 L23.2726912,22.6991871" id="Fill-339" fill="#000066"></path>
                        <path d="M27.3198791,22.6708346 C26.8767778,22.8029414 26.4497309,22.8674287 25.9966191,22.8659547 C24.5526679,22.8641122 23.8,22.1289572 23.8,20.7203707 C23.8,19.0764978 24.7574086,17.8659794 26.057437,17.8659794 C27.1206157,17.8659794 27.8,18.5436486 27.8,19.6060305 C27.8,19.9592365 27.7535367,20.3034144 27.6407782,20.7890957 L25.0724525,20.7890957 C24.9857588,21.4868481 25.4432147,21.7774094 26.1939938,21.7774094 C26.6550382,21.7774094 27.071697,21.6845477 27.5346303,21.4750561 L27.3198791,22.6708346 L27.3198791,22.6708346 Z M26.5949759,19.8197598 C26.6023421,19.7193438 26.7315327,18.9611577 25.9943526,18.9611577 C25.5841156,18.9611577 25.2900368,19.2666431 25.1708565,19.8197598 L26.5949759,19.8197598 L26.5949759,19.8197598 Z" id="Fill-340" fill="#000066"></path>
                        <path d="M19.2113987,19.4940149 C19.2113987,20.1018566 19.4644699,20.5213945 20.038625,20.8366467 C20.4784942,21.0778304 20.5469816,21.1491352 20.5469816,21.3674718 C20.5469816,21.6668785 20.3527495,21.8028552 19.9230031,21.8028552 C19.5985976,21.8028552 19.2971266,21.7435266 18.949312,21.6125247 C18.949312,21.6125247 18.8068013,22.6730693 18.8,22.7237382 C19.0469025,22.7860148 19.2670744,22.8440536 19.9307534,22.8659794 C21.0771656,22.8659794 21.6067169,22.3574486 21.6067169,21.2583956 C21.6067169,20.5976741 21.3852797,20.2098273 20.8408604,19.9179748 C20.3854906,19.6745802 20.3328202,19.6200421 20.3328202,19.3956253 C20.3328202,19.1356481 20.5136078,19.0028036 20.8645859,19.0028036 C21.0779565,19.0028036 21.3691464,19.0293357 21.6454684,19.0748455 L21.8,17.9593943 C21.5187747,17.9072514 21.0920335,17.8659794 20.8437075,17.8659794 C19.6283334,17.8659794 19.2074445,18.6053758 19.2113987,19.4940149" id="Fill-341" fill="#000066"></path>
                        <path d="M32.6584001,17.483806 C32.9582587,17.483806 33.2383153,17.5847421 33.6231966,17.8364719 L33.8,16.4188894 C33.6412698,16.3383034 33.0847713,15.8659794 32.6132956,15.8659794 C31.8909948,15.8659794 31.279648,16.3307738 30.8504479,17.0961381 C30.2236995,16.8275178 29.9658023,17.3704564 29.6502279,17.9117669 L29.3696998,17.996423 C29.3909162,17.8183603 29.4102467,17.6415187 29.4041176,17.462235 L28.4121326,17.462235 C28.2769763,19.1067201 28.0369951,20.7717588 27.8491906,22.4168544 L27.8,22.7742008 L28.8801509,22.7742008 C29.0604118,21.2573103 29.1589502,20.2864108 29.2189848,19.6286981 L29.6257111,19.3368789 C29.6868458,19.0436351 29.8765362,18.945141 30.2581172,18.9571475 C30.208298,19.3035048 30.1812667,19.6683807 30.1812667,20.0458736 C30.1812667,21.7839688 30.9063964,22.8659794 32.0681125,22.8659794 C32.3674996,22.8659794 32.624611,22.8151043 33.0226937,22.6746892 L33.2119126,21.1862887 C32.8539054,21.4140054 32.5608047,21.52125 32.2950495,21.52125 C31.6673582,21.52125 31.2875059,20.9211279 31.2875059,19.9298784 C31.2875059,18.4913355 31.8520195,17.483806 32.6584001,17.483806" id="Fill-342" fill="#000066"></path>
                        <path d="M42.593171,16.8659794 L42.321207,18.5753932 C41.9872631,18.1198813 41.6278503,17.7899071 41.1533827,17.7899071 C40.5360761,17.7899071 39.9741597,18.2743608 39.606198,18.9877687 C39.0937944,18.8777159 38.5642928,18.6906076 38.5642928,18.6906076 L38.5639366,18.6952162 C38.6047223,18.296482 38.6219983,18.0538865 38.6179019,17.9709321 L37.4938911,17.9709321 C37.3412564,19.4606089 37.0689362,20.9689043 36.8562807,22.4591341 L36.8,22.7828406 L38.0244612,22.7828406 C38.1897412,21.6723577 38.3160166,20.7491673 38.4091647,20.0180625 C38.8277078,19.6265177 39.0371575,19.2860359 39.4590845,19.3081571 C39.2718978,19.7767573 39.1627204,20.3161453 39.1627204,20.8695433 C39.1627204,22.0720135 39.7501056,22.8659794 40.6399104,22.8659794 C41.0883749,22.8659794 41.4324708,22.7057852 41.7680177,22.3348868 L41.7103122,22.7824719 L42.8679846,22.7824719 L43.8,16.8659794 L42.593171,16.8659794 L42.593171,16.8659794 Z M41.0630842,21.6712516 C40.6466784,21.6712516 40.4358039,21.3516006 40.4358039,20.7226219 C40.4358039,19.7767573 40.8299468,19.1063014 41.3847391,19.1063014 C41.8052413,19.1063014 42.0332137,19.4373816 42.0332137,20.0486634 C42.0332137,21.0026391 41.632481,21.6712516 41.0630842,21.6712516 L41.0630842,21.6712516 Z" id="Fill-343" fill="#000066"></path>
                        <polyline id="Fill-344" fill="#FFFFFF" points="14.9914427 21.8659794 13.9462828 21.8659794 14.5453212 17.2535285 13.208326 21.8659794 12.4957792 21.8659794 12.407833 17.2802624 11.7783634 21.8659794 10.8 21.8659794 11.6172302 15.8659794 13.1203798 15.8659794 13.1623749 19.5803185 14.1766471 15.8659794 15.8 15.8659794 14.9914427 21.8659794"></polyline>
                        <path d="M17.3946674,19.6404 C17.2616075,19.6249241 17.2028394,19.6206866 17.1113608,19.6206866 C16.3917287,19.6206866 16.0276621,19.8664584 16.0276621,20.3522906 C16.0276621,20.6513068 16.2054448,20.8427287 16.4828377,20.8427287 C16.9999231,20.8427287 17.3726756,20.3519221 17.3946674,19.6404 L17.3946674,19.6404 Z M18.317955,21.7825202 L17.2662277,21.7825202 L17.2902524,21.2845283 C16.9694302,21.6778737 16.5412362,21.8659794 15.9596537,21.8659794 C15.2716233,21.8659794 14.8,21.3298506 14.8,20.5520032 C14.8,19.3806262 15.6205358,18.6985819 17.0289376,18.6985819 C17.172901,18.6985819 17.3573367,18.7116627 17.5463926,18.735982 C17.5855714,18.5768014 17.5959205,18.5091866 17.5959205,18.423148 C17.5959205,18.1049712 17.3748932,17.986507 16.7818528,17.986507 C16.1605371,17.9791376 15.6484415,18.1333437 15.4377633,18.202064 C15.4512541,18.1224737 15.6138829,17.1207787 15.6138829,17.1207787 C16.2464716,16.9358051 16.6637622,16.8659794 17.1333526,16.8659794 C18.2235195,16.8659794 18.8008515,17.3543909 18.7999274,18.2763114 C18.8019603,18.5233728 18.7611183,18.8290215 18.6971757,19.2291836 C18.5868469,19.9250457 18.350296,21.4195738 18.317955,21.7825202 L18.317955,21.7825202 Z" id="Fill-345" fill="#FFFFFF"></path>
                        <path d="M33.8,16.1658894 L33.6045433,17.4189629 C33.1783608,17.1971338 32.869626,17.1073587 32.5384789,17.1073587 C31.64737,17.1073587 31.022256,17.9991728 31.022256,19.2711368 C31.022256,20.1474786 31.4423576,20.6769539 32.1362724,20.6769539 C32.4302393,20.6769539 32.7549581,20.5828609 33.1498675,20.380822 L32.9401642,21.696684 C32.5007775,21.8206421 32.2163662,21.8659794 31.8855666,21.8659794 C30.600417,21.8659794 29.8,20.9092178 29.8,19.3729659 C29.8,17.308678 30.9065456,15.8659794 32.4882683,15.8659794 C33.0094862,15.8659794 33.6250445,16.094645 33.8,16.1658894" id="Fill-346" fill="#FFFFFF"></path>
                        <path d="M35.3940753,19.6404 C35.2617377,19.6249241 35.2027773,19.6206866 35.1114717,19.6206866 C34.3921172,19.6206866 34.0278192,19.8664584 34.0278192,20.3522906 C34.0278192,20.6513068 34.2054399,20.8427287 34.4826834,20.8427287 C34.9996502,20.8427287 35.37282,20.3519221 35.3940753,19.6404 L35.3940753,19.6404 Z M36.3182204,21.7825202 L35.2663584,21.7825202 L35.2902014,21.2845283 C34.9693382,21.6778737 34.5410894,21.8659794 33.9599869,21.8659794 C33.2711292,21.8659794 32.8,21.3298506 32.8,20.5520032 C32.8,19.3806262 33.6199015,18.6985819 35.0288531,18.6985819 C35.172835,18.6985819 35.3569247,18.7116627 35.5458199,18.735982 C35.5851885,18.5768014 35.5955389,18.5091866 35.5955389,18.423148 C35.5955389,18.1049712 35.3750379,17.986507 34.7815519,17.986507 C34.1607112,17.9791376 33.6487349,18.1333437 33.4376601,18.202064 C33.4509678,18.1224737 33.6138022,17.1207787 33.6138022,17.1207787 C34.2464719,16.9358051 34.6634462,16.8659794 35.1330967,16.8659794 C36.2234031,16.8659794 36.8013634,17.3543909 36.7998848,18.2763114 C36.8024724,18.5233728 36.7612555,18.8290215 36.6973047,19.2291836 C36.5873314,19.9250457 36.3507503,21.4195738 36.3182204,21.7825202 L36.3182204,21.7825202 Z" id="Fill-347" fill="#FFFFFF"></path>
                        <path d="M23.3402986,22.6989849 C23.0611199,22.8154286 22.8431555,22.8659794 22.6072131,22.8659794 C22.085406,22.8659794 21.8004328,22.4688511 21.8004328,21.7385207 C21.793301,21.5107473 21.875762,20.9147599 21.9406907,20.3697166 C21.9993792,19.8895828 22.383157,16.8659794 22.383157,16.8659794 L23.3977985,16.8659794 L23.2790844,17.6429267 L23.8,17.6429267 L23.6612278,18.8766009 L23.1386778,18.8766009 C23.0208552,19.8537843 22.8528131,21.0693625 22.850733,21.2306529 C22.850733,21.4961918 22.957858,21.611062 23.2004864,21.611062 C23.3168233,21.611062 23.4067132,21.5959164 23.4758021,21.5624782 L23.3402986,22.6989849" id="Fill-348" fill="#FFFFFF"></path>
                        <path d="M27.3204005,21.6714239 C26.8770684,21.80389 26.4490366,21.8663462 25.9964488,21.8659778 C24.5521723,21.8650566 23.8,21.1290312 23.8,19.7207262 C23.8,18.0764142 24.7573102,16.8659794 26.0565168,16.8659794 C27.1209294,16.8659794 27.8,17.5436018 27.8,18.6071999 C27.8,18.9596446 27.7527767,19.3036145 27.6413298,19.7894465 L25.0723838,19.7894465 C24.9853041,20.4871507 25.4433699,20.7782446 26.1934643,20.7782446 C26.6549301,20.7782446 27.0714394,20.6850208 27.534983,20.4749911 L27.3204005,21.6714239 L27.3204005,21.6714239 Z M26.5952399,18.8196248 C26.6022289,18.7190316 26.7319985,17.9612663 25.9949377,17.9612663 C25.5842841,17.9612663 25.2901776,18.2672833 25.1706082,18.8196248 L26.5952399,18.8196248 L26.5952399,18.8196248 Z" id="Fill-349" fill="#FFFFFF"></path>
                        <path d="M19.2110824,18.4938949 C19.2110824,19.1027972 19.4644699,19.521383 20.0387831,19.8369805 C20.4786524,20.0779621 20.5468234,20.1492617 20.5468234,20.3677665 C20.5468234,20.6675196 20.3527495,20.8027493 19.9226868,20.8027493 C19.5985976,20.8027493 19.2969684,20.7441621 18.9489956,20.6135382 C18.9489956,20.6135382 18.8066431,21.6732678 18.8,21.7231959 C19.0467443,21.7862049 19.2670744,21.8436867 19.9304371,21.8659794 C21.0771656,21.8659794 21.6067169,21.3576703 21.6067169,20.2586983 C21.6067169,19.597657 21.3849634,19.210023 20.8407023,18.918929 C20.3851743,18.6748154 20.3328202,18.620834 20.3328202,18.3960652 C20.3328202,18.1361072 20.5134497,18.0023514 20.864744,18.0023514 C21.0776401,18.0023514 21.3691464,18.0299869 21.6453103,18.0753091 L21.8,16.9601243 C21.5186165,16.9083538 21.0921917,16.8659794 20.8437075,16.8659794 C19.6280171,16.8659794 19.2074445,17.6055055 19.2110824,18.4938949" id="Fill-350" fill="#FFFFFF"></path>
                        <path d="M42.9962208,21.7824694 L41.9979491,21.7824694 L42.0474171,21.3346862 C41.7578292,21.7057803 41.4611745,21.8659794 41.0743404,21.8659794 C40.3074317,21.8659794 39.8,21.0729109 39.8,19.8691133 C39.8,18.2685971 40.5867266,16.9195327 41.5172485,16.9195327 C41.9265123,16.9195327 42.236379,17.1201042 42.5250451,17.5758144 L42.7591735,15.8659794 L43.8,15.8659794 L42.9962208,21.7824694 L42.9962208,21.7824694 Z M41.4392057,20.6706618 C41.9309675,20.6706618 42.2760149,20.0023975 42.2760149,19.0493143 C42.2760149,18.4378293 42.0795253,18.1056328 41.7168107,18.1056328 C41.2381073,18.1056328 40.8982832,18.7762937 40.8982832,19.722556 C40.8982832,20.3522915 41.0803318,20.6706618 41.4392057,20.6706618 L41.4392057,20.6706618 Z" id="Fill-351" fill="#FFFFFF"></path>
                        <path d="M37.5132393,16.9190904 C37.3559421,18.4502929 37.0761399,20.0010168 36.8573155,21.5333565 L36.8,21.8659794 L38.0581945,21.8659794 C38.5082952,18.840722 38.6165171,18.2503401 39.3226149,18.3240668 C39.4348654,17.7048765 39.6441677,17.1626348 39.8,16.8893344 C39.2731734,16.7756172 38.978905,17.0837909 38.5932613,17.6694346 C38.6240249,17.4160347 38.6795092,17.1702159 38.6690716,16.9190904 L37.5132393,16.9190904" id="Fill-352" fill="#FFFFFF"></path>
                        <path d="M28.5138323,16.9190904 C28.3557929,18.4502929 28.0756074,20.0010168 27.8571359,21.5333565 L27.8,21.8659794 L29.0586375,21.8659794 C29.5089488,18.840722 29.6168111,18.2503401 30.3218533,18.3240668 C30.4348431,17.7048765 30.6445245,17.1626348 30.8,16.8893344 C30.2736906,16.7756172 29.9788548,17.0837909 29.5939202,17.6694346 C29.6243194,17.4160347 29.6801734,17.1702159 29.6691857,16.9190904 L28.5138323,16.9190904" id="Fill-353" fill="#FFFFFF"></path>
                    </g>
                </g>
            </g>
        </g>
    </g>
</svg>