<?xml version="1.0" encoding="UTF-8"?>
<svg width="55px" height="38px" viewBox="0 0 55 38" version="1.1" xmlns="http://www.w3.org/2000/svg" xmlns:xlink="http://www.w3.org/1999/xlink">
    <!-- Generator: Sketch 57.1 (83088) - https://sketch.com -->
    <title>Visa-dark Copy</title>
    <desc>Created with Sketch.</desc>
    <g id="Page-1" stroke="none" stroke-width="1" fill="none" fill-rule="evenodd">
        <g id="Payment" transform="translate(-549.000000, -252.000000)">
            <g id="credit-card" transform="translate(284.000000, 243.000000)">
                <g id="base">
                    <g id="Visa-dark-Copy" transform="translate(265.200000, 9.134021)">
                        <rect id="Rectangle" fill="#26337A" x="-0.2" y="-0.134020619" width="55" height="38" rx="4"></rect>
                        <polyline id="Fill-3" fill="#FFFFFE" points="22.8 24.8659794 24.3393709 12.8659794 26.8 12.8659794 25.2607698 24.8659794 22.8 24.8659794"></polyline>
                        <path d="M35.8,13.3537326 C35.2728475,13.1204145 34.443768,12.8659794 33.4109639,12.8659794 C30.7750491,12.8659794 28.91957,14.4435804 28.9041687,16.7025938 C28.8873949,18.3735907 30.2282256,19.3054895 31.2390713,19.8608861 C32.277975,20.4301891 32.6270209,20.7945018 32.6229038,21.3035438 C32.6157368,22.0821291 31.7936717,22.4388877 31.0271124,22.4388877 C29.9596935,22.4388877 29.3925891,22.2632553 28.5157806,21.8292391 L28.1728342,21.6441641 L27.8,24.2463731 C28.4216953,24.5701685 29.5742028,24.8512146 30.7703219,24.8659794 C33.5716867,24.8659794 35.391941,23.3074353 35.4132894,20.8951084 C35.4228961,19.570054 34.7124526,18.5657047 33.1738444,17.7364727 C32.2421402,17.197386 31.6703086,16.8402841 31.6768656,16.2946734 C31.6774756,15.8115557 32.1599489,15.2942728 33.2041896,15.2942728 C34.0762709,15.278478 34.707573,15.504757 35.1995006,15.7409937 L35.4389074,15.8738768 L35.8,13.3537326" id="Fill-4" fill="#FFFFFE"></path>
                        <path d="M39.1112866,20.6044082 C39.3420522,19.9142149 40.220522,17.247962 40.220522,17.247962 C40.2042777,17.2797052 40.4500135,16.5524486 40.5906388,16.1023688 L40.7785638,17.1380134 C40.7785638,17.1380134 41.312876,20.0041244 41.4229237,20.6044082 L39.1112866,20.6044082 L39.1112866,20.6044082 Z M42.5464923,12.8659794 L40.3945916,12.8659794 C39.7271392,12.8659794 39.2275453,13.0784284 38.9351468,13.8613686 L34.8,24.8659794 L37.724623,24.8659794 C37.724623,24.8659794 38.2017614,23.3855751 38.3100572,23.0606948 C38.6290519,23.0606948 41.4708605,23.0669015 41.8764919,23.0669015 C41.9599433,23.4859475 42.2155532,24.8659794 42.2155532,24.8659794 L44.8,24.8659794 L42.5464923,12.8659794 L42.5464923,12.8659794 Z" id="Fill-5" fill="#FFFFFE"></path>
                        <path d="M20.7967906,12.8659794 L18.022939,21.061136 L17.7258275,19.3952632 C17.2089215,17.4758881 15.5998509,15.3954999 13.8,14.3530868 L16.337686,24.8659794 L19.3370052,24.8640266 L23.8,12.8659794 L20.7967906,12.8659794" id="Fill-6" fill="#FFFFFE"></path>
                        <path d="M15.4842985,12.8659794 L10.8382298,12.8659794 L10.8,13.132666 C14.4151836,14.198842 16.8071798,16.772377 17.8,19.8659794 L16.7903719,13.9519241 C16.6161959,13.1362775 16.1099812,12.8944918 15.4842985,12.8659794" id="Fill-7" fill="#EC982D"></path>
                    </g>
                </g>
            </g>
        </g>
    </g>
</svg>